STARTFONT 2.1
COMMENT
COMMENT Converted from OpenType font "fireflysung.ttf" by "otf2bdf.exe 3.0".
COMMENT
FONT -FreeType-AR PL New Sung-Medium-R-Normal--13-130-72-72-P-120-ISO10646-1
SIZE 13 72 72
FONTBOUNDINGBOX 13 13 0 -2
STARTPROPERTIES 19
FOUNDRY "FreeType"
FAMILY_NAME "AR PL New Sung"
WEIGHT_NAME "Medium"
SLANT "R"
SETWIDTH_NAME "Normal"
ADD_STYLE_NAME ""
PIXEL_SIZE 13
POINT_SIZE 130
RESOLUTION_X 72
RESOLUTION_Y 72
SPACING "P"
AVERAGE_WIDTH 120
CHARSET_REGISTRY "ISO10646"
CHARSET_ENCODING "1"
FONT_ASCENT 11
FONT_DESCENT 2
COPYRIGHT "(c) Copyright 1994-1999, Arphic Technology Co., Ltd."
_OTF_FONTFILE "fireflysung.ttf"
_OTF_PSNAME "AR-PL-New-Sung"
ENDPROPERTIES
CHARS 7490
STARTCHAR 20
ENCODING 32
SWIDTH 307 0
DWIDTH 5 0
BBX 8 12 -2 -1
BITMAP
00
00
00
00
00
00
00
00
00
00
00
00
ENDCHAR
STARTCHAR 21
ENCODING 33
SWIDTH 307 0
DWIDTH 7 0
BBX 8 12 -1 -1
BITMAP
00
00
10
10
10
10
10
10
00
10
00
00
ENDCHAR
STARTCHAR 23
ENCODING 35
SWIDTH 307 0
DWIDTH 7 0
BBX 8 12 -1 -1
BITMAP
00
00
14
14
7E
14
28
7E
28
28
00
00
ENDCHAR
STARTCHAR 24
ENCODING 36
SWIDTH 307 0
DWIDTH 7 0
BBX 8 12 -1 -1
BITMAP
00
08
1E
2A
28
18
0C
0A
2A
3C
08
00
ENDCHAR
STARTCHAR 25
ENCODING 37
SWIDTH 307 0
DWIDTH 7 0
BBX 8 12 -1 -1
BITMAP
00
00
21
52
54
5A
2D
15
25
42
00
00
ENDCHAR
STARTCHAR 26
ENCODING 38
SWIDTH 307 0
DWIDTH 7 0
BBX 8 12 -1 -1
BITMAP
00
00
08
14
14
18
29
45
42
3D
00
00
ENDCHAR
STARTCHAR 28
ENCODING 40
SWIDTH 307 0
DWIDTH 7 0
BBX 8 12 -1 -1
BITMAP
00
02
04
08
10
10
10
10
10
08
04
02
ENDCHAR
STARTCHAR 29
ENCODING 41
SWIDTH 307 0
DWIDTH 7 0
BBX 8 12 -1 -1
BITMAP
00
20
10
08
04
04
04
04
04
08
10
20
ENDCHAR
STARTCHAR 2A
ENCODING 42
SWIDTH 307 0
DWIDTH 7 0
BBX 8 12 -1 -1
BITMAP
00
00
08
2A
14
14
00
00
00
00
00
00
ENDCHAR
STARTCHAR 2B
ENCODING 43
SWIDTH 307 0
DWIDTH 7 0
BBX 8 12 -1 -1
BITMAP
00
00
00
00
00
10
10
7C
10
10
00
00
ENDCHAR
STARTCHAR 2C
ENCODING 44
SWIDTH 307 0
DWIDTH 7 0
BBX 8 12 -1 -1
BITMAP
00
00
00
00
00
00
00
00
18
18
08
10
ENDCHAR
STARTCHAR 2D
ENCODING 45
SWIDTH 307 0
DWIDTH 7 0
BBX 8 12 -1 -1
BITMAP
00
00
00
00
00
00
3E
00
00
00
00
00
ENDCHAR
STARTCHAR 2E
ENCODING 46
SWIDTH 307 0
DWIDTH 5 0
BBX 8 12 -2 -1
BITMAP
00
00
00
00
00
00
00
00
18
18
00
00
ENDCHAR
STARTCHAR 2F
ENCODING 47
SWIDTH 307 0
DWIDTH 7 0
BBX 8 12 -1 -1
BITMAP
00
04
04
08
08
08
10
10
20
20
20
00
ENDCHAR
STARTCHAR 30
ENCODING 48
SWIDTH 307 0
DWIDTH 7 0
BBX 8 12 -1 -1
BITMAP
00
00
1C
22
22
22
22
22
22
1C
00
00
ENDCHAR
STARTCHAR 31
ENCODING 49
SWIDTH 307 0
DWIDTH 7 0
BBX 8 12 -1 -1
BITMAP
00
00
18
28
08
08
08
08
08
3E
00
00
ENDCHAR
STARTCHAR 32
ENCODING 50
SWIDTH 307 0
DWIDTH 7 0
BBX 8 12 -1 -1
BITMAP
00
00
3C
02
02
04
08
10
20
3E
00
00
ENDCHAR
STARTCHAR 33
ENCODING 51
SWIDTH 307 0
DWIDTH 7 0
BBX 8 12 -1 -1
BITMAP
00
00
3C
02
02
1C
02
02
02
3C
00
00
ENDCHAR
STARTCHAR 34
ENCODING 52
SWIDTH 307 0
DWIDTH 7 0
BBX 8 12 -1 -1
BITMAP
00
00
04
0C
14
14
24
3E
04
04
00
00
ENDCHAR
STARTCHAR 35
ENCODING 53
SWIDTH 307 0
DWIDTH 7 0
BBX 8 12 -1 -1
BITMAP
00
00
3C
20
20
38
04
04
04
38
00
00
ENDCHAR
STARTCHAR 36
ENCODING 54
SWIDTH 307 0
DWIDTH 7 0
BBX 8 12 -1 -1
BITMAP
00
00
1E
20
20
2C
32
22
22
1C
00
00
ENDCHAR
STARTCHAR 37
ENCODING 55
SWIDTH 307 0
DWIDTH 7 0
BBX 8 12 -1 -1
BITMAP
00
00
3E
02
04
08
10
10
20
20
00
00
ENDCHAR
STARTCHAR 38
ENCODING 56
SWIDTH 307 0
DWIDTH 7 0
BBX 8 12 -1 -1
BITMAP
00
00
1C
22
22
1C
26
22
22
1C
00
00
ENDCHAR
STARTCHAR 39
ENCODING 57
SWIDTH 307 0
DWIDTH 7 0
BBX 8 12 -1 -1
BITMAP
00
00
1C
22
22
26
1A
02
02
3C
00
00
ENDCHAR
STARTCHAR 3A
ENCODING 58
SWIDTH 307 0
DWIDTH 7 0
BBX 8 12 -1 -1
BITMAP
00
00
00
00
18
18
00
00
18
18
00
00
ENDCHAR
STARTCHAR 3B
ENCODING 59
SWIDTH 307 0
DWIDTH 7 0
BBX 8 12 -1 -1
BITMAP
00
00
00
00
18
18
00
00
18
18
08
10
ENDCHAR
STARTCHAR 3C
ENCODING 60
SWIDTH 307 0
DWIDTH 7 0
BBX 8 12 -1 -1
BITMAP
00
00
00
00
02
0C
30
30
0C
02
00
00
ENDCHAR
STARTCHAR 3D
ENCODING 61
SWIDTH 307 0
DWIDTH 7 0
BBX 8 12 -1 -1
BITMAP
00
00
00
00
00
7E
00
7E
00
00
00
00
ENDCHAR
STARTCHAR 3E
ENCODING 62
SWIDTH 307 0
DWIDTH 7 0
BBX 8 12 -1 -1
BITMAP
00
00
00
00
40
30
0C
0C
30
40
00
00
ENDCHAR
STARTCHAR 3F
ENCODING 63
SWIDTH 307 0
DWIDTH 7 0
BBX 8 12 -1 -1
BITMAP
00
00
3C
22
02
04
08
08
00
08
00
00
ENDCHAR
STARTCHAR 40
ENCODING 64
SWIDTH 307 0
DWIDTH 7 0
BBX 8 12 -1 -1
BITMAP
00
00
1C
2A
56
52
56
4B
20
1C
00
00
ENDCHAR
STARTCHAR 41
ENCODING 65
SWIDTH 307 0
DWIDTH 7 0
BBX 8 12 -1 -1
BITMAP
00
00
08
14
14
14
22
3E
22
41
00
00
ENDCHAR
STARTCHAR 42
ENCODING 66
SWIDTH 307 0
DWIDTH 7 0
BBX 8 12 -1 -1
BITMAP
00
00
3C
22
22
3C
24
22
22
3C
00
00
ENDCHAR
STARTCHAR 43
ENCODING 67
SWIDTH 307 0
DWIDTH 7 0
BBX 8 12 -1 -1
BITMAP
00
00
0E
10
20
20
20
20
10
0E
00
00
ENDCHAR
STARTCHAR 44
ENCODING 68
SWIDTH 307 0
DWIDTH 7 0
BBX 8 12 -1 -1
BITMAP
00
00
38
24
22
22
22
22
24
38
00
00
ENDCHAR
STARTCHAR 45
ENCODING 69
SWIDTH 307 0
DWIDTH 7 0
BBX 8 12 -1 -1
BITMAP
00
00
3E
20
20
3C
20
20
20
3E
00
00
ENDCHAR
STARTCHAR 46
ENCODING 70
SWIDTH 307 0
DWIDTH 7 0
BBX 8 12 -1 -1
BITMAP
00
00
3E
20
20
3C
20
20
20
20
00
00
ENDCHAR
STARTCHAR 47
ENCODING 71
SWIDTH 307 0
DWIDTH 7 0
BBX 8 12 -1 -1
BITMAP
00
00
0E
10
20
20
22
22
12
0E
00
00
ENDCHAR
STARTCHAR 48
ENCODING 72
SWIDTH 307 0
DWIDTH 7 0
BBX 8 12 -1 -1
BITMAP
00
00
22
22
22
3E
22
22
22
22
00
00
ENDCHAR
STARTCHAR 49
ENCODING 73
SWIDTH 307 0
DWIDTH 7 0
BBX 8 12 -1 -1
BITMAP
00
00
3E
08
08
08
08
08
08
3E
00
00
ENDCHAR
STARTCHAR 4A
ENCODING 74
SWIDTH 307 0
DWIDTH 7 0
BBX 8 12 -1 -1
BITMAP
00
00
1C
04
04
04
04
04
04
38
00
00
ENDCHAR
STARTCHAR 4B
ENCODING 75
SWIDTH 307 0
DWIDTH 7 0
BBX 8 12 -1 -1
BITMAP
00
00
22
24
28
30
30
28
24
22
00
00
ENDCHAR
STARTCHAR 4C
ENCODING 76
SWIDTH 307 0
DWIDTH 7 0
BBX 8 12 -1 -1
BITMAP
00
00
20
20
20
20
20
20
20
3E
00
00
ENDCHAR
STARTCHAR 4D
ENCODING 77
SWIDTH 307 0
DWIDTH 7 0
BBX 8 12 -1 -1
BITMAP
00
00
42
42
66
66
5A
5A
42
42
00
00
ENDCHAR
STARTCHAR 4E
ENCODING 78
SWIDTH 307 0
DWIDTH 7 0
BBX 8 12 -1 -1
BITMAP
00
00
22
32
32
2A
2A
26
26
22
00
00
ENDCHAR
STARTCHAR 4F
ENCODING 79
SWIDTH 307 0
DWIDTH 7 0
BBX 8 12 -1 -1
BITMAP
00
00
08
14
22
22
22
22
14
08
00
00
ENDCHAR
STARTCHAR 50
ENCODING 80
SWIDTH 307 0
DWIDTH 7 0
BBX 8 12 -1 -1
BITMAP
00
00
3C
22
22
24
38
20
20
20
00
00
ENDCHAR
STARTCHAR 51
ENCODING 81
SWIDTH 307 0
DWIDTH 7 0
BBX 8 12 -1 -1
BITMAP
00
00
08
14
22
22
22
22
14
0C
02
00
ENDCHAR
STARTCHAR 52
ENCODING 82
SWIDTH 307 0
DWIDTH 7 0
BBX 8 12 -1 -1
BITMAP
00
00
3C
22
22
22
3C
24
22
22
00
00
ENDCHAR
STARTCHAR 53
ENCODING 83
SWIDTH 307 0
DWIDTH 7 0
BBX 8 12 -1 -1
BITMAP
00
00
1E
20
20
18
04
02
02
3C
00
00
ENDCHAR
STARTCHAR 54
ENCODING 84
SWIDTH 307 0
DWIDTH 7 0
BBX 8 12 -1 -1
BITMAP
00
00
7F
08
08
08
08
08
08
08
00
00
ENDCHAR
STARTCHAR 55
ENCODING 85
SWIDTH 307 0
DWIDTH 7 0
BBX 8 12 -1 -1
BITMAP
00
00
22
22
22
22
22
22
22
1C
00
00
ENDCHAR
STARTCHAR 56
ENCODING 86
SWIDTH 307 0
DWIDTH 7 0
BBX 8 12 -1 -1
BITMAP
00
00
41
22
22
22
14
14
14
08
00
00
ENDCHAR
STARTCHAR 57
ENCODING 87
SWIDTH 307 0
DWIDTH 7 0
BBX 8 12 -1 -1
BITMAP
00
00
41
41
49
49
36
36
22
22
00
00
ENDCHAR
STARTCHAR 58
ENCODING 88
SWIDTH 307 0
DWIDTH 7 0
BBX 8 12 -1 -1
BITMAP
00
00
22
14
14
08
08
14
22
22
00
00
ENDCHAR
STARTCHAR 59
ENCODING 89
SWIDTH 307 0
DWIDTH 7 0
BBX 8 12 -1 -1
BITMAP
00
00
22
22
14
14
08
08
08
08
00
00
ENDCHAR
STARTCHAR 5A
ENCODING 90
SWIDTH 307 0
DWIDTH 7 0
BBX 8 12 -1 -1
BITMAP
00
00
3E
02
04
08
08
10
20
3E
00
00
ENDCHAR
STARTCHAR 5B
ENCODING 91
SWIDTH 307 0
DWIDTH 7 0
BBX 8 12 -1 -1
BITMAP
00
1C
10
10
10
10
10
10
10
10
10
1C
ENDCHAR
STARTCHAR 5C
ENCODING 92
SWIDTH 307 0
DWIDTH 7 0
BBX 8 12 -1 -1
BITMAP
00
40
40
20
10
10
08
08
04
02
02
00
ENDCHAR
STARTCHAR 5D
ENCODING 93
SWIDTH 307 0
DWIDTH 7 0
BBX 8 12 -1 -1
BITMAP
00
1C
04
04
04
04
04
04
04
04
04
1C
ENDCHAR
STARTCHAR 5E
ENCODING 94
SWIDTH 307 0
DWIDTH 7 0
BBX 8 12 -1 -1
BITMAP
00
00
08
08
14
14
22
22
00
00
00
00
ENDCHAR
STARTCHAR 5F
ENCODING 95
SWIDTH 307 0
DWIDTH 7 0
BBX 8 12 -1 -1
BITMAP
00
00
00
00
00
00
00
00
00
00
7F
00
ENDCHAR
STARTCHAR 60
ENCODING 96
SWIDTH 307 0
DWIDTH 7 0
BBX 8 12 -1 -1
BITMAP
00
10
08
00
00
00
00
00
00
00
00
00
ENDCHAR
STARTCHAR 61
ENCODING 97
SWIDTH 307 0
DWIDTH 7 0
BBX 8 12 -1 -1
BITMAP
00
00
00
00
3C
02
1E
22
26
19
00
00
ENDCHAR
STARTCHAR 62
ENCODING 98
SWIDTH 307 0
DWIDTH 7 0
BBX 8 12 -1 -1
BITMAP
00
20
20
20
2C
32
22
22
32
2C
00
00
ENDCHAR
STARTCHAR 63
ENCODING 99
SWIDTH 307 0
DWIDTH 7 0
BBX 8 12 -1 -1
BITMAP
00
00
00
00
1E
20
20
20
20
1E
00
00
ENDCHAR
STARTCHAR 64
ENCODING 100
SWIDTH 307 0
DWIDTH 7 0
BBX 8 12 -1 -1
BITMAP
00
02
02
02
1A
26
22
22
26
1A
00
00
ENDCHAR
STARTCHAR 65
ENCODING 101
SWIDTH 307 0
DWIDTH 7 0
BBX 8 12 -1 -1
BITMAP
00
00
00
00
1C
22
3E
20
20
1E
00
00
ENDCHAR
STARTCHAR 66
ENCODING 102
SWIDTH 307 0
DWIDTH 7 0
BBX 8 12 -1 -1
BITMAP
00
07
08
08
3F
08
08
08
08
08
00
00
ENDCHAR
STARTCHAR 67
ENCODING 103
SWIDTH 307 0
DWIDTH 7 0
BBX 8 12 -1 -1
BITMAP
00
00
00
00
1A
26
22
22
26
1A
02
3C
ENDCHAR
STARTCHAR 68
ENCODING 104
SWIDTH 307 0
DWIDTH 7 0
BBX 8 12 -1 -1
BITMAP
00
20
20
20
2C
32
22
22
22
22
00
00
ENDCHAR
STARTCHAR 69
ENCODING 105
SWIDTH 307 0
DWIDTH 7 0
BBX 8 12 -1 -1
BITMAP
00
00
04
00
1C
04
04
04
04
04
00
00
ENDCHAR
STARTCHAR 6A
ENCODING 106
SWIDTH 307 0
DWIDTH 7 0
BBX 8 12 -1 -1
BITMAP
00
00
04
00
3C
04
04
04
04
04
04
38
ENDCHAR
STARTCHAR 6B
ENCODING 107
SWIDTH 307 0
DWIDTH 7 0
BBX 8 12 -1 -1
BITMAP
00
20
20
20
24
28
30
28
24
22
00
00
ENDCHAR
STARTCHAR 6C
ENCODING 108
SWIDTH 307 0
DWIDTH 7 0
BBX 8 12 -1 -1
BITMAP
00
38
08
08
08
08
08
08
08
08
00
00
ENDCHAR
STARTCHAR 6D
ENCODING 109
SWIDTH 307 0
DWIDTH 7 0
BBX 8 12 -1 -1
BITMAP
00
00
00
00
5B
6D
49
49
49
49
00
00
ENDCHAR
STARTCHAR 6E
ENCODING 110
SWIDTH 307 0
DWIDTH 7 0
BBX 8 12 -1 -1
BITMAP
00
00
00
00
2C
32
22
22
22
22
00
00
ENDCHAR
STARTCHAR 6F
ENCODING 111
SWIDTH 307 0
DWIDTH 7 0
BBX 8 12 -1 -1
BITMAP
00
00
00
00
1C
22
22
22
22
1C
00
00
ENDCHAR
STARTCHAR 70
ENCODING 112
SWIDTH 307 0
DWIDTH 7 0
BBX 8 12 -1 -1
BITMAP
00
00
00
00
2C
32
22
22
32
2C
20
20
ENDCHAR
STARTCHAR 71
ENCODING 113
SWIDTH 307 0
DWIDTH 7 0
BBX 8 12 -1 -1
BITMAP
00
00
00
00
1A
26
22
22
26
1A
02
02
ENDCHAR
STARTCHAR 72
ENCODING 114
SWIDTH 307 0
DWIDTH 7 0
BBX 8 12 -1 -1
BITMAP
00
00
00
00
2E
32
20
20
20
20
00
00
ENDCHAR
STARTCHAR 73
ENCODING 115
SWIDTH 307 0
DWIDTH 7 0
BBX 8 12 -1 -1
BITMAP
00
00
00
00
1E
20
18
04
02
3C
00
00
ENDCHAR
STARTCHAR 74
ENCODING 116
SWIDTH 307 0
DWIDTH 7 0
BBX 8 12 -1 -1
BITMAP
00
00
00
10
3E
10
10
10
10
0E
00
00
ENDCHAR
STARTCHAR 75
ENCODING 117
SWIDTH 307 0
DWIDTH 7 0
BBX 8 12 -1 -1
BITMAP
00
00
00
00
22
22
22
22
26
1A
00
00
ENDCHAR
STARTCHAR 76
ENCODING 118
SWIDTH 307 0
DWIDTH 7 0
BBX 8 12 -1 -1
BITMAP
00
00
00
00
22
22
14
14
14
08
00
00
ENDCHAR
STARTCHAR 77
ENCODING 119
SWIDTH 307 0
DWIDTH 7 0
BBX 8 12 -1 -1
BITMAP
00
00
00
00
41
49
5D
36
22
22
00
00
ENDCHAR
STARTCHAR 78
ENCODING 120
SWIDTH 307 0
DWIDTH 7 0
BBX 8 12 -1 -1
BITMAP
00
00
00
00
22
14
08
08
14
22
00
00
ENDCHAR
STARTCHAR 79
ENCODING 121
SWIDTH 307 0
DWIDTH 7 0
BBX 8 12 -1 -1
BITMAP
00
00
00
00
22
22
14
14
08
08
08
30
ENDCHAR
STARTCHAR 7A
ENCODING 122
SWIDTH 307 0
DWIDTH 7 0
BBX 8 12 -1 -1
BITMAP
00
00
00
00
3E
04
08
10
20
3E
00
00
ENDCHAR
STARTCHAR 7B
ENCODING 123
SWIDTH 307 0
DWIDTH 7 0
BBX 8 12 -1 -1
BITMAP
00
0C
10
10
10
10
20
10
10
10
10
0C
ENDCHAR
STARTCHAR 7C
ENCODING 124
SWIDTH 307 0
DWIDTH 7 0
BBX 8 12 -1 -1
BITMAP
00
08
08
08
08
08
08
08
08
08
08
00
ENDCHAR
STARTCHAR 7D
ENCODING 125
SWIDTH 307 0
DWIDTH 7 0
BBX 8 12 -1 -1
BITMAP
00
18
04
04
04
04
02
04
04
04
04
18
ENDCHAR
STARTCHAR 7E
ENCODING 126
SWIDTH 307 0
DWIDTH 7 0
BBX 8 12 -1 -1
BITMAP
10
29
06
00
00
00
00
00
00
00
00
00
ENDCHAR
STARTCHAR B0
ENCODING 176
SWIDTH 307 0
DWIDTH 5 0
BBX 8 12 -2 -1
BITMAP
00
00
0C
12
12
0C
00
00
00
00
00
00
ENDCHAR
STARTCHAR FFFD
ENCODING 65533
SWIDTH 307 0
DWIDTH 7 0
BBX 8 12 -1 -1
BITMAP
00
00
00
00
00
00
00
00
00
00
00
00
ENDCHAR
STARTCHAR FFFD
ENCODING 65533
SWIDTH 307 0
DWIDTH 7 0
BBX 8 12 -1 -1
BITMAP
00
00
00
00
00
00
00
00
00
00
00
00
ENDCHAR
STARTCHAR 2103
ENCODING 8451
SWIDTH 1000 0
DWIDTH 12 0
BBX 12 12 -1 -2
BITMAP
0000
E740
A8C0
F040
1000
1000
1000
1040
0840
0780
0000
0000
ENDCHAR
STARTCHAR 2514
ENCODING 9492
SWIDTH 1000 0
DWIDTH 12 0
BBX 12 12 -1 -2
BITMAP
0400
0400
0400
0400
0400
07F0
0000
0000
0000
0000
0000
0000
ENDCHAR
STARTCHAR 554A
ENCODING 21834
SWIDTH 1000 0
DWIDTH 12 0
BBX 12 12 -1 -2
BITMAP
1DE0
F420
B420
BBA0
B6A0
B6A0
F7A0
1C20
1020
1020
10E0
0000
ENDCHAR
STARTCHAR 963F
ENCODING 38463
SWIDTH 1000 0
DWIDTH 12 0
BBX 12 12 -1 -2
BITMAP
F7E0
9040
A040
C740
A540
9540
9740
F040
8040
8040
81C0
0000
ENDCHAR
STARTCHAR 57C3
ENCODING 22467
SWIDTH 1000 0
DWIDTH 12 0
BBX 12 12 -1 -2
BITMAP
2200
2440
2FE0
F000
2400
27C0
2900
3FE0
C280
0440
1820
0000
ENDCHAR
STARTCHAR 6328
ENCODING 25384
SWIDTH 1000 0
DWIDTH 12 0
BBX 12 12 -1 -2
BITMAP
2100
2240
F7E0
2020
2400
37C0
E900
3FE0
2280
2440
7820
0000
ENDCHAR
STARTCHAR 54CE
ENCODING 21710
SWIDTH 1000 0
DWIDTH 12 0
BBX 12 12 -1 -2
BITMAP
0480
EFE0
A480
A000
A480
A480
A480
E300
0300
0480
3860
0000
ENDCHAR
STARTCHAR 5509
ENCODING 21769
SWIDTH 1000 0
DWIDTH 12 0
BBX 12 12 -1 -2
BITMAP
0280
E440
AFE0
A400
A7C0
A900
A900
FFE0
0280
0440
1820
0000
ENDCHAR
STARTCHAR 54C0
ENCODING 21696
SWIDTH 1000 0
DWIDTH 12 0
BBX 12 12 -1 -2
BITMAP
0400
FFE0
0000
3F80
2080
3F80
0C40
1280
3100
D480
1860
0000
ENDCHAR
STARTCHAR 7691
ENCODING 30353
SWIDTH 1000 0
DWIDTH 12 0
BBX 12 12 -1 -2
BITMAP
2100
4520
F7E0
9000
97C0
F040
97C0
9400
F420
9420
07E0
0000
ENDCHAR
STARTCHAR 764C
ENCODING 30284
SWIDTH 1000 0
DWIDTH 12 0
BBX 12 12 -1 -2
BITMAP
0200
7FE0
4840
CFC0
4000
5DE0
D520
5DE0
4200
9240
9FC0
0000
ENDCHAR
STARTCHAR 853C
ENCODING 34108
SWIDTH 1000 0
DWIDTH 12 0
BBX 12 12 -1 -2
BITMAP
1200
FFE0
4840
2FC0
0840
CFC0
4860
5920
4AA0
6FA0
00C0
0000
ENDCHAR
STARTCHAR 77EE
ENCODING 30702
SWIDTH 1000 0
DWIDTH 12 0
BBX 12 12 -1 -2
BITMAP
41C0
4F00
F100
AFE0
2540
F920
2200
2FE0
5480
4380
9C60
0000
ENDCHAR
STARTCHAR 827E
ENCODING 33406
SWIDTH 1000 0
DWIDTH 12 0
BBX 12 12 -1 -2
BITMAP
0900
FFE0
0900
0900
1080
1080
0900
0A00
0600
1900
E0E0
0000
ENDCHAR
STARTCHAR 788D
ENCODING 30861
SWIDTH 1000 0
DWIDTH 12 0
BBX 12 12 -1 -2
BITMAP
F7C0
2440
27C0
4440
77C0
D000
57E0
5040
77E0
5240
01C0
0000
ENDCHAR
STARTCHAR 7231
ENCODING 29233
SWIDTH 1000 0
DWIDTH 12 0
BBX 12 12 -1 -2
BITMAP
03C0
7C80
1500
FFE0
8820
7FC0
0800
0F80
1900
2600
D9E0
0000
ENDCHAR
STARTCHAR 9698
ENCODING 38552
SWIDTH 1000 0
DWIDTH 12 0
BBX 12 12 -1 -2
BITMAP
E840
A480
BFE0
A280
E440
9820
9FC0
F540
9540
9540
BFE0
0000
ENDCHAR
STARTCHAR 978D
ENCODING 38797
SWIDTH 1000 0
DWIDTH 12 0
BBX 12 12 -1 -2
BITMAP
5100
FFE0
5420
7100
2100
FFE0
AA40
FA40
2380
F940
2620
0000
ENDCHAR
STARTCHAR 6C28
ENCODING 27688
SWIDTH 1000 0
DWIDTH 12 0
BBX 12 12 -1 -2
BITMAP
2000
7FE0
4000
BF80
0880
7F80
5180
FE80
24A0
1E60
E320
0000
ENDCHAR
STARTCHAR 5B89
ENCODING 23433
SWIDTH 1000 0
DWIDTH 12 0
BBX 12 12 -1 -2
BITMAP
0400
7FE0
4020
8840
0800
FFE0
1100
1900
0600
0D80
F060
0000
ENDCHAR
STARTCHAR 4FFA
ENCODING 20474
SWIDTH 1000 0
DWIDTH 12 0
BBX 12 12 -1 -2
BITMAP
2200
3FE0
4500
4A80
CFC0
5AA0
6F80
4A80
4FA0
4220
43E0
0000
ENDCHAR
STARTCHAR 6309
ENCODING 25353
SWIDTH 1000 0
DWIDTH 12 0
BBX 12 12 -1 -2
BITMAP
2100
2FE0
F820
2200
3200
6FE0
A440
2480
2380
2140
EE20
0000
ENDCHAR
STARTCHAR 6697
ENCODING 26263
SWIDTH 1000 0
DWIDTH 12 0
BBX 12 12 -1 -2
BITMAP
0100
FFE0
9440
9280
FFE0
9000
97C0
9440
F7C0
9440
07C0
0000
ENDCHAR
STARTCHAR 5CB8
ENCODING 23736
SWIDTH 1000 0
DWIDTH 12 0
BBX 12 12 -1 -2
BITMAP
4440
4440
7FC0
0000
7FE0
4000
5FC0
4200
7FE0
4200
8200
0000
ENDCHAR
STARTCHAR 80FA
ENCODING 33018
SWIDTH 1000 0
DWIDTH 12 0
BBX 12 12 -1 -2
BITMAP
7100
5FE0
5820
7100
5100
5FE0
7240
5640
5180
9140
BE20
0000
ENDCHAR
STARTCHAR 6848
ENCODING 26696
SWIDTH 1000 0
DWIDTH 12 0
BBX 12 12 -1 -2
BITMAP
0400
7FE0
8820
7FC0
1200
1F00
2480
FFE0
0E00
1500
E4E0
0000
ENDCHAR
STARTCHAR 80AE
ENCODING 32942
SWIDTH 1000 0
DWIDTH 12 0
BBX 12 12 -1 -2
BITMAP
7200
5100
5FE0
7000
5780
5480
7480
5480
54A0
94A0
B8E0
0000
ENDCHAR
STARTCHAR 6602
ENCODING 26114
SWIDTH 1000 0
DWIDTH 12 0
BBX 12 12 -1 -2
BITMAP
3F80
2080
3F80
2080
3F80
0000
7BC0
4240
5B40
62C0
0200
0000
ENDCHAR
STARTCHAR 76CE
ENCODING 30414
SWIDTH 1000 0
DWIDTH 12 0
BBX 12 12 -1 -2
BITMAP
0400
3F80
2480
FFE0
0A00
1180
E060
3FC0
2A40
2A40
FFE0
0000
ENDCHAR
STARTCHAR 51F9
ENCODING 20985
SWIDTH 1000 0
DWIDTH 12 0
BBX 12 12 -1 -2
BITMAP
0000
79E0
4920
4920
4920
4F20
4020
4020
4020
7FE0
4020
0000
ENDCHAR
STARTCHAR 6556
ENCODING 25942
SWIDTH 1000 0
DWIDTH 12 0
BBX 12 12 -1 -2
BITMAP
1100
FD00
11E0
F940
1340
FD40
2140
3880
4880
4940
B620
0000
ENDCHAR
STARTCHAR 71AC
ENCODING 29100
SWIDTH 1000 0
DWIDTH 12 0
BBX 12 12 -1 -2
BITMAP
1100
FD00
11E0
FF40
2140
3880
4940
BA20
0400
4920
C920
0000
ENDCHAR
STARTCHAR 7FF1
ENCODING 32753
SWIDTH 1000 0
DWIDTH 12 0
BBX 12 12 -1 -2
BITMAP
2000
7BE0
4920
7DA0
4B60
FD20
4B60
A5A0
7920
2120
2360
0000
ENDCHAR
STARTCHAR 8884
ENCODING 34948
SWIDTH 1000 0
DWIDTH 12 0
BBX 12 12 -1 -2
BITMAP
40C0
2F00
F100
1100
2FE0
6900
B100
2A80
2280
2440
2820
0000
ENDCHAR
STARTCHAR 50B2
ENCODING 20658
SWIDTH 1000 0
DWIDTH 12 0
BBX 12 12 -1 -2
BITMAP
2880
3E80
4900
5DE0
C940
7F40
5140
5C80
5480
5540
6A20
0000
ENDCHAR
STARTCHAR 5965
ENCODING 22885
SWIDTH 1000 0
DWIDTH 12 0
BBX 12 12 -1 -2
BITMAP
0800
3FC0
2540
3FC0
2E40
3540
2440
FFE0
0A00
1100
E0E0
0000
ENDCHAR
STARTCHAR 61CA
ENCODING 25034
SWIDTH 1000 0
DWIDTH 12 0
BBX 12 12 -1 -2
BITMAP
4400
4FC0
6A40
DFC0
CB40
4EC0
4A40
7FE0
4300
4480
5860
0000
ENDCHAR
STARTCHAR 6FB3
ENCODING 28595
SWIDTH 1000 0
DWIDTH 12 0
BBX 12 12 -1 -2
BITMAP
8200
5FC0
5340
9640
5FC0
1B40
5240
FFE0
4300
4480
7860
0000
ENDCHAR
STARTCHAR 82AD
ENCODING 33453
SWIDTH 1000 0
DWIDTH 12 0
BBX 12 12 -1 -2
BITMAP
0900
FFE0
0900
3FC0
2440
2440
3FC0
2000
2020
2020
3FE0
0000
ENDCHAR
STARTCHAR 634C
ENCODING 25420
SWIDTH 1000 0
DWIDTH 12 0
BBX 12 12 -1 -2
BITMAP
2020
2F20
F9A0
2FA0
24A0
34A0
EFA0
2520
2520
2920
F6E0
0000
ENDCHAR
STARTCHAR 6252
ENCODING 25170
SWIDTH 1000 0
DWIDTH 12 0
BBX 12 12 -1 -2
BITMAP
2080
2280
FA80
2280
2280
3A80
E280
2480
2440
2840
F020
0000
ENDCHAR
STARTCHAR 53ED
ENCODING 21485
SWIDTH 1000 0
DWIDTH 12 0
BBX 12 12 -1 -2
BITMAP
0080
0280
F280
9280
9280
9280
9480
F480
0840
1040
2020
0000
ENDCHAR
STARTCHAR 5427
ENCODING 21543
SWIDTH 1000 0
DWIDTH 12 0
BBX 12 12 -1 -2
BITMAP
0040
EFE0
A940
A940
A940
AFC0
A800
E800
0820
0820
07E0
0000
ENDCHAR
STARTCHAR 7B06
ENCODING 31494
SWIDTH 1000 0
DWIDTH 12 0
BBX 12 12 -1 -2
BITMAP
2200
7BE0
5480
8800
7F80
4480
4480
7F80
4020
4020
7FE0
0000
ENDCHAR
STARTCHAR 516B
ENCODING 20843
SWIDTH 1000 0
DWIDTH 12 0
BBX 12 12 -1 -2
BITMAP
0200
1200
1200
1200
1200
1100
1100
2080
2080
4040
8020
0000
ENDCHAR
STARTCHAR 75A4
ENCODING 30116
SWIDTH 1000 0
DWIDTH 12 0
BBX 12 12 -1 -2
BITMAP
0200
3FE0
A000
6FC0
2940
6940
AFC0
2800
4820
4820
8FE0
0000
ENDCHAR
STARTCHAR 5DF4
ENCODING 24052
SWIDTH 1000 0
DWIDTH 12 0
BBX 12 12 -1 -2
BITMAP
0040
7FE0
4440
4440
4440
7FC0
4000
4000
4020
4020
7FE0
0000
ENDCHAR
STARTCHAR 62D4
ENCODING 25300
SWIDTH 1000 0
DWIDTH 12 0
BBX 12 12 -1 -2
BITMAP
2280
2240
F7E0
2200
2200
37C0
E440
2680
2900
3280
EC60
0000
ENDCHAR
STARTCHAR 8DCB
ENCODING 36299
SWIDTH 1000 0
DWIDTH 12 0
BBX 12 12 -1 -2
BITMAP
0280
F240
97E0
9200
F200
23C0
BA40
A540
B480
E940
9620
0000
ENDCHAR
STARTCHAR 9776
ENCODING 38774
SWIDTH 1000 0
DWIDTH 12 0
BBX 12 12 -1 -2
BITMAP
5000
FBE0
52A0
72A0
FAA0
ABE0
FA00
2200
FE20
2220
23E0
0000
ENDCHAR
STARTCHAR 628A
ENCODING 25226
SWIDTH 1000 0
DWIDTH 12 0
BBX 12 12 -1 -2
BITMAP
2000
27E0
FD20
2520
3520
67E0
A400
2400
2420
2420
E7E0
0000
ENDCHAR
STARTCHAR 8019
ENCODING 32793
SWIDTH 1000 0
DWIDTH 12 0
BBX 12 12 -1 -2
BITMAP
2000
FFE0
2520
FD20
2520
FFE0
2400
7400
A420
A420
27E0
0000
ENDCHAR
STARTCHAR 575D
ENCODING 22365
SWIDTH 1000 0
DWIDTH 12 0
BBX 12 12 -1 -2
BITMAP
27C0
2440
2540
FD40
2540
2540
2540
3540
C280
0440
1820
0000
ENDCHAR
STARTCHAR 9738
ENCODING 38712
SWIDTH 1000 0
DWIDTH 12 0
BBX 12 12 -1 -2
BITMAP
7FC0
0400
FFE0
94A0
29C0
7D40
29C0
7D40
55C0
FE40
14C0
0000
ENDCHAR
STARTCHAR 7F62
ENCODING 32610
SWIDTH 1000 0
DWIDTH 12 0
BBX 12 12 -1 -2
BITMAP
7FC0
4A40
4A40
7FC0
0400
7FC0
0400
FFE0
1100
2080
7FC0
0000
ENDCHAR
STARTCHAR 7238
ENCODING 29240
SWIDTH 1000 0
DWIDTH 12 0
BBX 12 12 -1 -2
BITMAP
1180
2140
D220
0F00
30E0
FF80
2480
3F80
2020
2020
3FE0
0000
ENDCHAR
STARTCHAR 767D
ENCODING 30333
SWIDTH 1000 0
DWIDTH 12 0
BBX 12 12 -1 -2
BITMAP
0400
0800
7FC0
4040
4040
4040
7FC0
4040
4040
4040
7FC0
0000
ENDCHAR
STARTCHAR 67CF
ENCODING 26575
SWIDTH 1000 0
DWIDTH 12 0
BBX 12 12 -1 -2
BITMAP
2100
2200
F7E0
2420
2420
7420
67E0
A420
A420
2420
27E0
0000
ENDCHAR
STARTCHAR 767E
ENCODING 30334
SWIDTH 1000 0
DWIDTH 12 0
BBX 12 12 -1 -2
BITMAP
FFE0
0400
0800
3F80
2080
2080
3F80
2080
2080
2080
3F80
0000
ENDCHAR
STARTCHAR 6446
ENCODING 25670
SWIDTH 1000 0
DWIDTH 12 0
BBX 12 12 -1 -2
BITMAP
2FE0
2AA0
FAA0
2FE0
2100
37C0
E100
2FE0
2280
2440
EFE0
0000
ENDCHAR
STARTCHAR 4F70
ENCODING 20336
SWIDTH 1000 0
DWIDTH 12 0
BBX 12 12 -1 -2
BITMAP
2040
3FE0
6200
4FC0
C840
4840
4FC0
4840
4840
4840
4FC0
0000
ENDCHAR
STARTCHAR 8D25
ENCODING 36133
SWIDTH 1000 0
DWIDTH 12 0
BBX 12 12 -1 -2
BITMAP
F900
8900
ABE0
AA40
AE40
AA40
AA40
A980
5180
4A40
8420
0000
ENDCHAR
STARTCHAR 62DC
ENCODING 25308
SWIDTH 1000 0
DWIDTH 12 0
BBX 12 12 -1 -2
BITMAP
1BE0
E080
2080
FBE0
2080
23E0
F880
27E0
2080
4080
8080
0000
ENDCHAR
STARTCHAR 7A17
ENCODING 31255
SWIDTH 1000 0
DWIDTH 12 0
BBX 12 12 -1 -2
BITMAP
3200
E7E0
2520
FFE0
2520
67E0
B280
A480
2FE0
2080
2080
0000
ENDCHAR
STARTCHAR 6591
ENCODING 26001
SWIDTH 1000 0
DWIDTH 12 0
BBX 12 12 -1 -2
BITMAP
0800
F5E0
4E80
4280
4A80
F5E0
4480
4A80
7A80
D080
23E0
0000
ENDCHAR
STARTCHAR 73ED
ENCODING 29677
SWIDTH 1000 0
DWIDTH 12 0
BBX 12 12 -1 -2
BITMAP
0400
F5E0
4480
4480
EC80
55E0
4480
5480
6480
8880
33E0
0000
ENDCHAR
STARTCHAR 642C
ENCODING 25644
SWIDTH 1000 0
DWIDTH 12 0
BBX 12 12 -1 -2
BITMAP
4400
4FC0
FB40
4F60
4A00
7FC0
CB40
4F40
4A80
5340
E620
0000
ENDCHAR
STARTCHAR 6273
ENCODING 25203
SWIDTH 1000 0
DWIDTH 12 0
BBX 12 12 -1 -2
BITMAP
20C0
2700
F400
27C0
2440
3440
E640
2580
2980
2A40
F420
0000
ENDCHAR
STARTCHAR 822C
ENCODING 33324
SWIDTH 1000 0
DWIDTH 12 0
BBX 12 12 -1 -2
BITMAP
23C0
7A40
4A40
6A60
4C00
FFC0
4A40
6A80
4900
8A80
BC60
0000
ENDCHAR
STARTCHAR 9881
ENCODING 39041
SWIDTH 1000 0
DWIDTH 12 0
BBX 12 12 -1 -2
BITMAP
17E0
4900
4BE0
8220
FAA0
4AA0
4AA0
4AA0
4880
5940
8620
0000
ENDCHAR
STARTCHAR 677F
ENCODING 26495
SWIDTH 1000 0
DWIDTH 12 0
BBX 12 12 -1 -2
BITMAP
20C0
2700
FC00
27C0
6440
7440
A480
A680
2900
3280
2C60
0000
ENDCHAR
STARTCHAR 7248
ENCODING 29256
SWIDTH 1000 0
DWIDTH 12 0
BBX 12 12 -1 -2
BITMAP
10E0
5700
5400
7FE0
4440
4640
7540
5480
5580
9A40
9420
0000
ENDCHAR
STARTCHAR 626E
ENCODING 25198
SWIDTH 1000 0
DWIDTH 12 0
BBX 12 12 -1 -2
BITMAP
2080
2280
FA40
2440
2820
37C0
E240
2240
2240
2440
E9C0
0000
ENDCHAR
STARTCHAR 62CC
ENCODING 25292
SWIDTH 1000 0
DWIDTH 12 0
BBX 12 12 -1 -2
BITMAP
2100
2940
F540
2580
2FE0
3100
6100
AFE0
2100
2100
E100
0000
ENDCHAR
STARTCHAR 4F34
ENCODING 20276
SWIDTH 1000 0
DWIDTH 12 0
BBX 12 12 -1 -2
BITMAP
2200
3240
4A80
4700
DFC0
4200
4200
5FE0
4200
4200
4200
0000
ENDCHAR
STARTCHAR 74E3
ENCODING 29923
SWIDTH 1000 0
DWIDTH 12 0
BBX 12 12 -1 -2
BITMAP
4240
FDE0
AAA0
4A40
FBE0
4A40
4A40
F5E0
5540
5740
A140
0000
ENDCHAR
STARTCHAR 534A
ENCODING 21322
SWIDTH 1000 0
DWIDTH 12 0
BBX 12 12 -1 -2
BITMAP
0400
4480
2500
1600
7FC0
0400
0400
FFE0
0400
0400
0400
0000
ENDCHAR
STARTCHAR 529E
ENCODING 21150
SWIDTH 1000 0
DWIDTH 12 0
BBX 12 12 -1 -2
BITMAP
0800
0800
7F80
0880
2880
28C0
48A0
90A0
1080
2080
C700
0000
ENDCHAR
STARTCHAR 7ECA
ENCODING 32458
SWIDTH 1000 0
DWIDTH 12 0
BBX 12 12 -1 -2
BITMAP
2100
2940
4580
9100
EFE0
4100
B100
CFE0
3100
C100
0100
0000
ENDCHAR
STARTCHAR 90A6
ENCODING 37030
SWIDTH 1000 0
DWIDTH 12 0
BBX 12 12 -1 -2
BITMAP
11E0
FD20
1120
1140
7D40
1140
1120
FD20
21E0
4100
8100
0000
ENDCHAR
STARTCHAR 5E2E
ENCODING 24110
SWIDTH 1000 0
DWIDTH 12 0
BBX 12 12 -1 -2
BITMAP
7DE0
1120
7D40
1120
FDE0
2500
FFC0
2440
2440
25C0
0400
0000
ENDCHAR
STARTCHAR 6886
ENCODING 26758
SWIDTH 1000 0
DWIDTH 12 0
BBX 12 12 -1 -2
BITMAP
44E0
4FA0
F4A0
44A0
6FC0
D4A0
C4A0
5FA0
44E0
4880
7080
0000
ENDCHAR
STARTCHAR 699C
ENCODING 27036
SWIDTH 1000 0
DWIDTH 12 0
BBX 12 12 -1 -2
BITMAP
2100
2FE0
F440
2280
6FE0
7920
AFE0
A200
23C0
2440
29C0
0000
ENDCHAR
STARTCHAR 8180
ENCODING 33152
SWIDTH 1000 0
DWIDTH 12 0
BBX 12 12 -1 -2
BITMAP
7100
5FE0
5280
7FE0
5820
5100
7FE0
5200
53C0
9440
B980
0000
ENDCHAR
STARTCHAR 7ED1
ENCODING 32465
SWIDTH 1000 0
DWIDTH 12 0
BBX 12 12 -1 -2
BITMAP
2400
44E0
5FA0
A4A0
DEC0
44A0
E4A0
1FA0
24E0
C880
1080
0000
ENDCHAR
STARTCHAR 68D2
ENCODING 26834
SWIDTH 1000 0
DWIDTH 12 0
BBX 12 12 -1 -2
BITMAP
4200
4FE0
4200
EFC0
4400
EFE0
CA40
57A0
4200
4FC0
4200
0000
ENDCHAR
STARTCHAR 78C5
ENCODING 30917
SWIDTH 1000 0
DWIDTH 12 0
BBX 12 12 -1 -2
BITMAP
0100
F7E0
4280
4FE0
7820
D100
5FE0
5200
73C0
5440
0980
0000
ENDCHAR
STARTCHAR 868C
ENCODING 34444
SWIDTH 1000 0
DWIDTH 12 0
BBX 12 12 -1 -2
BITMAP
2100
2100
FFE0
A900
AFE0
A900
F900
27E0
2900
3900
C900
0000
ENDCHAR
STARTCHAR 9551
ENCODING 38225
SWIDTH 1000 0
DWIDTH 12 0
BBX 12 12 -1 -2
BITMAP
4100
4FE0
F440
8280
FFE0
4920
F7C0
4200
53C0
6440
5980
0000
ENDCHAR
STARTCHAR 508D
ENCODING 20621
SWIDTH 1000 0
DWIDTH 12 0
BBX 12 12 -1 -2
BITMAP
2200
3FE0
4880
4500
DFE0
5220
5FE0
4400
47C0
4440
5980
0000
ENDCHAR
STARTCHAR 8C24
ENCODING 35876
SWIDTH 1000 0
DWIDTH 12 0
BBX 12 12 -1 -2
BITMAP
8100
4FE0
4440
0280
DFE0
5120
4FC0
5200
63C0
4440
1980
0000
ENDCHAR
STARTCHAR 82DE
ENCODING 33502
SWIDTH 1000 0
DWIDTH 12 0
BBX 12 12 -1 -2
BITMAP
0900
FFE0
1100
3F80
2080
7E80
A280
3E80
21A0
2020
3FE0
0000
ENDCHAR
STARTCHAR 80DE
ENCODING 32990
SWIDTH 1000 0
DWIDTH 12 0
BBX 12 12 -1 -2
BITMAP
7200
53E0
5420
77A0
5CA0
54A0
77A0
5420
55C0
9420
B7E0
0000
ENDCHAR
STARTCHAR 5305
ENCODING 21253
SWIDTH 1000 0
DWIDTH 12 0
BBX 12 12 -1 -2
BITMAP
1000
1FC0
2040
7E40
A240
2240
3E40
2180
2020
2020
1FE0
0000
ENDCHAR
STARTCHAR 8912
ENCODING 35090
SWIDTH 1000 0
DWIDTH 12 0
BBX 12 12 -1 -2
BITMAP
0400
FFE0
2880
4F80
C200
5FE0
4A80
5460
0A80
3500
D8E0
0000
ENDCHAR
STARTCHAR 5265
ENCODING 21093
SWIDTH 1000 0
DWIDTH 12 0
BBX 12 12 -1 -2
BITMAP
7C20
04A0
7CA0
04A0
FEA0
94A0
58A0
34A0
D2A0
1020
70E0
0000
ENDCHAR
STARTCHAR 8584
ENCODING 34180
SWIDTH 1000 0
DWIDTH 12 0
BBX 12 12 -1 -2
BITMAP
1100
FFE0
5280
3FE0
8A40
4FC0
4A40
4A80
DFE0
4480
4380
0000
ENDCHAR
STARTCHAR 96F9
ENCODING 38649
SWIDTH 1000 0
DWIDTH 12 0
BBX 12 12 -1 -2
BITMAP
7FC0
0400
FFE0
94A0
3F80
2080
7E80
A280
3EA0
2120
3FE0
0000
ENDCHAR
STARTCHAR 4FDD
ENCODING 20445
SWIDTH 1000 0
DWIDTH 12 0
BBX 12 12 -1 -2
BITMAP
2FC0
2840
4840
4FC0
C940
4100
5FE0
4300
4580
4940
5120
0000
ENDCHAR
STARTCHAR 5821
ENCODING 22561
SWIDTH 1000 0
DWIDTH 12 0
BBX 12 12 -1 -2
BITMAP
2FC0
2840
4FC0
C200
5FE0
4680
4A40
5420
3FC0
0400
FFE0
0000
ENDCHAR
STARTCHAR 9971
ENCODING 39281
SWIDTH 1000 0
DWIDTH 12 0
BBX 12 12 -1 -2
BITMAP
4200
43E0
7420
97A0
CCA0
54A0
47A0
44C0
5420
6420
47E0
0000
ENDCHAR
STARTCHAR 5B9D
ENCODING 23453
SWIDTH 1000 0
DWIDTH 12 0
BBX 12 12 -1 -2
BITMAP
0400
7FE0
4020
0000
7FC0
0400
0400
7FC0
0500
0480
FFE0
0000
ENDCHAR
STARTCHAR 62B1
ENCODING 25265
SWIDTH 1000 0
DWIDTH 12 0
BBX 12 12 -1 -2
BITMAP
2200
23E0
F420
27A0
2CA0
74A0
A7A0
2440
2420
2420
E7E0
0000
ENDCHAR
STARTCHAR 62A5
ENCODING 25253
SWIDTH 1000 0
DWIDTH 12 0
BBX 12 12 -1 -2
BITMAP
27C0
2440
FC40
2580
2400
37C0
E540
2540
2480
2540
E620
0000
ENDCHAR
STARTCHAR 66B4
ENCODING 26292
SWIDTH 1000 0
DWIDTH 12 0
BBX 12 12 -1 -2
BITMAP
3F80
2080
3F80
1100
7FC0
1100
FFE0
3580
CE60
1500
6CC0
0000
ENDCHAR
STARTCHAR 8C79
ENCODING 35961
SWIDTH 1000 0
DWIDTH 12 0
BBX 12 12 -1 -2
BITMAP
1100
3100
CBE0
5220
6420
BA20
5120
2920
4820
8820
31C0
0000
ENDCHAR
STARTCHAR 9C8D
ENCODING 40077
SWIDTH 1000 0
DWIDTH 12 0
BBX 12 12 -1 -2
BITMAP
4100
73E0
5220
FFA0
AAA0
FAA0
ABA0
FAC0
0220
3A20
C3E0
0000
ENDCHAR
STARTCHAR 7206
ENCODING 29190
SWIDTH 1000 0
DWIDTH 12 0
BBX 12 12 -1 -2
BITMAP
4FC0
4840
4FC0
E480
DFE0
C480
5FE0
4D40
73A0
9540
8B20
0000
ENDCHAR
STARTCHAR 676F
ENCODING 26479
SWIDTH 1000 0
DWIDTH 12 0
BBX 12 12 -1 -2
BITMAP
2040
2FE0
2100
F900
3300
6B80
6540
A920
A100
2100
2100
0000
ENDCHAR
STARTCHAR 7891
ENCODING 30865
SWIDTH 1000 0
DWIDTH 12 0
BBX 12 12 -1 -2
BITMAP
0100
F7E0
4520
47E0
7520
D7E0
5280
5480
7FE0
5080
0080
0000
ENDCHAR
STARTCHAR 60B2
ENCODING 24754
SWIDTH 1000 0
DWIDTH 12 0
BBX 12 12 -1 -2
BITMAP
0A00
FBE0
0A00
7BC0
0A00
FBE0
0A00
5440
52A0
90A0
1F80
0000
ENDCHAR
STARTCHAR 5351
ENCODING 21329
SWIDTH 1000 0
DWIDTH 12 0
BBX 12 12 -1 -2
BITMAP
0800
7F80
4480
7F80
4880
7F80
1400
2400
FFE0
0400
0400
0000
ENDCHAR
STARTCHAR 5317
ENCODING 21271
SWIDTH 1000 0
DWIDTH 12 0
BBX 12 12 -1 -2
BITMAP
1200
1200
1200
F260
1380
1200
1200
1220
3220
D220
13E0
0000
ENDCHAR
STARTCHAR 8F88
ENCODING 36744
SWIDTH 1000 0
DWIDTH 12 0
BBX 12 12 -1 -2
BITMAP
0A00
FBE0
0A00
FBE0
0A00
FFE0
1400
3FC0
0400
FFE0
0400
0000
ENDCHAR
STARTCHAR 80CC
ENCODING 32972
SWIDTH 1000 0
DWIDTH 12 0
BBX 12 12 -1 -2
BITMAP
0A40
FB80
0A20
FBE0
0000
3F80
2080
3C80
2780
2080
2380
0000
ENDCHAR
STARTCHAR 8D1D
ENCODING 36125
SWIDTH 1000 0
DWIDTH 12 0
BBX 12 12 -1 -2
BITMAP
3F80
2080
2480
2480
2480
2480
2480
2480
0B00
10C0
E040
0000
ENDCHAR
STARTCHAR 94A1
ENCODING 38049
SWIDTH 1000 0
DWIDTH 12 0
BBX 12 12 -1 -2
BITMAP
47E0
4420
7520
8520
F520
4520
FD20
4520
5280
6440
1820
0000
ENDCHAR
STARTCHAR 500D
ENCODING 20493
SWIDTH 1000 0
DWIDTH 12 0
BBX 12 12 -1 -2
BITMAP
2200
3FE0
4880
4480
C500
5FE0
4000
4FC0
4840
4840
4FC0
0000
ENDCHAR
STARTCHAR 72C8
ENCODING 29384
SWIDTH 1000 0
DWIDTH 12 0
BBX 12 12 -1 -2
BITMAP
8FE0
5420
2520
6520
9520
3520
5520
9520
1180
1240
6C20
0000
ENDCHAR
STARTCHAR 5907
ENCODING 22791
SWIDTH 1000 0
DWIDTH 12 0
BBX 12 12 -1 -2
BITMAP
1000
1F80
2900
4600
0900
3080
FFE0
2480
3F80
2480
3F80
0000
ENDCHAR
STARTCHAR 60EB
ENCODING 24811
SWIDTH 1000 0
DWIDTH 12 0
BBX 12 12 -1 -2
BITMAP
1F80
2900
4600
1F00
E4E0
3F80
2480
3F80
5440
52A0
9FA0
0000
ENDCHAR
STARTCHAR 7119
ENCODING 28953
SWIDTH 1000 0
DWIDTH 12 0
BBX 12 12 -1 -2
BITMAP
2100
2FE0
2440
B280
A100
AFE0
2000
27C0
5440
5440
87C0
0000
ENDCHAR
STARTCHAR 88AB
ENCODING 34987
SWIDTH 1000 0
DWIDTH 12 0
BBX 12 12 -1 -2
BITMAP
4100
2100
F7E0
1520
2500
77C0
A440
3680
2500
2A80
3460
0000
ENDCHAR
STARTCHAR 5954
ENCODING 22868
SWIDTH 1000 0
DWIDTH 12 0
BBX 12 12 -1 -2
BITMAP
0400
FFE0
1100
2480
DF60
0400
1500
FFE0
1100
2100
C100
0000
ENDCHAR
STARTCHAR 82EF
ENCODING 33519
SWIDTH 1000 0
DWIDTH 12 0
BBX 12 12 -1 -2
BITMAP
1100
FFE0
1500
0400
FFE0
0E00
1500
2480
5F40
8420
0400
0000
ENDCHAR
STARTCHAR 672C
ENCODING 26412
SWIDTH 1000 0
DWIDTH 12 0
BBX 12 12 -1 -2
BITMAP
0400
0440
FFE0
0400
0E00
1500
2480
4440
BFA0
0400
0400
0000
ENDCHAR
STARTCHAR 7B28
ENCODING 31528
SWIDTH 1000 0
DWIDTH 12 0
BBX 12 12 -1 -2
BITMAP
2200
3BE0
5500
8880
0400
FFE0
1500
2480
5F40
8420
0400
0000
ENDCHAR
STARTCHAR 5D29
ENCODING 23849
SWIDTH 1000 0
DWIDTH 12 0
BBX 12 12 -1 -2
BITMAP
4440
7FC0
0000
7BC0
4A40
7BC0
4A40
7BC0
4A40
4C40
98C0
0000
ENDCHAR
STARTCHAR 7EF7
ENCODING 32503
SWIDTH 1000 0
DWIDTH 12 0
BBX 12 12 -1 -2
BITMAP
2EE0
2AA0
5AA0
AEE0
EAA0
4AA0
EEE0
0AA0
3AA0
D720
2260
0000
ENDCHAR
STARTCHAR 752D
ENCODING 29997
SWIDTH 1000 0
DWIDTH 12 0
BBX 12 12 -1 -2
BITMAP
FFE0
0C00
1580
6460
BFC0
2440
3FC0
2440
3FC0
4440
85C0
0000
ENDCHAR
STARTCHAR 6CF5
ENCODING 27893
SWIDTH 1000 0
DWIDTH 12 0
BBX 12 12 -1 -2
BITMAP
FFE0
0800
1F80
3080
DF80
0400
F440
1680
2500
4480
9C60
0000
ENDCHAR
STARTCHAR 8E66
ENCODING 36454
SWIDTH 1000 0
DWIDTH 12 0
BBX 12 12 -1 -2
BITMAP
F520
97E0
9000
FEE0
2AA0
AEE0
BAA0
AEE0
BAA0
CAA0
1760
0000
ENDCHAR
STARTCHAR 8FF8
ENCODING 36856
SWIDTH 1000 0
DWIDTH 12 0
BBX 12 12 -1 -2
BITMAP
4880
2500
2FE0
0480
C480
5FE0
4480
4480
4880
7080
8FE0
0000
ENDCHAR
STARTCHAR 903C
ENCODING 36924
SWIDTH 1000 0
DWIDTH 12 0
BBX 12 12 -1 -2
BITMAP
9FE0
4000
4780
0480
CFC0
4A40
4FC0
4A40
4FC0
A000
1FE0
0000
ENDCHAR
STARTCHAR 9F3B
ENCODING 40763
SWIDTH 1000 0
DWIDTH 12 0
BBX 12 12 -1 -2
BITMAP
0800
3F80
2880
2480
7FC0
4440
7FC0
4440
FFE0
1100
6100
0000
ENDCHAR
STARTCHAR 6BD4
ENCODING 27604
SWIDTH 1000 0
DWIDTH 12 0
BBX 12 12 -1 -2
BITMAP
4200
4200
4220
4240
7B80
4200
4200
4220
4A20
7220
43E0
0000
ENDCHAR
STARTCHAR 9119
ENCODING 37145
SWIDTH 1000 0
DWIDTH 12 0
BBX 12 12 -1 -2
BITMAP
7DE0
4520
7D20
1140
FF40
1120
FD20
A520
BDE0
8500
FD00
0000
ENDCHAR
STARTCHAR 7B14
ENCODING 31508
SWIDTH 1000 0
DWIDTH 12 0
BBX 12 12 -1 -2
BITMAP
2100
3BE0
5480
8BC0
7C00
07C0
7C00
07E0
FC00
0420
07E0
0000
ENDCHAR
STARTCHAR 5F7C
ENCODING 24444
SWIDTH 1000 0
DWIDTH 12 0
BBX 12 12 -1 -2
BITMAP
2100
4FE0
A920
2920
4900
CFC0
4A40
4A80
4900
5280
6C60
0000
ENDCHAR
STARTCHAR 78A7
ENCODING 30887
SWIDTH 1000 0
DWIDTH 12 0
BBX 12 12 -1 -2
BITMAP
FBE0
2220
7BE0
2220
FBE0
0000
FFE0
1000
3FC0
D040
1FC0
0000
ENDCHAR
STARTCHAR 84D6
ENCODING 34006
SWIDTH 1000 0
DWIDTH 12 0
BBX 12 12 -1 -2
BITMAP
0900
FFE0
0400
3FC0
2A40
3540
3FC0
4240
7B80
4220
7BE0
0000
ENDCHAR
STARTCHAR 853D
ENCODING 34109
SWIDTH 1000 0
DWIDTH 12 0
BBX 12 12 -1 -2
BITMAP
1100
FFE0
1100
5500
FDE0
9740
B540
DD40
9480
9540
9E20
0000
ENDCHAR
STARTCHAR 6BD5
ENCODING 27605
SWIDTH 1000 0
DWIDTH 12 0
BBX 12 12 -1 -2
BITMAP
4200
42C0
7B00
4220
5A20
63E0
0400
FFE0
0400
0400
0400
0000
ENDCHAR
STARTCHAR 6BD9
ENCODING 27609
SWIDTH 1000 0
DWIDTH 12 0
BBX 12 12 -1 -2
BITMAP
4240
7B80
4220
7BE0
0000
FFE0
2200
7AC0
AB20
1220
E3E0
0000
ENDCHAR
STARTCHAR 6BD6
ENCODING 27606
SWIDTH 1000 0
DWIDTH 12 0
BBX 12 12 -1 -2
BITMAP
4200
7AC0
4300
4220
7BE0
0800
1500
5240
94A0
1880
EF80
0000
ENDCHAR
STARTCHAR 5E01
ENCODING 24065
SWIDTH 1000 0
DWIDTH 12 0
BBX 12 12 -1 -2
BITMAP
03C0
FC00
0400
7FC0
4440
4440
4440
4440
4540
44C0
0400
0000
ENDCHAR
STARTCHAR 5E87
ENCODING 24199
SWIDTH 1000 0
DWIDTH 12 0
BBX 12 12 -1 -2
BITMAP
0400
7FE0
4000
5100
5120
5D40
5180
5100
5120
9520
99E0
0000
ENDCHAR
STARTCHAR 75F9
ENCODING 30201
SWIDTH 1000 0
DWIDTH 12 0
BBX 12 12 -1 -2
BITMAP
0200
3FE0
AA40
6FC0
2A40
6FC0
A000
3FE0
2480
4480
9880
0000
ENDCHAR
STARTCHAR 95ED
ENCODING 38381
SWIDTH 1000 0
DWIDTH 12 0
BBX 12 12 -1 -2
BITMAP
27E0
1020
4220
4220
7FA0
4620
4A20
5220
6220
4E20
40E0
0000
ENDCHAR
STARTCHAR 655D
ENCODING 25949
SWIDTH 1000 0
DWIDTH 12 0
BBX 12 12 -1 -2
BITMAP
1100
9500
59E0
FD40
9640
9540
BD40
D480
9480
9D40
9220
0000
ENDCHAR
STARTCHAR 5F0A
ENCODING 24330
SWIDTH 1000 0
DWIDTH 12 0
BBX 12 12 -1 -2
BITMAP
9500
5900
FFE0
9540
BC80
D540
8220
0900
FFE0
1100
E100
0000
ENDCHAR
STARTCHAR 5FC5
ENCODING 24517
SWIDTH 1000 0
DWIDTH 12 0
BBX 12 12 -1 -2
BITMAP
0800
0480
1480
1100
5140
5240
5220
9420
1880
3080
CF80
0000
ENDCHAR
STARTCHAR 8F9F
ENCODING 36767
SWIDTH 1000 0
DWIDTH 12 0
BBX 12 12 -1 -2
BITMAP
7880
4FE0
4A20
7940
4080
47E0
7880
A880
AFE0
B880
0080
0000
ENDCHAR
STARTCHAR 58C1
ENCODING 22721
SWIDTH 1000 0
DWIDTH 12 0
BBX 12 12 -1 -2
BITMAP
7880
4BE0
7940
43E0
7880
CBE0
7880
0400
7FC0
0400
FFE0
0000
ENDCHAR
STARTCHAR 81C2
ENCODING 33218
SWIDTH 1000 0
DWIDTH 12 0
BBX 12 12 -1 -2
BITMAP
7900
4FE0
7A80
4FE0
B900
8100
3F80
2080
3F80
2080
2380
0000
ENDCHAR
STARTCHAR 907F
ENCODING 36991
SWIDTH 1000 0
DWIDTH 12 0
BBX 12 12 -1 -2
BITMAP
9C80
57E0
5540
1C80
D3E0
5C80
57E0
5480
5C80
A080
1FE0
0000
ENDCHAR
STARTCHAR 965B
ENCODING 38491
SWIDTH 1000 0
DWIDTH 12 0
BBX 12 12 -1 -2
BITMAP
F480
94A0
A7C0
C4A0
A5A0
96E0
9100
F100
8FC0
8100
9FE0
0000
ENDCHAR
STARTCHAR 97AD
ENCODING 38829
SWIDTH 1000 0
DWIDTH 12 0
BBX 12 12 -1 -2
BITMAP
5200
FBE0
5480
7FE0
26A0
FFE0
AEA0
FFE0
2580
FD40
2620
0000
ENDCHAR
STARTCHAR 8FB9
ENCODING 36793
SWIDTH 1000 0
DWIDTH 12 0
BBX 12 12 -1 -2
BITMAP
4200
2240
2FE0
0240
C240
4240
4440
4840
5380
A000
9FE0
0000
ENDCHAR
STARTCHAR 7F16
ENCODING 32534
SWIDTH 1000 0
DWIDTH 12 0
BBX 12 12 -1 -2
BITMAP
2100
2FE0
4820
9FE0
E800
4FE0
BAA0
CFE0
2AA0
DAA0
2860
0000
ENDCHAR
STARTCHAR 8D2C
ENCODING 36140
SWIDTH 1000 0
DWIDTH 12 0
BBX 12 12 -1 -2
BITMAP
F8E0
8F00
AA00
A900
AFC0
A840
A880
A900
5200
4C00
8BE0
0000
ENDCHAR
STARTCHAR 6241
ENCODING 25153
SWIDTH 1000 0
DWIDTH 12 0
BBX 12 12 -1 -2
BITMAP
0400
7FC0
4040
7FC0
4000
5FC0
5540
5FC0
5540
9540
90C0
0000
ENDCHAR
STARTCHAR 4FBF
ENCODING 20415
SWIDTH 1000 0
DWIDTH 12 0
BBX 12 12 -1 -2
BITMAP
3FE0
2100
4FC0
4940
CFC0
4940
4FC0
4100
4900
4600
59E0
0000
ENDCHAR
STARTCHAR 53D8
ENCODING 21464
SWIDTH 1000 0
DWIDTH 12 0
BBX 12 12 -1 -2
BITMAP
0400
FFE0
0A00
2A80
4A40
BFA0
1080
0900
0600
1980
E060
0000
ENDCHAR
STARTCHAR 535E
ENCODING 21342
SWIDTH 1000 0
DWIDTH 12 0
BBX 12 12 -1 -2
BITMAP
0800
0440
FFE0
0400
0400
0700
0480
0440
0400
0400
0400
0000
ENDCHAR
STARTCHAR 8FA8
ENCODING 36776
SWIDTH 1000 0
DWIDTH 12 0
BBX 12 12 -1 -2
BITMAP
2480
F5E0
5540
5540
2480
FDE0
2480
F7E0
2480
4880
9080
0000
ENDCHAR
STARTCHAR 8FA9
ENCODING 36777
SWIDTH 1000 0
DWIDTH 12 0
BBX 12 12 -1 -2
BITMAP
2080
F5E0
5540
5140
2C80
F5E0
2480
F5E0
2680
4480
8080
0000
ENDCHAR
STARTCHAR 8FAB
ENCODING 36779
SWIDTH 1000 0
DWIDTH 12 0
BBX 12 12 -1 -2
BITMAP
4480
F5E0
AA40
AF40
4480
F5E0
4E80
F1E0
4680
5880
8080
0000
ENDCHAR
STARTCHAR 904D
ENCODING 36941
SWIDTH 1000 0
DWIDTH 12 0
BBX 12 12 -1 -2
BITMAP
4200
2FC0
2840
0FC0
E800
2FE0
3AA0
2FE0
2AA0
5000
8FE0
0000
ENDCHAR
STARTCHAR 6807
ENCODING 26631
SWIDTH 1000 0
DWIDTH 12 0
BBX 12 12 -1 -2
BITMAP
2040
2FE0
F000
2000
6FE0
7100
A580
A540
2920
3120
2700
0000
ENDCHAR
STARTCHAR 5F6A
ENCODING 24426
SWIDTH 1000 0
DWIDTH 12 0
BBX 12 12 -1 -2
BITMAP
1E40
1040
7E80
5120
7A40
5E80
4120
5C40
54A0
9520
A7E0
0000
ENDCHAR
STARTCHAR 8198
ENCODING 33176
SWIDTH 1000 0
DWIDTH 12 0
BBX 12 12 -1 -2
BITMAP
EFE0
A280
AFE0
EAA0
AFE0
A000
E7C0
A000
AFE0
A540
AB20
0000
ENDCHAR
STARTCHAR 8868
ENCODING 34920
SWIDTH 1000 0
DWIDTH 12 0
BBX 12 12 -1 -2
BITMAP
0400
FFE0
0400
7FC0
0400
FFE0
1440
3280
5100
9480
1860
0000
ENDCHAR
STARTCHAR 9CD6
ENCODING 40150
SWIDTH 1000 0
DWIDTH 12 0
BBX 12 12 -1 -2
BITMAP
A500
6BE0
FD40
B480
ED40
A620
3F80
E480
3F80
2480
FFE0
0000
ENDCHAR
STARTCHAR 618B
ENCODING 24971
SWIDTH 1000 0
DWIDTH 12 0
BBX 12 12 -1 -2
BITMAP
9500
5900
7FE0
5540
7C80
5540
5620
0080
5440
52A0
9F80
0000
ENDCHAR
STARTCHAR 522B
ENCODING 21035
SWIDTH 1000 0
DWIDTH 12 0
BBX 12 12 -1 -2
BITMAP
7C20
4420
4520
7D20
1120
1120
FD20
2520
2520
4420
98E0
0000
ENDCHAR
STARTCHAR 762A
ENCODING 30250
SWIDTH 1000 0
DWIDTH 12 0
BBX 12 12 -1 -2
BITMAP
0200
3FE0
A200
6FC0
2840
6FC0
A300
2480
5D60
4600
87C0
0000
ENDCHAR
STARTCHAR 5F6C
ENCODING 24428
SWIDTH 1000 0
DWIDTH 12 0
BBX 12 12 -1 -2
BITMAP
2420
2440
FE80
2520
2440
7680
AD00
B420
2440
2480
2700
0000
ENDCHAR
STARTCHAR 658C
ENCODING 25996
SWIDTH 1000 0
DWIDTH 12 0
BBX 12 12 -1 -2
BITMAP
4080
2FA0
00A0
FFE0
9280
5280
2B80
2A80
5AA0
4F60
8820
0000
ENDCHAR
STARTCHAR 6FD2
ENCODING 28626
SWIDTH 1000 0
DWIDTH 12 0
BBX 12 12 -1 -2
BITMAP
8BE0
6C80
2BE0
AA20
7EA0
4AA0
6AA0
AAA0
8480
8940
B620
0000
ENDCHAR
STARTCHAR 6EE8
ENCODING 28392
SWIDTH 1000 0
DWIDTH 12 0
BBX 12 12 -1 -2
BITMAP
8200
5FE0
5020
0F80
A800
4FE0
4880
C880
BFE0
8480
9860
0000
ENDCHAR
STARTCHAR 5BBE
ENCODING 23486
SWIDTH 1000 0
DWIDTH 12 0
BBX 12 12 -1 -2
BITMAP
0400
7FE0
4020
0F80
1000
1FC0
1100
1100
7FE0
1080
6060
0000
ENDCHAR
STARTCHAR 6448
ENCODING 25672
SWIDTH 1000 0
DWIDTH 12 0
BBX 12 12 -1 -2
BITMAP
4100
4FE0
F820
47C0
5400
67E0
C480
4480
5FE0
4440
D820
0000
ENDCHAR
STARTCHAR 5175
ENCODING 20853
SWIDTH 1000 0
DWIDTH 12 0
BBX 12 12 -1 -2
BITMAP
0380
3C00
2000
3FC0
2100
2100
2100
FFE0
1100
20C0
C040
0000
ENDCHAR
STARTCHAR 51B0
ENCODING 20912
SWIDTH 1000 0
DWIDTH 12 0
BBX 12 12 -1 -2
BITMAP
8200
4200
4240
3E80
4B00
4B00
8A80
8A80
9240
A220
0E00
0000
ENDCHAR
STARTCHAR 67C4
ENCODING 26564
SWIDTH 1000 0
DWIDTH 12 0
BBX 12 12 -1 -2
BITMAP
4FE0
4100
F100
4FE0
4920
E920
CAA0
4C60
4820
4820
48E0
0000
ENDCHAR
STARTCHAR 4E19
ENCODING 19993
SWIDTH 1000 0
DWIDTH 12 0
BBX 12 12 -1 -2
BITMAP
FFE0
0400
0400
7FC0
4440
4440
4A40
5140
6140
4040
41C0
0000
ENDCHAR
STARTCHAR 79C9
ENCODING 31177
SWIDTH 1000 0
DWIDTH 12 0
BBX 12 12 -1 -2
BITMAP
03C0
7C00
0400
FFE0
0440
FFE0
0440
7FC0
1500
2480
C460
0000
ENDCHAR
STARTCHAR 997C
ENCODING 39292
SWIDTH 1000 0
DWIDTH 12 0
BBX 12 12 -1 -2
BITMAP
4440
4280
7FE0
9240
4240
4FE0
4240
4240
5240
6440
4840
0000
ENDCHAR
STARTCHAR 70B3
ENCODING 28851
SWIDTH 1000 0
DWIDTH 12 0
BBX 12 12 -1 -2
BITMAP
2FE0
2100
3100
AFE0
A920
A920
2AA0
2AA0
5C20
4820
88E0
0000
ENDCHAR
STARTCHAR 75C5
ENCODING 30149
SWIDTH 1000 0
DWIDTH 12 0
BBX 12 12 -1 -2
BITMAP
0200
3FE0
A000
6FE0
2100
6FE0
A920
2AA0
4CA0
4820
88E0
0000
ENDCHAR
STARTCHAR 5E76
ENCODING 24182
SWIDTH 1000 0
DWIDTH 12 0
BBX 12 12 -1 -2
BITMAP
1080
0900
7FE0
1100
1100
1100
FFE0
1100
1100
2100
C100
0000
ENDCHAR
STARTCHAR 73BB
ENCODING 29627
SWIDTH 1000 0
DWIDTH 12 0
BBX 12 12 -1 -2
BITMAP
0100
FFE0
4920
4940
4900
EFC0
4A40
4A40
7980
D240
2C20
0000
ENDCHAR
STARTCHAR 83E0
ENCODING 33760
SWIDTH 1000 0
DWIDTH 12 0
BBX 12 12 -1 -2
BITMAP
1100
FFE0
1100
4FE0
A920
4900
2FC0
4A80
C900
5280
6C60
0000
ENDCHAR
STARTCHAR 64AD
ENCODING 25773
SWIDTH 1000 0
DWIDTH 12 0
BBX 12 12 -1 -2
BITMAP
21C0
2F00
F540
2FE0
2580
2940
7FE0
A940
2FC0
2940
EFC0
0000
ENDCHAR
STARTCHAR 62E8
ENCODING 25320
SWIDTH 1000 0
DWIDTH 12 0
BBX 12 12 -1 -2
BITMAP
2100
2940
F940
2FE0
2200
33C0
E240
2540
2480
2940
F620
0000
ENDCHAR
STARTCHAR 94B5
ENCODING 38069
SWIDTH 1000 0
DWIDTH 12 0
BBX 12 12 -1 -2
BITMAP
4100
7100
4FE0
8100
F100
4380
F540
4920
57C0
6100
4100
0000
ENDCHAR
STARTCHAR 6CE2
ENCODING 27874
SWIDTH 1000 0
DWIDTH 12 0
BBX 12 12 -1 -2
BITMAP
4100
2100
0FE0
A920
6900
2FC0
4A40
4A80
D100
5280
6C60
0000
ENDCHAR
STARTCHAR 535A
ENCODING 21338
SWIDTH 1000 0
DWIDTH 12 0
BBX 12 12 -1 -2
BITMAP
4240
5FE0
4A40
EFC0
4A40
4FC0
4A40
4080
5FE0
4880
4580
0000
ENDCHAR
STARTCHAR 52C3
ENCODING 21187
SWIDTH 1000 0
DWIDTH 12 0
BBX 12 12 -1 -2
BITMAP
1100
FD00
1100
FFE0
8520
7920
1120
1D20
F220
1420
69C0
0000
ENDCHAR
STARTCHAR 640F
ENCODING 25615
SWIDTH 1000 0
DWIDTH 12 0
BBX 12 12 -1 -2
BITMAP
2140
2FE0
F940
2FC0
3940
6FC0
A940
3FE0
2440
2240
E1C0
0000
ENDCHAR
STARTCHAR 94C2
ENCODING 38082
SWIDTH 1000 0
DWIDTH 12 0
BBX 12 12 -1 -2
BITMAP
2180
2100
77E0
4420
F420
27E0
FC20
2420
2C20
37E0
2420
0000
ENDCHAR
STARTCHAR 7B94
ENCODING 31636
SWIDTH 1000 0
DWIDTH 12 0
BBX 12 12 -1 -2
BITMAP
2100
7DE0
9240
4500
27E0
8420
5420
27E0
C420
4420
47E0
0000
ENDCHAR
STARTCHAR 4F2F
ENCODING 20271
SWIDTH 1000 0
DWIDTH 12 0
BBX 12 12 -1 -2
BITMAP
2100
2200
4FC0
4840
C840
4840
4FC0
4840
4840
4840
4FC0
0000
ENDCHAR
STARTCHAR 5E1B
ENCODING 24091
SWIDTH 1000 0
DWIDTH 12 0
BBX 12 12 -1 -2
BITMAP
0400
3FC0
2040
3FC0
2040
3FC0
0400
7FC0
4440
4440
44C0
0000
ENDCHAR
STARTCHAR 8236
ENCODING 33334
SWIDTH 1000 0
DWIDTH 12 0
BBX 12 12 -1 -2
BITMAP
2080
7900
4BE0
6A20
5A20
FBE0
4A20
6A20
5A20
4BE0
9A20
0000
ENDCHAR
STARTCHAR 8116
ENCODING 33046
SWIDTH 1000 0
DWIDTH 12 0
BBX 12 12 -1 -2
BITMAP
7100
57E0
5100
7FE0
5820
57C0
7080
5FE0
5100
9100
B300
0000
ENDCHAR
STARTCHAR 818A
ENCODING 33162
SWIDTH 1000 0
DWIDTH 12 0
BBX 12 12 -1 -2
BITMAP
7140
5FE0
5100
77E0
5520
57E0
7520
5FE0
5440
9240
B1C0
0000
ENDCHAR
STARTCHAR 6E24
ENCODING 28196
SWIDTH 1000 0
DWIDTH 12 0
BBX 12 12 -1 -2
BITMAP
8880
7E80
0880
BFE0
A2A0
5CA0
48A0
8EA0
B920
8920
9AC0
0000
ENDCHAR
STARTCHAR 6CCA
ENCODING 27850
SWIDTH 1000 0
DWIDTH 12 0
BBX 12 12 -1 -2
BITMAP
4100
2200
0FE0
A820
6820
2820
2FE0
4820
C820
4FE0
4820
0000
ENDCHAR
STARTCHAR 9A73
ENCODING 39539
SWIDTH 1000 0
DWIDTH 12 0
BBX 12 12 -1 -2
BITMAP
F440
1280
5180
5240
5420
7840
0A40
3A80
C900
0A80
7460
0000
ENDCHAR
STARTCHAR 6355
ENCODING 25429
SWIDTH 1000 0
DWIDTH 12 0
BBX 12 12 -1 -2
BITMAP
2140
2140
FFE0
2100
3FE0
6920
AFE0
2920
2FE0
2920
E960
0000
ENDCHAR
STARTCHAR 535C
ENCODING 21340
SWIDTH 1000 0
DWIDTH 12 0
BBX 12 12 -1 -2
BITMAP
0800
0800
0800
0800
0E00
0980
0840
0800
0800
0800
0800
0000
ENDCHAR
STARTCHAR 54FA
ENCODING 21754
SWIDTH 1000 0
DWIDTH 12 0
BBX 12 12 -1 -2
BITMAP
0280
E240
BFE0
A200
AFC0
AA40
AFC0
EA40
0FC0
0A40
0AC0
0000
ENDCHAR
STARTCHAR 8865
ENCODING 34917
SWIDTH 1000 0
DWIDTH 12 0
BBX 12 12 -1 -2
BITMAP
2100
2100
F900
0900
1180
2940
7120
A900
2100
2100
2100
0000
ENDCHAR
STARTCHAR 57E0
ENCODING 22496
SWIDTH 1000 0
DWIDTH 12 0
BBX 12 12 -1 -2
BITMAP
4100
47C0
4440
F7C0
4400
47C0
4440
77C0
C100
1FE0
0100
0000
ENDCHAR
STARTCHAR 4E0D
ENCODING 19981
SWIDTH 1000 0
DWIDTH 12 0
BBX 12 12 -1 -2
BITMAP
FFE0
0200
0400
0400
0D00
1480
2440
C420
0400
0400
0400
0000
ENDCHAR
STARTCHAR 5E03
ENCODING 24067
SWIDTH 1000 0
DWIDTH 12 0
BBX 12 12 -1 -2
BITMAP
0800
0840
FFE0
1200
1FC0
3240
5240
9240
1240
12C0
0200
0000
ENDCHAR
STARTCHAR 6B65
ENCODING 27493
SWIDTH 1000 0
DWIDTH 12 0
BBX 12 12 -1 -2
BITMAP
0400
27C0
2400
2400
FFE0
0400
1440
2480
4100
0600
7800
0000
ENDCHAR
STARTCHAR 7C3F
ENCODING 31807
SWIDTH 1000 0
DWIDTH 12 0
BBX 12 12 -1 -2
BITMAP
4200
7BE0
9540
5FE0
A940
4FC0
2940
4080
DFE0
4480
4380
0000
ENDCHAR
STARTCHAR 90E8
ENCODING 37096
SWIDTH 1000 0
DWIDTH 12 0
BBX 12 12 -1 -2
BITMAP
1000
FFE0
4520
2940
FF40
0140
7D20
4520
45A0
7D40
4500
0000
ENDCHAR
STARTCHAR 6016
ENCODING 24598
SWIDTH 1000 0
DWIDTH 12 0
BBX 12 12 -1 -2
BITMAP
4200
4200
5FE0
E500
C7E0
4920
5920
4920
4920
4960
4100
0000
ENDCHAR
STARTCHAR 64E6
ENCODING 25830
SWIDTH 1000 0
DWIDTH 12 0
BBX 12 12 -1 -2
BITMAP
4100
5FE0
F420
47E0
4AA0
77C0
C820
57C0
4580
4940
D720
0000
ENDCHAR
STARTCHAR 731C
ENCODING 29468
SWIDTH 1000 0
DWIDTH 12 0
BBX 12 12 -1 -2
BITMAP
9100
5FE0
2100
6FE0
A100
2FE0
5440
97C0
1440
17C0
E440
0000
ENDCHAR
STARTCHAR 88C1
ENCODING 35009
SWIDTH 1000 0
DWIDTH 12 0
BBX 12 12 -1 -2
BITMAP
1100
FD40
1140
FFE0
2100
FD40
2140
7540
A8A0
3560
2220
0000
ENDCHAR
STARTCHAR 6750
ENCODING 26448
SWIDTH 1000 0
DWIDTH 12 0
BBX 12 12 -1 -2
BITMAP
2040
2040
FBE0
2040
30C0
6940
6A40
A440
A840
2040
21C0
0000
ENDCHAR
STARTCHAR 624D
ENCODING 25165
SWIDTH 1000 0
DWIDTH 12 0
BBX 12 12 -1 -2
BITMAP
0200
0200
FFE0
0200
0600
0A00
1200
2200
4200
8200
0E00
0000
ENDCHAR
STARTCHAR 8D22
ENCODING 36130
SWIDTH 1000 0
DWIDTH 12 0
BBX 12 12 -1 -2
BITMAP
F840
8840
AFE0
A840
A8C0
A8C0
A940
AA40
3440
4840
85C0
0000
ENDCHAR
STARTCHAR 776C
ENCODING 30572
SWIDTH 1000 0
DWIDTH 12 0
BBX 12 12 -1 -2
BITMAP
00E0
F700
9920
F440
9100
9FE0
F100
9380
F540
8920
1100
0000
ENDCHAR
STARTCHAR 8E29
ENCODING 36393
SWIDTH 1000 0
DWIDTH 12 0
BBX 12 12 -1 -2
BITMAP
F0E0
9F00
9540
F480
2100
AFE0
B100
A380
B540
C920
1100
0000
ENDCHAR
STARTCHAR 91C7
ENCODING 37319
SWIDTH 1000 0
DWIDTH 12 0
BBX 12 12 -1 -2
BITMAP
07C0
7C40
4480
2100
0400
FFE0
0E00
1500
2480
4440
8420
0000
ENDCHAR
STARTCHAR 5F69
ENCODING 24425
SWIDTH 1000 0
DWIDTH 12 0
BBX 12 12 -1 -2
BITMAP
0E20
F440
5480
2B00
1020
FE40
1180
3820
5440
9180
1600
0000
ENDCHAR
STARTCHAR 83DC
ENCODING 33756
SWIDTH 1000 0
DWIDTH 12 0
BBX 12 12 -1 -2
BITMAP
1200
FFE0
1200
7FC0
4480
2480
1500
FFE0
1500
2480
C460
0000
ENDCHAR
STARTCHAR 8521
ENCODING 34081
SWIDTH 1000 0
DWIDTH 12 0
BBX 12 12 -1 -2
BITMAP
1100
FFE0
2100
3BC0
6A80
DF00
2080
5F60
8400
2480
4C40
0000
ENDCHAR
STARTCHAR 9910
ENCODING 39184
SWIDTH 1000 0
DWIDTH 12 0
BBX 12 12 -1 -2
BITMAP
1DE0
5140
7880
D540
2A20
D580
3FE0
D080
1FC0
1280
1DC0
0000
ENDCHAR
STARTCHAR 53C2
ENCODING 21442
SWIDTH 1000 0
DWIDTH 12 0
BBX 12 12 -1 -2
BITMAP
0900
1080
7FC0
0800
FFE0
2500
4880
B260
0C80
0300
7C00
0000
ENDCHAR
STARTCHAR 8695
ENCODING 34453
SWIDTH 1000 0
DWIDTH 12 0
BBX 12 12 -1 -2
BITMAP
7FC0
0400
FFE0
1100
2480
FFE0
2480
2480
3F80
0480
FFE0
0000
ENDCHAR
STARTCHAR 6B8B
ENCODING 27531
SWIDTH 1000 0
DWIDTH 12 0
BBX 12 12 -1 -2
BITMAP
0180
F940
4100
77E0
5100
97E0
5140
2140
20A0
4360
8C20
0000
ENDCHAR
STARTCHAR 60ED
ENCODING 24813
SWIDTH 1000 0
DWIDTH 12 0
BBX 12 12 -1 -2
BITMAP
4820
49C0
5F00
E900
D5E0
5F40
4540
4740
5D40
4540
4640
0000
ENDCHAR
STARTCHAR 60E8
ENCODING 24808
SWIDTH 1000 0
DWIDTH 12 0
BBX 12 12 -1 -2
BITMAP
4200
4480
4FC0
E200
DFE0
4480
4A40
5520
4A40
4580
5E00
0000
ENDCHAR
STARTCHAR 707F
ENCODING 28799
SWIDTH 1000 0
DWIDTH 12 0
BBX 12 12 -1 -2
BITMAP
2100
2100
2900
B520
A520
A520
2520
2520
5520
5520
87E0
0000
ENDCHAR
STARTCHAR 82CD
ENCODING 33485
SWIDTH 1000 0
DWIDTH 12 0
BBX 12 12 -1 -2
BITMAP
1100
FFE0
1500
0A00
1100
3F80
D160
1100
1740
1040
1FC0
0000
ENDCHAR
STARTCHAR 8231
ENCODING 33329
SWIDTH 1000 0
DWIDTH 12 0
BBX 12 12 -1 -2
BITMAP
2100
7980
4A40
6C20
5BC0
FA40
4A40
6AC0
5A20
4A20
9BE0
0000
ENDCHAR
STARTCHAR 4ED3
ENCODING 20179
SWIDTH 1000 0
DWIDTH 12 0
BBX 12 12 -1 -2
BITMAP
0400
0A00
1100
2080
5F60
9100
1100
1500
1240
1040
1FC0
0000
ENDCHAR
STARTCHAR 6CA7
ENCODING 27815
SWIDTH 1000 0
DWIDTH 12 0
BBX 12 12 -1 -2
BITMAP
4200
2300
0480
8840
5FA0
2880
4880
4A80
C940
4840
4FC0
0000
ENDCHAR
STARTCHAR 85CF
ENCODING 34255
SWIDTH 1000 0
DWIDTH 12 0
BBX 12 12 -1 -2
BITMAP
0A00
FFE0
0940
BFE0
E100
2F40
EB40
AE80
AAA0
AF60
4220
0000
ENDCHAR
STARTCHAR 64CD
ENCODING 25805
SWIDTH 1000 0
DWIDTH 12 0
BBX 12 12 -1 -2
BITMAP
4780
4480
F780
5DE0
5520
7DE0
C200
5FE0
4680
4A40
F220
0000
ENDCHAR
STARTCHAR 7CD9
ENCODING 31961
SWIDTH 1000 0
DWIDTH 12 0
BBX 12 12 -1 -2
BITMAP
4080
5280
EBE0
4480
EFE0
4400
E5E0
D520
45E0
4C00
53E0
0000
ENDCHAR
STARTCHAR 69FD
ENCODING 27133
SWIDTH 1000 0
DWIDTH 12 0
BBX 12 12 -1 -2
BITMAP
4280
5FE0
EAA0
4FE0
4AA0
EFE0
C7C0
4440
47C0
4440
47C0
0000
ENDCHAR
STARTCHAR 66F9
ENCODING 26361
SWIDTH 1000 0
DWIDTH 12 0
BBX 12 12 -1 -2
BITMAP
0A00
FFE0
4A40
7FC0
4A40
7FC0
3F80
2080
3F80
2080
3F80
0000
ENDCHAR
STARTCHAR 8349
ENCODING 33609
SWIDTH 1000 0
DWIDTH 12 0
BBX 12 12 -1 -2
BITMAP
1100
FFE0
1100
3F80
2080
3F80
2080
3F80
0400
FFE0
0400
0000
ENDCHAR
STARTCHAR 5395
ENCODING 21397
SWIDTH 1000 0
DWIDTH 12 0
BBX 12 12 -1 -2
BITMAP
7FE0
4000
5E20
52A0
5AA0
5AA0
5AA0
5AA0
4CA0
9220
A260
0000
ENDCHAR
STARTCHAR 7B56
ENCODING 31574
SWIDTH 1000 0
DWIDTH 12 0
BBX 12 12 -1 -2
BITMAP
2100
7BE0
9480
FFE0
0400
3FC0
2440
2EC0
1500
2480
C460
0000
ENDCHAR
STARTCHAR 4FA7
ENCODING 20391
SWIDTH 1000 0
DWIDTH 12 0
BBX 12 12 -1 -2
BITMAP
2020
3E20
52A0
56A0
D6A0
56A0
56A0
56A0
4CA0
5220
6160
0000
ENDCHAR
STARTCHAR 518C
ENCODING 20876
SWIDTH 1000 0
DWIDTH 12 0
BBX 12 12 -1 -2
BITMAP
7BC0
4A40
4A40
4A40
FFE0
4A40
4A40
4A40
4A40
4A40
9DC0
0000
ENDCHAR
STARTCHAR 6D4B
ENCODING 27979
SWIDTH 1000 0
DWIDTH 12 0
BBX 12 12 -1 -2
BITMAP
9E20
5220
12A0
96A0
56A0
56A0
56A0
D6A0
44A0
4A20
7160
0000
ENDCHAR
STARTCHAR 5C42
ENCODING 23618
SWIDTH 1000 0
DWIDTH 12 0
BBX 12 12 -1 -2
BITMAP
7FC0
4040
7FC0
4000
5FC0
4000
7FE0
4400
4500
8880
9FC0
0000
ENDCHAR
STARTCHAR 8E6D
ENCODING 36461
SWIDTH 1000 0
DWIDTH 12 0
BBX 12 12 -1 -2
BITMAP
F440
9280
9FE0
F920
2BA0
A920
B7C0
A440
B7C0
E440
87C0
0000
ENDCHAR
STARTCHAR 63D2
ENCODING 25554
SWIDTH 1000 0
DWIDTH 12 0
BBX 12 12 -1 -2
BITMAP
21C0
2F00
F100
2FE0
3100
6D60
A920
2D60
2920
2FE0
E820
0000
ENDCHAR
STARTCHAR 53C9
ENCODING 21449
SWIDTH 1000 0
DWIDTH 12 0
BBX 12 12 -1 -2
BITMAP
7FC0
2840
2480
1480
1100
0900
0A00
0400
0A00
3180
C060
0000
ENDCHAR
STARTCHAR 832C
ENCODING 33580
SWIDTH 1000 0
DWIDTH 12 0
BBX 12 12 -1 -2
BITMAP
1100
FFE0
1100
0800
FFE0
1100
2100
6FC0
A100
2100
3FE0
0000
ENDCHAR
STARTCHAR 8336
ENCODING 33590
SWIDTH 1000 0
DWIDTH 12 0
BBX 12 12 -1 -2
BITMAP
1100
FFE0
1500
0A00
1100
2480
DF60
0400
1500
2480
4C40
0000
ENDCHAR
STARTCHAR 67E5
ENCODING 26597
SWIDTH 1000 0
DWIDTH 12 0
BBX 12 12 -1 -2
BITMAP
0400
FFE0
0D00
1480
3FC0
E0A0
3F80
2080
3F80
0000
FFE0
0000
ENDCHAR
STARTCHAR 78B4
ENCODING 30900
SWIDTH 1000 0
DWIDTH 12 0
BBX 12 12 -1 -2
BITMAP
0100
FFE0
4380
4540
7FE0
D440
57C0
5440
77C0
4000
1FE0
0000
ENDCHAR
STARTCHAR 643D
ENCODING 25661
SWIDTH 1000 0
DWIDTH 12 0
BBX 12 12 -1 -2
BITMAP
2480
2FE0
F480
2300
3480
6940
B7A0
2100
2580
2940
F320
0000
ENDCHAR
STARTCHAR 5BDF
ENCODING 23519
SWIDTH 1000 0
DWIDTH 12 0
BBX 12 12 -1 -2
BITMAP
0400
FFE0
A020
3BC0
6940
DF80
2040
7FA0
9500
24C0
CC40
0000
ENDCHAR
STARTCHAR 5C94
ENCODING 23700
SWIDTH 1000 0
DWIDTH 12 0
BBX 12 12 -1 -2
BITMAP
0A00
1100
2080
DFE0
0880
1080
6300
0400
4440
4440
7FC0
0000
ENDCHAR
STARTCHAR 5DEE
ENCODING 24046
SWIDTH 1000 0
DWIDTH 12 0
BBX 12 12 -1 -2
BITMAP
1100
7FE0
0400
7FC0
0800
FFE0
0800
1FC0
2200
4200
BFE0
0000
ENDCHAR
STARTCHAR 8BE7
ENCODING 35815
SWIDTH 1000 0
DWIDTH 12 0
BBX 12 12 -1 -2
BITMAP
8100
5FE0
5020
01C0
DE00
4200
43E0
5E00
4220
6220
43E0
0000
ENDCHAR
STARTCHAR 62C6
ENCODING 25286
SWIDTH 1000 0
DWIDTH 12 0
BBX 12 12 -1 -2
BITMAP
20E0
2700
F400
27E0
3480
6480
A580
24C0
28A0
2880
F080
0000
ENDCHAR
STARTCHAR 67F4
ENCODING 26612
SWIDTH 1000 0
DWIDTH 12 0
BBX 12 12 -1 -2
BITMAP
1200
5240
5B80
5220
5E20
E1E0
0400
FFE0
1500
2480
C460
0000
ENDCHAR
STARTCHAR 8C7A
ENCODING 35962
SWIDTH 1000 0
DWIDTH 12 0
BBX 12 12 -1 -2
BITMAP
1080
6080
9880
57E0
6080
B080
5180
AA80
4C80
8880
3180
0000
ENDCHAR
STARTCHAR 6400
ENCODING 25600
SWIDTH 1000 0
DWIDTH 12 0
BBX 12 12 -1 -2
BITMAP
2380
2480
FFE0
2520
37E0
6280
A4A0
3B60
2080
2700
E0C0
0000
ENDCHAR
STARTCHAR 63BA
ENCODING 25530
SWIDTH 1000 0
DWIDTH 12 0
BBX 12 12 -1 -2
BITMAP
2200
2480
FFC0
2200
3FE0
6480
AA40
3520
2280
2500
EE00
0000
ENDCHAR
STARTCHAR 8749
ENCODING 34633
SWIDTH 1000 0
DWIDTH 12 0
BBX 12 12 -1 -2
BITMAP
2440
2280
FFE0
A920
AFE0
A920
FFE0
2100
2FE0
3100
C100
0000
ENDCHAR
STARTCHAR 998B
ENCODING 39307
SWIDTH 1000 0
DWIDTH 12 0
BBX 12 12 -1 -2
BITMAP
4200
4780
7500
9FC0
2940
4FC0
44A0
5AE0
4180
6600
41C0
0000
ENDCHAR
STARTCHAR 8C17
ENCODING 35863
SWIDTH 1000 0
DWIDTH 12 0
BBX 12 12 -1 -2
BITMAP
4400
2780
0900
1FC0
CA40
4FC0
4520
5AE0
4100
6600
4180
0000
ENDCHAR
STARTCHAR 7F20
ENCODING 32544
SWIDTH 1000 0
DWIDTH 12 0
BBX 12 12 -1 -2
BITMAP
2100
2FE0
4800
9BE0
EAA0
4AA0
BBE0
C880
3BE0
C880
17E0
0000
ENDCHAR
STARTCHAR 94F2
ENCODING 38130
SWIDTH 1000 0
DWIDTH 12 0
BBX 12 12 -1 -2
BITMAP
4100
77E0
8440
F280
47E0
4400
F400
4400
5400
6800
1000
0000
ENDCHAR
STARTCHAR 4EA7
ENCODING 20135
SWIDTH 1000 0
DWIDTH 12 0
BBX 12 12 -1 -2
BITMAP
0400
FFE0
1080
0900
7FE0
4000
4000
4000
4000
8000
8000
0000
ENDCHAR
STARTCHAR 9610
ENCODING 38416
SWIDTH 1000 0
DWIDTH 12 0
BBX 12 12 -1 -2
BITMAP
4FC0
2140
8A40
BF40
A540
BF40
A540
FFC0
8440
8440
84C0
0000
ENDCHAR
STARTCHAR 98A4
ENCODING 39076
SWIDTH 1000 0
DWIDTH 12 0
BBX 12 12 -1 -2
BITMAP
23E0
FC80
B7E0
9620
FEA0
4AA0
7AA0
4AA0
7880
0D40
F220
0000
ENDCHAR
STARTCHAR 660C
ENCODING 26124
SWIDTH 1000 0
DWIDTH 12 0
BBX 12 12 -1 -2
BITMAP
3F80
2080
3F80
2080
3F80
0000
7FC0
4040
7FC0
4040
7FC0
0000
ENDCHAR
STARTCHAR 7316
ENCODING 29462
SWIDTH 1000 0
DWIDTH 12 0
BBX 12 12 -1 -2
BITMAP
97C0
5440
27C0
6440
A7C0
2000
6FE0
A820
2FE0
2820
EFE0
0000
ENDCHAR
STARTCHAR 573A
ENCODING 22330
SWIDTH 1000 0
DWIDTH 12 0
BBX 12 12 -1 -2
BITMAP
2FC0
2080
2100
FA00
27E0
22A0
2AA0
3520
CA20
8440
09C0
0000
ENDCHAR
STARTCHAR 5C1D
ENCODING 23581
SWIDTH 1000 0
DWIDTH 12 0
BBX 12 12 -1 -2
BITMAP
2480
1500
7FE0
C020
3F80
0000
7FC0
0800
1100
2080
7FC0
0000
ENDCHAR
STARTCHAR 5E38
ENCODING 24120
SWIDTH 1000 0
DWIDTH 12 0
BBX 12 12 -1 -2
BITMAP
2480
7FE0
C020
1F80
1080
1F80
0400
3FC0
2440
25C0
0400
0000
ENDCHAR
STARTCHAR 957F
ENCODING 38271
SWIDTH 1000 0
DWIDTH 12 0
BBX 12 12 -1 -2
BITMAP
2080
2100
2200
2400
2800
FFE0
2400
2200
2100
2C80
3060
0000
ENDCHAR
STARTCHAR 507F
ENCODING 20607
SWIDTH 1000 0
DWIDTH 12 0
BBX 12 12 -1 -2
BITMAP
2200
2A40
4680
5FE0
D020
4FC0
4000
5FE0
4480
4840
4FC0
0000
ENDCHAR
STARTCHAR 80A0
ENCODING 32928
SWIDTH 1000 0
DWIDTH 12 0
BBX 12 12 -1 -2
BITMAP
77C0
5080
5100
7200
57E0
52A0
72A0
54A0
5920
9220
B4C0
0000
ENDCHAR
STARTCHAR 5382
ENCODING 21378
SWIDTH 1000 0
DWIDTH 12 0
BBX 12 12 -1 -2
BITMAP
7FE0
4000
4000
4000
4000
4000
4000
4000
4000
8000
8000
0000
ENDCHAR
STARTCHAR 655E
ENCODING 25950
SWIDTH 1000 0
DWIDTH 12 0
BBX 12 12 -1 -2
BITMAP
1100
9500
59E0
FD40
8740
BD40
AD40
BC80
8480
8540
8E20
0000
ENDCHAR
STARTCHAR 7545
ENCODING 30021
SWIDTH 1000 0
DWIDTH 12 0
BBX 12 12 -1 -2
BITMAP
27C0
2080
F900
AA00
FFE0
AAA0
FAA0
24A0
2920
2220
2CC0
0000
ENDCHAR
STARTCHAR 5531
ENCODING 21809
SWIDTH 1000 0
DWIDTH 12 0
BBX 12 12 -1 -2
BITMAP
07C0
E440
A7C0
A440
A7C0
A000
AFE0
E820
8FE0
0820
0FE0
0000
ENDCHAR
STARTCHAR 5021
ENCODING 20513
SWIDTH 1000 0
DWIDTH 12 0
BBX 12 12 -1 -2
BITMAP
17C0
1440
27C0
6440
A7C0
2000
2FE0
2820
2FE0
2820
2FE0
0000
ENDCHAR
STARTCHAR 8D85
ENCODING 36229
SWIDTH 1000 0
DWIDTH 12 0
BBX 12 12 -1 -2
BITMAP
23E0
2120
F920
2260
F400
23E0
BA20
A220
A3E0
E000
9FE0
0000
ENDCHAR
STARTCHAR 6284
ENCODING 25220
SWIDTH 1000 0
DWIDTH 12 0
BBX 12 12 -1 -2
BITMAP
2100
2100
F340
2520
3520
6940
A140
2080
2100
2200
EC00
0000
ENDCHAR
STARTCHAR 949E
ENCODING 38046
SWIDTH 1000 0
DWIDTH 12 0
BBX 12 12 -1 -2
BITMAP
4100
4100
7540
8520
F520
4900
F120
4040
4880
5300
6C00
0000
ENDCHAR
STARTCHAR 671D
ENCODING 26397
SWIDTH 1000 0
DWIDTH 12 0
BBX 12 12 -1 -2
BITMAP
11E0
FD20
1120
7DE0
4520
7D20
45E0
7D20
1120
FE20
14E0
0000
ENDCHAR
STARTCHAR 5632
ENCODING 22066
SWIDTH 1000 0
DWIDTH 12 0
BBX 12 12 -1 -2
BITMAP
04E0
FFA0
A4A0
AEE0
AAA0
AEA0
AAE0
E4A0
BFA0
0520
0660
0000
ENDCHAR
STARTCHAR 6F6E
ENCODING 28526
SWIDTH 1000 0
DWIDTH 12 0
BBX 12 12 -1 -2
BITMAP
88E0
7FA0
08A0
9EE0
52A0
5EA0
52E0
5EA0
88A0
BEA0
8960
0000
ENDCHAR
STARTCHAR 5DE2
ENCODING 24034
SWIDTH 1000 0
DWIDTH 12 0
BBX 12 12 -1 -2
BITMAP
2480
4900
2480
3FC0
2440
3FC0
2440
FFE0
1500
2480
C460
0000
ENDCHAR
STARTCHAR 5435
ENCODING 21557
SWIDTH 1000 0
DWIDTH 12 0
BBX 12 12 -1 -2
BITMAP
0100
E100
A540
A520
A920
A900
E120
A040
0080
0300
3C00
0000
ENDCHAR
STARTCHAR 7092
ENCODING 28818
SWIDTH 1000 0
DWIDTH 12 0
BBX 12 12 -1 -2
BITMAP
2100
2100
2540
B520
A920
A900
2120
2040
5080
4300
9C00
0000
ENDCHAR
STARTCHAR 8F66
ENCODING 36710
SWIDTH 1000 0
DWIDTH 12 0
BBX 12 12 -1 -2
BITMAP
0800
FFE0
1000
1400
2400
7FC0
0400
0400
FFE0
0400
0400
0000
ENDCHAR
STARTCHAR 626F
ENCODING 25199
SWIDTH 1000 0
DWIDTH 12 0
BBX 12 12 -1 -2
BITMAP
2100
2100
F900
2500
25E0
3500
E500
2500
2500
2500
FFE0
0000
ENDCHAR
STARTCHAR 64A4
ENCODING 25764
SWIDTH 1000 0
DWIDTH 12 0
BBX 12 12 -1 -2
BITMAP
4480
5F80
EAE0
5F20
41A0
6EA0
CAA0
4E40
4A40
4EA0
CB20
0000
ENDCHAR
STARTCHAR 63A3
ENCODING 25507
SWIDTH 1000 0
DWIDTH 12 0
BBX 12 12 -1 -2
BITMAP
7C40
5140
FF40
5540
5D40
10C0
7F80
0400
FFE0
0400
1C00
0000
ENDCHAR
STARTCHAR 5F7B
ENCODING 24443
SWIDTH 1000 0
DWIDTH 12 0
BBX 12 12 -1 -2
BITMAP
2800
4BE0
A920
2F20
5920
C920
4920
4B20
4D20
4220
44C0
0000
ENDCHAR
STARTCHAR 6F88
ENCODING 28552
SWIDTH 1000 0
DWIDTH 12 0
BBX 12 12 -1 -2
BITMAP
8480
5E80
09E0
9F40
4140
5F40
5340
DE80
5280
5F40
5220
0000
ENDCHAR
STARTCHAR 90F4
ENCODING 37108
SWIDTH 1000 0
DWIDTH 12 0
BBX 12 12 -1 -2
BITMAP
4400
44E0
FFA0
44A0
6CC0
D6A0
D4A0
44A0
44E0
4480
4480
0000
ENDCHAR
STARTCHAR 81E3
ENCODING 33251
SWIDTH 1000 0
DWIDTH 12 0
BBX 12 12 -1 -2
BITMAP
7FE0
4400
4400
7FC0
4040
4040
7FC0
4400
4400
4400
7FE0
0000
ENDCHAR
STARTCHAR 8FB0
ENCODING 36784
SWIDTH 1000 0
DWIDTH 12 0
BBX 12 12 -1 -2
BITMAP
7FE0
4000
5FC0
4000
4040
5FE0
4A00
4A80
4900
8A80
8C60
0000
ENDCHAR
STARTCHAR 5C18
ENCODING 23576
SWIDTH 1000 0
DWIDTH 12 0
BBX 12 12 -1 -2
BITMAP
0400
1500
2480
4440
8420
0000
0400
7FC0
0400
0400
FFE0
0000
ENDCHAR
STARTCHAR 6668
ENCODING 26216
SWIDTH 1000 0
DWIDTH 12 0
BBX 12 12 -1 -2
BITMAP
3FC0
2040
3FC0
2040
7FE0
4000
7FE0
5440
5280
5500
98E0
0000
ENDCHAR
STARTCHAR 5FF1
ENCODING 24561
SWIDTH 1000 0
DWIDTH 12 0
BBX 12 12 -1 -2
BITMAP
4100
4100
4FE0
E920
C120
4300
4300
4500
4520
4920
51E0
0000
ENDCHAR
STARTCHAR 6C89
ENCODING 27785
SWIDTH 1000 0
DWIDTH 12 0
BBX 12 12 -1 -2
BITMAP
8000
4FE0
2820
8000
4780
0480
4480
4480
C4A0
48A0
50E0
0000
ENDCHAR
STARTCHAR 9648
ENCODING 38472
SWIDTH 1000 0
DWIDTH 12 0
BBX 12 12 -1 -2
BITMAP
F200
9FE0
A400
A500
A900
9FE0
9100
F580
8940
9120
8700
0000
ENDCHAR
STARTCHAR 8D81
ENCODING 36225
SWIDTH 1000 0
DWIDTH 12 0
BBX 12 12 -1 -2
BITMAP
2100
FA80
2440
20A0
F900
2680
B900
A640
E080
B300
8FE0
0000
ENDCHAR
STARTCHAR 886C
ENCODING 34924
SWIDTH 1000 0
DWIDTH 12 0
BBX 12 12 -1 -2
BITMAP
4080
2080
F080
17E0
2080
2A80
7180
A880
2080
2080
2380
0000
ENDCHAR
STARTCHAR 6491
ENCODING 25745
SWIDTH 1000 0
DWIDTH 12 0
BBX 12 12 -1 -2
BITMAP
4920
4540
EFE0
4820
47C0
5440
6FE0
C100
5FE0
4100
C700
0000
ENDCHAR
STARTCHAR 79F0
ENCODING 31216
SWIDTH 1000 0
DWIDTH 12 0
BBX 12 12 -1 -2
BITMAP
1A00
E200
27E0
F420
2900
6540
7540
A520
A920
2920
2300
0000
ENDCHAR
STARTCHAR 57CE
ENCODING 22478
SWIDTH 1000 0
DWIDTH 12 0
BBX 12 12 -1 -2
BITMAP
40A0
40A0
4FE0
F880
4EA0
4AA0
4AA0
7AC0
CEA0
1160
2220
0000
ENDCHAR
STARTCHAR 6A59
ENCODING 27225
SWIDTH 1000 0
DWIDTH 12 0
BBX 12 12 -1 -2
BITMAP
5D40
55A0
ECC0
4780
6840
DFA0
C880
4F80
4880
4500
5FE0
0000
ENDCHAR
STARTCHAR 6210
ENCODING 25104
SWIDTH 1000 0
DWIDTH 12 0
BBX 12 12 -1 -2
BITMAP
0280
0240
7FE0
4200
4240
7A40
4A80
4900
6920
52A0
8460
0000
ENDCHAR
STARTCHAR 5448
ENCODING 21576
SWIDTH 1000 0
DWIDTH 12 0
BBX 12 12 -1 -2
BITMAP
3F80
2080
2080
3F80
0000
7FC0
0400
3F80
0400
0400
FFE0
0000
ENDCHAR
STARTCHAR 4E58
ENCODING 20056
SWIDTH 1000 0
DWIDTH 12 0
BBX 12 12 -1 -2
BITMAP
7F80
0400
FFE0
1500
F5C0
1520
F5E0
0E00
1500
2480
C460
0000
ENDCHAR
STARTCHAR 7A0B
ENCODING 31243
SWIDTH 1000 0
DWIDTH 12 0
BBX 12 12 -1 -2
BITMAP
37C0
E440
2440
F7C0
2000
6FE0
7100
A7C0
A100
2100
2FE0
0000
ENDCHAR
STARTCHAR 60E9
ENCODING 24809
SWIDTH 1000 0
DWIDTH 12 0
BBX 12 12 -1 -2
BITMAP
2FE0
4100
9500
25C0
6500
A500
3FE0
0400
5240
50A0
9F80
0000
ENDCHAR
STARTCHAR 6F84
ENCODING 28548
SWIDTH 1000 0
DWIDTH 12 0
BBX 12 12 -1 -2
BITMAP
9D40
45A0
14C0
8F80
5040
6FA0
4880
8F80
8880
8500
9FE0
0000
ENDCHAR
STARTCHAR 8BDA
ENCODING 35802
SWIDTH 1000 0
DWIDTH 12 0
BBX 12 12 -1 -2
BITMAP
4140
2140
2FE0
0900
C940
4F40
4A80
4A80
76A0
5160
2220
0000
ENDCHAR
STARTCHAR 627F
ENCODING 25215
SWIDTH 1000 0
DWIDTH 12 0
BBX 12 12 -1 -2
BITMAP
3F80
0100
0600
E4A0
3FC0
2480
2E80
4480
5F40
8420
0C00
0000
ENDCHAR
STARTCHAR 901E
ENCODING 36894
SWIDTH 1000 0
DWIDTH 12 0
BBX 12 12 -1 -2
BITMAP
47C0
2440
27C0
0000
EFE0
2100
2FC0
2100
2FE0
5000
8FE0
0000
ENDCHAR
STARTCHAR 9A8B
ENCODING 39563
SWIDTH 1000 0
DWIDTH 12 0
BBX 12 12 -1 -2
BITMAP
F100
17E0
1520
A7E0
A520
F7E0
1000
3FE0
D040
1040
6380
0000
ENDCHAR
STARTCHAR 79E4
ENCODING 31204
SWIDTH 1000 0
DWIDTH 12 0
BBX 12 12 -1 -2
BITMAP
1800
E7E0
2100
F520
2340
7100
6FE0
A100
A100
2100
2100
0000
ENDCHAR
STARTCHAR 5403
ENCODING 21507
SWIDTH 1000 0
DWIDTH 12 0
BBX 12 12 -1 -2
BITMAP
0200
F200
97E0
9800
9780
9080
9100
F200
0420
0420
07E0
0000
ENDCHAR
STARTCHAR 75F4
ENCODING 30196
SWIDTH 1000 0
DWIDTH 12 0
BBX 12 12 -1 -2
BITMAP
0200
3FE0
A800
AEE0
34A0
64A0
BFA0
24A0
2AA0
52E0
A000
0000
ENDCHAR
STARTCHAR 6301
ENCODING 25345
SWIDTH 1000 0
DWIDTH 12 0
BBX 12 12 -1 -2
BITMAP
2100
2FE0
F100
2100
2FE0
3080
EFE0
2880
2480
2080
E380
0000
ENDCHAR
STARTCHAR 5319
ENCODING 21273
SWIDTH 1000 0
DWIDTH 12 0
BBX 12 12 -1 -2
BITMAP
7900
4900
7920
4940
7980
0100
FD20
5120
5DE0
B000
9FE0
0000
ENDCHAR
STARTCHAR 6C60
ENCODING 27744
SWIDTH 1000 0
DWIDTH 12 0
BBX 12 12 -1 -2
BITMAP
4100
2100
0900
89C0
5F40
0940
4940
49C0
C920
4820
4FE0
0000
ENDCHAR
STARTCHAR 8FDF
ENCODING 36831
SWIDTH 1000 0
DWIDTH 12 0
BBX 12 12 -1 -2
BITMAP
4FC0
2840
2840
0FC0
C800
4B00
4880
5040
6020
5000
8FE0
0000
ENDCHAR
STARTCHAR 5F1B
ENCODING 24347
SWIDTH 1000 0
DWIDTH 12 0
BBX 12 12 -1 -2
BITMAP
F100
1100
1500
F5C0
8F40
8540
F540
15C0
1520
1420
E7E0
0000
ENDCHAR
STARTCHAR 9A70
ENCODING 39536
SWIDTH 1000 0
DWIDTH 12 0
BBX 12 12 -1 -2
BITMAP
F100
1100
5500
55C0
5F40
7540
1540
35C0
D520
1420
77E0
0000
ENDCHAR
STARTCHAR 803B
ENCODING 32827
SWIDTH 1000 0
DWIDTH 12 0
BBX 12 12 -1 -2
BITMAP
FC80
5080
5080
7280
52E0
7280
5280
5A80
7280
D280
1FE0
0000
ENDCHAR
STARTCHAR 9F7F
ENCODING 40831
SWIDTH 1000 0
DWIDTH 12 0
BBX 12 12 -1 -2
BITMAP
0400
27C0
2400
FFE0
0000
4440
4440
4A40
5140
6040
7FC0
0000
ENDCHAR
STARTCHAR 4F88
ENCODING 20360
SWIDTH 1000 0
DWIDTH 12 0
BBX 12 12 -1 -2
BITMAP
1200
27C0
2840
5480
C300
4500
5BE0
4440
5A80
4300
5C00
0000
ENDCHAR
STARTCHAR 5C3A
ENCODING 23610
SWIDTH 1000 0
DWIDTH 12 0
BBX 12 12 -1 -2
BITMAP
3FC0
2040
2040
2040
3FC0
2400
2400
2200
2100
4080
8060
0000
ENDCHAR
STARTCHAR 8D64
ENCODING 36196
SWIDTH 1000 0
DWIDTH 12 0
BBX 12 12 -1 -2
BITMAP
0400
7FC0
0400
0400
FFE0
0900
2980
4940
9120
2100
C700
0000
ENDCHAR
STARTCHAR 7FC5
ENCODING 32709
SWIDTH 1000 0
DWIDTH 12 0
BBX 12 12 -1 -2
BITMAP
2EE0
2220
FB20
26A0
F260
96A0
9B20
5220
26E0
5000
8FE0
0000
ENDCHAR
STARTCHAR 65A5
ENCODING 26021
SWIDTH 1000 0
DWIDTH 12 0
BBX 12 12 -1 -2
BITMAP
03C0
3C00
2000
3FE0
2200
2200
2F00
2280
4240
4200
8200
0000
ENDCHAR
STARTCHAR 70BD
ENCODING 28861
SWIDTH 1000 0
DWIDTH 12 0
BBX 12 12 -1 -2
BITMAP
2000
27C0
3440
A440
A440
A7C0
2440
2280
5440
4820
9020
0000
ENDCHAR
STARTCHAR 5145
ENCODING 20805
SWIDTH 1000 0
DWIDTH 12 0
BBX 12 12 -1 -2
BITMAP
0400
FFE0
0800
1100
2080
7FC0
1240
1200
1220
2220
C3E0
0000
ENDCHAR
STARTCHAR 51B2
ENCODING 20914
SWIDTH 1000 0
DWIDTH 12 0
BBX 12 12 -1 -2
BITMAP
8100
4100
4FE0
0920
2920
2920
4FE0
C100
4100
4100
4100
0000
ENDCHAR
STARTCHAR 866B
ENCODING 34411
SWIDTH 1000 0
DWIDTH 12 0
BBX 12 12 -1 -2
BITMAP
0400
0400
7FC0
4440
4440
4440
7FC0
0400
0440
07E0
FC20
0000
ENDCHAR
STARTCHAR 5D07
ENCODING 23815
SWIDTH 1000 0
DWIDTH 12 0
BBX 12 12 -1 -2
BITMAP
2440
3FC0
0400
7FE0
C020
3F80
0000
FFE0
1480
2440
CC20
0000
ENDCHAR
STARTCHAR 5BA0
ENCODING 23456
SWIDTH 1000 0
DWIDTH 12 0
BBX 12 12 -1 -2
BITMAP
0400
7FE0
4020
8A40
0900
FFE0
0A00
1280
1320
2E20
C3E0
0000
ENDCHAR
STARTCHAR 62BD
ENCODING 25277
SWIDTH 1000 0
DWIDTH 12 0
BBX 12 12 -1 -2
BITMAP
2100
2100
F100
2FE0
2920
3920
EFE0
2920
2920
2920
EFE0
0000
ENDCHAR
STARTCHAR 916C
ENCODING 37228
SWIDTH 1000 0
DWIDTH 12 0
BBX 12 12 -1 -2
BITMAP
FAA0
52A0
FAA0
AAA0
AAA0
DFE0
8AA0
FAA0
8AA0
FCA0
8820
0000
ENDCHAR
STARTCHAR 7574
ENCODING 30068
SWIDTH 1000 0
DWIDTH 12 0
BBX 12 12 -1 -2
BITMAP
0100
FFE0
A900
AFE0
F900
AFE0
AA40
AFE0
FA40
1140
00C0
0000
ENDCHAR
STARTCHAR 8E0C
ENCODING 36364
SWIDTH 1000 0
DWIDTH 12 0
BBX 12 12 -1 -2
BITMAP
F100
97E0
9100
F7E0
2100
AFE0
B240
A7E0
AA40
D140
00C0
0000
ENDCHAR
STARTCHAR 7A20
ENCODING 31264
SWIDTH 1000 0
DWIDTH 12 0
BBX 12 12 -1 -2
BITMAP
37E0
E520
27E0
FD20
27E0
6420
77A0
A6A0
2BA0
2820
30E0
0000
ENDCHAR
STARTCHAR 6101
ENCODING 24833
SWIDTH 1000 0
DWIDTH 12 0
BBX 12 12 -1 -2
BITMAP
1900
E100
2520
FD40
3280
6A40
A420
0440
52A0
50A0
9F80
0000
ENDCHAR
STARTCHAR 7B79
ENCODING 31609
SWIDTH 1000 0
DWIDTH 12 0
BBX 12 12 -1 -2
BITMAP
2100
7BE0
9480
7FC0
0800
3FC0
1080
FFE0
2880
C880
0380
0000
ENDCHAR
STARTCHAR 4EC7
ENCODING 20167
SWIDTH 1000 0
DWIDTH 12 0
BBX 12 12 -1 -2
BITMAP
2400
2400
4400
5F80
C480
4480
4480
4480
44A0
48A0
50E0
0000
ENDCHAR
STARTCHAR 7EF8
ENCODING 32504
SWIDTH 1000 0
DWIDTH 12 0
BBX 12 12 -1 -2
BITMAP
2FE0
4920
9BA0
E920
2FE0
4820
EBA0
0AA0
2BA0
D020
20E0
0000
ENDCHAR
STARTCHAR 7785
ENCODING 30597
SWIDTH 1000 0
DWIDTH 12 0
BBX 12 12 -1 -2
BITMAP
0680
EC80
A4A0
EEA0
A5C0
A480
EE80
B480
A540
E620
0420
0000
ENDCHAR
STARTCHAR 4E11
ENCODING 19985
SWIDTH 1000 0
DWIDTH 12 0
BBX 12 12 -1 -2
BITMAP
0080
7FC0
0880
0880
0880
7F80
1080
1080
1080
1080
FFE0
0000
ENDCHAR
STARTCHAR 81ED
ENCODING 33261
SWIDTH 1000 0
DWIDTH 12 0
BBX 12 12 -1 -2
BITMAP
0800
3F80
2080
3F80
2080
3F80
0500
FFE0
0A00
1100
E0E0
0000
ENDCHAR
STARTCHAR 521D
ENCODING 21021
SWIDTH 1000 0
DWIDTH 12 0
BBX 12 12 -1 -2
BITMAP
2000
27E0
F120
1120
2920
7120
AA20
2220
2220
2440
29C0
0000
ENDCHAR
STARTCHAR 51FA
ENCODING 20986
SWIDTH 1000 0
DWIDTH 12 0
BBX 12 12 -1 -2
BITMAP
0400
4440
4440
4440
7FC0
0400
4440
4440
4440
4440
7FC0
0000
ENDCHAR
STARTCHAR 6A71
ENCODING 27249
SWIDTH 1000 0
DWIDTH 12 0
BBX 12 12 -1 -2
BITMAP
4FE0
4800
EFA0
4820
6F60
CD20
CFA0
4860
5520
53A0
6C60
0000
ENDCHAR
STARTCHAR 53A8
ENCODING 21416
SWIDTH 1000 0
DWIDTH 12 0
BBX 12 12 -1 -2
BITMAP
7FE0
4040
7E40
4040
7DE0
6440
7D40
40C0
5440
8E40
B1C0
0000
ENDCHAR
STARTCHAR 8E87
ENCODING 36487
SWIDTH 1000 0
DWIDTH 12 0
BBX 12 12 -1 -2
BITMAP
F280
9FE0
9280
F7C0
2140
AFE0
B3C0
A640
ABC0
F240
83C0
0000
ENDCHAR
STARTCHAR 9504
ENCODING 38148
SWIDTH 1000 0
DWIDTH 12 0
BBX 12 12 -1 -2
BITMAP
4E80
4A80
6A80
8FE0
EAA0
4AA0
EEA0
4AA0
4AA0
6F20
52C0
0000
ENDCHAR
STARTCHAR 96CF
ENCODING 38607
SWIDTH 1000 0
DWIDTH 12 0
BBX 12 12 -1 -2
BITMAP
4280
4280
77E0
AC80
F7E0
1480
1480
F7E0
1480
1480
F7E0
0000
ENDCHAR
STARTCHAR 6EC1
ENCODING 28353
SWIDTH 1000 0
DWIDTH 12 0
BBX 12 12 -1 -2
BITMAP
9C80
5540
1620
9BE0
5480
1480
57E0
5C80
D2C0
54A0
59A0
0000
ENDCHAR
STARTCHAR 9664
ENCODING 38500
SWIDTH 1000 0
DWIDTH 12 0
BBX 12 12 -1 -2
BITMAP
F100
9280
A440
A820
A7C0
9100
9FE0
F100
8540
8920
9320
0000
ENDCHAR
STARTCHAR 695A
ENCODING 26970
SWIDTH 1000 0
DWIDTH 12 0
BBX 12 12 -1 -2
BITMAP
1100
FFE0
1180
3B40
5520
8000
7FC0
1440
2780
5400
8FE0
0000
ENDCHAR
STARTCHAR 7840
ENCODING 30784
SWIDTH 1000 0
DWIDTH 12 0
BBX 12 12 -1 -2
BITMAP
0080
F4A0
24A0
44A0
77E0
D080
54A0
54A0
74A0
54A0
07E0
0000
ENDCHAR
STARTCHAR 50A8
ENCODING 20648
SWIDTH 1000 0
DWIDTH 12 0
BBX 12 12 -1 -2
BITMAP
2100
3120
57C0
4140
F7E0
5100
53C0
5640
53C0
5A40
43C0
0000
ENDCHAR
STARTCHAR 77D7
ENCODING 30679
SWIDTH 1000 0
DWIDTH 12 0
BBX 12 12 -1 -2
BITMAP
0400
7FC0
1080
1F80
1080
FFE0
2080
7BC0
4A40
5AC0
FFE0
0000
ENDCHAR
STARTCHAR 6410
ENCODING 25616
SWIDTH 1000 0
DWIDTH 12 0
BBX 12 12 -1 -2
BITMAP
2100
2FE0
F240
2680
3140
6640
AFE0
2920
2FE0
2920
EFE0
0000
ENDCHAR
STARTCHAR 89E6
ENCODING 35302
SWIDTH 1000 0
DWIDTH 12 0
BBX 12 12 -1 -2
BITMAP
4080
7080
9080
FBE0
AAA0
FAA0
AAA0
FBE0
A880
A8E0
BBA0
0000
ENDCHAR
STARTCHAR 5904
ENCODING 22788
SWIDTH 1000 0
DWIDTH 12 0
BBX 12 12 -1 -2
BITMAP
2100
2100
3D00
2580
4540
4920
A900
1100
1100
2D00
C3E0
0000
ENDCHAR
STARTCHAR 63E3
ENCODING 25571
SWIDTH 1000 0
DWIDTH 12 0
BBX 12 12 -1 -2
BITMAP
2920
2920
FFE0
2000
2FE0
3100
EFE0
2AA0
2AA0
2AA0
E860
0000
ENDCHAR
STARTCHAR 5DDD
ENCODING 24029
SWIDTH 1000 0
DWIDTH 12 0
BBX 12 12 -1 -2
BITMAP
2040
2240
2240
2240
2240
2240
2240
2240
4240
4040
8040
0000
ENDCHAR
STARTCHAR 7A7F
ENCODING 31359
SWIDTH 1000 0
DWIDTH 12 0
BBX 12 12 -1 -2
BITMAP
0400
7FE0
D0A0
2040
7F80
2200
3FC0
0600
0A00
3200
C600
0000
ENDCHAR
STARTCHAR 693D
ENCODING 26941
SWIDTH 1000 0
DWIDTH 12 0
BBX 12 12 -1 -2
BITMAP
23C0
2440
F780
2080
6FE0
7520
AB40
A580
2AC0
24A0
2B00
0000
ENDCHAR
STARTCHAR 4F20
ENCODING 20256
SWIDTH 1000 0
DWIDTH 12 0
BBX 12 12 -1 -2
BITMAP
1100
1100
2FE0
2200
6200
BFE0
2400
27C0
2080
2700
20C0
0000
ENDCHAR
STARTCHAR 8239
ENCODING 33337
SWIDTH 1000 0
DWIDTH 12 0
BBX 12 12 -1 -2
BITMAP
23C0
7A40
4A40
6A40
4A60
FC00
4BE0
6A20
4A20
8A20
9BE0
0000
ENDCHAR
STARTCHAR 5598
ENCODING 21912
SWIDTH 1000 0
DWIDTH 12 0
BBX 12 12 -1 -2
BITMAP
0940
E940
AFC0
A000
BFE0
A200
EFE0
AAA0
0AA0
0AA0
0860
0000
ENDCHAR
STARTCHAR 4E32
ENCODING 20018
SWIDTH 1000 0
DWIDTH 12 0
BBX 12 12 -1 -2
BITMAP
0400
7FC0
4440
7FC0
0400
7FC0
4440
4440
7FC0
0400
0400
0000
ENDCHAR
STARTCHAR 75AE
ENCODING 30126
SWIDTH 1000 0
DWIDTH 12 0
BBX 12 12 -1 -2
BITMAP
0200
3FE0
A200
6500
2880
77E0
A480
2480
45A0
4420
87E0
0000
ENDCHAR
STARTCHAR 7A97
ENCODING 31383
SWIDTH 1000 0
DWIDTH 12 0
BBX 12 12 -1 -2
BITMAP
0400
7FE0
D0A0
2440
7FE0
2440
2F40
3940
2640
2940
3FC0
0000
ENDCHAR
STARTCHAR 5E62
ENCODING 24162
SWIDTH 1000 0
DWIDTH 12 0
BBX 12 12 -1 -2
BITMAP
2100
2FE0
F280
BFE0
B7C0
B540
B7C0
B540
2FE0
2100
3FE0
0000
ENDCHAR
STARTCHAR 5E8A
ENCODING 24202
SWIDTH 1000 0
DWIDTH 12 0
BBX 12 12 -1 -2
BITMAP
0200
7FE0
4000
4200
7FE0
4200
4700
4A80
5240
A220
8200
0000
ENDCHAR
STARTCHAR 95EF
ENCODING 38383
SWIDTH 1000 0
DWIDTH 12 0
BBX 12 12 -1 -2
BITMAP
2FE0
1020
5F20
4120
4920
4FA0
40A0
7EA0
40A0
4320
40E0
0000
ENDCHAR
STARTCHAR 521B
ENCODING 21019
SWIDTH 1000 0
DWIDTH 12 0
BBX 12 12 -1 -2
BITMAP
1020
2820
2520
4120
F920
4920
4920
5920
4220
4220
7EE0
0000
ENDCHAR
STARTCHAR 5439
ENCODING 21561
SWIDTH 1000 0
DWIDTH 12 0
BBX 12 12 -1 -2
BITMAP
0200
F200
97E0
9420
9940
9100
9100
F280
0280
0440
1820
0000
ENDCHAR
STARTCHAR 708A
ENCODING 28810
SWIDTH 1000 0
DWIDTH 12 0
BBX 12 12 -1 -2
BITMAP
2200
2200
2BE0
B420
A540
A900
2100
3280
4A80
4440
8820
0000
ENDCHAR
STARTCHAR 6376
ENCODING 25462
SWIDTH 1000 0
DWIDTH 12 0
BBX 12 12 -1 -2
BITMAP
21C0
2F00
F100
2FE0
3540
6FE0
A540
2540
2FE0
2100
EFE0
0000
ENDCHAR
STARTCHAR 9524
ENCODING 38180
SWIDTH 1000 0
DWIDTH 12 0
BBX 12 12 -1 -2
BITMAP
41C0
4F00
7100
8FE0
F540
4FE0
F540
4540
5FE0
6100
4FE0
0000
ENDCHAR
STARTCHAR 5782
ENCODING 22402
SWIDTH 1000 0
DWIDTH 12 0
BBX 12 12 -1 -2
BITMAP
0780
3C00
0400
7FC0
1480
FFE0
1480
1480
7FE0
0400
7FC0
0000
ENDCHAR
STARTCHAR 6625
ENCODING 26149
SWIDTH 1000 0
DWIDTH 12 0
BBX 12 12 -1 -2
BITMAP
0400
FFE0
0800
7FC0
1000
FFE0
5140
9D20
1700
1100
1F00
0000
ENDCHAR
STARTCHAR 693F
ENCODING 26943
SWIDTH 1000 0
DWIDTH 12 0
BBX 12 12 -1 -2
BITMAP
4200
4FE0
4200
EFC0
4400
5FE0
ECC0
D6A0
4580
4480
4780
0000
ENDCHAR
STARTCHAR 9187
ENCODING 37255
SWIDTH 1000 0
DWIDTH 12 0
BBX 12 12 -1 -2
BITMAP
F900
57E0
F800
ABC0
AA40
DBC0
8880
FFE0
8880
F880
8B80
0000
ENDCHAR
STARTCHAR 5507
ENCODING 21767
SWIDTH 1000 0
DWIDTH 12 0
BBX 12 12 -1 -2
BITMAP
7FE0
4000
5FC0
4000
7FE0
5280
5DE0
4000
5FC0
9040
9FC0
0000
ENDCHAR
STARTCHAR 6DF3
ENCODING 28147
SWIDTH 1000 0
DWIDTH 12 0
BBX 12 12 -1 -2
BITMAP
8200
5FE0
4000
0FC0
A840
AFC0
4100
4200
DFE0
4200
4E00
0000
ENDCHAR
STARTCHAR 7EAF
ENCODING 32431
SWIDTH 1000 0
DWIDTH 12 0
BBX 12 12 -1 -2
BITMAP
2100
2FE0
4100
A940
E940
4940
8FC0
E100
0120
3120
C1E0
0000
ENDCHAR
STARTCHAR 8822
ENCODING 34850
SWIDTH 1000 0
DWIDTH 12 0
BBX 12 12 -1 -2
BITMAP
0400
7FC0
0800
FFE0
5F40
9120
1F00
2080
FBE0
AAA0
FFE0
0000
ENDCHAR
STARTCHAR 6233
ENCODING 25139
SWIDTH 1000 0
DWIDTH 12 0
BBX 12 12 -1 -2
BITMAP
FC80
24A0
6CA0
B4E0
2780
50A0
FCA0
50C0
7CA0
5160
7E20
0000
ENDCHAR
STARTCHAR 7EF0
ENCODING 32496
SWIDTH 1000 0
DWIDTH 12 0
BBX 12 12 -1 -2
BITMAP
2100
21E0
4100
97C0
E440
47C0
B440
C7C0
0100
2FE0
C100
0000
ENDCHAR
STARTCHAR 75B5
ENCODING 30133
SWIDTH 1000 0
DWIDTH 12 0
BBX 12 12 -1 -2
BITMAP
0200
3FE0
A500
6500
2520
6740
B580
3500
5720
5D20
91E0
0000
ENDCHAR
STARTCHAR 8328
ENCODING 33576
SWIDTH 1000 0
DWIDTH 12 0
BBX 12 12 -1 -2
BITMAP
1100
FFE0
1100
8400
47E0
2440
2A80
4200
C500
4880
7060
0000
ENDCHAR
STARTCHAR 78C1
ENCODING 30913
SWIDTH 1000 0
DWIDTH 12 0
BBX 12 12 -1 -2
BITMAP
0440
F280
4FE0
4440
7440
DAA0
5EE0
5440
5440
7AA0
4EE0
0000
ENDCHAR
STARTCHAR 96CC
ENCODING 38604
SWIDTH 1000 0
DWIDTH 12 0
BBX 12 12 -1 -2
BITMAP
2A80
2BE0
2A80
BE80
ABE0
AA80
AA80
ABE0
BE80
CA80
03E0
0000
ENDCHAR
STARTCHAR 8F9E
ENCODING 36766
SWIDTH 1000 0
DWIDTH 12 0
BBX 12 12 -1 -2
BITMAP
1900
E7E0
2440
FA40
2280
27E0
F900
8FE0
8900
F900
8900
0000
ENDCHAR
STARTCHAR 6148
ENCODING 24904
SWIDTH 1000 0
DWIDTH 12 0
BBX 12 12 -1 -2
BITMAP
0900
FFE0
1100
2A40
7380
2940
7BE0
0000
54C0
52A0
9FA0
0000
ENDCHAR
STARTCHAR 74F7
ENCODING 29943
SWIDTH 1000 0
DWIDTH 12 0
BBX 12 12 -1 -2
BITMAP
4400
27C0
2940
C280
4C40
FFE0
1000
1F00
2520
2D20
71E0
0000
ENDCHAR
STARTCHAR 8BCD
ENCODING 35789
SWIDTH 1000 0
DWIDTH 12 0
BBX 12 12 -1 -2
BITMAP
4FE0
2020
0020
1FA0
C020
4F20
4920
4920
5F20
6020
00E0
0000
ENDCHAR
STARTCHAR 6B64
ENCODING 27492
SWIDTH 1000 0
DWIDTH 12 0
BBX 12 12 -1 -2
BITMAP
1100
1100
1120
5140
5D80
5100
5100
5100
5D20
7120
C1E0
0000
ENDCHAR
STARTCHAR 523A
ENCODING 21050
SWIDTH 1000 0
DWIDTH 12 0
BBX 12 12 -1 -2
BITMAP
1020
FEA0
10A0
7EA0
52A0
52A0
56A0
38A0
54A0
9220
10E0
0000
ENDCHAR
STARTCHAR 8D50
ENCODING 36176
SWIDTH 1000 0
DWIDTH 12 0
BBX 12 12 -1 -2
BITMAP
F7C0
9440
B7C0
B440
B7C0
B200
B7E0
2AA0
5520
5220
8DC0
0000
ENDCHAR
STARTCHAR 6B21
ENCODING 27425
SWIDTH 1000 0
DWIDTH 12 0
BBX 12 12 -1 -2
BITMAP
8200
4200
27E0
0420
2A40
2200
4200
C300
4480
4840
5020
0000
ENDCHAR
STARTCHAR 806A
ENCODING 32874
SWIDTH 1000 0
DWIDTH 12 0
BBX 12 12 -1 -2
BITMAP
FC40
5280
57C0
7440
5440
77C0
5100
52A0
76A0
DA40
13C0
0000
ENDCHAR
STARTCHAR 8471
ENCODING 33905
SWIDTH 1000 0
DWIDTH 12 0
BBX 12 12 -1 -2
BITMAP
1100
FFE0
2100
3FC0
4A40
9F40
6440
0980
5440
92A0
1F80
0000
ENDCHAR
STARTCHAR 56F1
ENCODING 22257
SWIDTH 1000 0
DWIDTH 12 0
BBX 12 12 -1 -2
BITMAP
0400
7FE0
4420
4720
4920
5520
4220
4520
48A0
5020
7FE0
0000
ENDCHAR
STARTCHAR 5306
ENCODING 21254
SWIDTH 1000 0
DWIDTH 12 0
BBX 12 12 -1 -2
BITMAP
1000
1000
3FC0
2540
5540
8D40
1240
2540
4840
1040
6180
0000
ENDCHAR
STARTCHAR 4ECE
ENCODING 20174
SWIDTH 1000 0
DWIDTH 12 0
BBX 12 12 -1 -2
BITMAP
1100
1100
1100
1100
1100
1100
2A80
2A80
4440
4840
9020
0000
ENDCHAR
STARTCHAR 4E1B
ENCODING 19995
SWIDTH 1000 0
DWIDTH 12 0
BBX 12 12 -1 -2
BITMAP
1100
1100
1100
1100
1100
1900
2680
2280
4440
8820
FFE0
0000
ENDCHAR
STARTCHAR 51D1
ENCODING 20945
SWIDTH 1000 0
DWIDTH 12 0
BBX 12 12 -1 -2
BITMAP
8200
5FE0
4200
0FC0
4400
5FE0
9740
A220
9FC0
8480
1840
0000
ENDCHAR
STARTCHAR 7C97
ENCODING 31895
SWIDTH 1000 0
DWIDTH 12 0
BBX 12 12 -1 -2
BITMAP
27C0
AC40
7440
2440
FFC0
2440
7440
A7C0
A440
2440
2FE0
0000
ENDCHAR
STARTCHAR 918B
ENCODING 37259
SWIDTH 1000 0
DWIDTH 12 0
BBX 12 12 -1 -2
BITMAP
FA40
57E0
FA40
AA40
AFE0
D800
8BC0
FA40
8BC0
FA40
8BC0
0000
ENDCHAR
STARTCHAR 7C07
ENCODING 31751
SWIDTH 1000 0
DWIDTH 12 0
BBX 12 12 -1 -2
BITMAP
2100
7BE0
9480
23E0
F500
43E0
7280
57E0
5180
9240
AC20
0000
ENDCHAR
STARTCHAR 4FC3
ENCODING 20419
SWIDTH 1000 0
DWIDTH 12 0
BBX 12 12 -1 -2
BITMAP
2FC0
2840
4840
4840
CFC0
4100
49E0
4900
4900
5500
63E0
0000
ENDCHAR
STARTCHAR 8E7F
ENCODING 36479
SWIDTH 1000 0
DWIDTH 12 0
BBX 12 12 -1 -2
BITMAP
F100
9FE0
9AA0
F7C0
2540
A7C0
B900
A7E0
BD20
E7E0
8100
0000
ENDCHAR
STARTCHAR 7BE1
ENCODING 31713
SWIDTH 1000 0
DWIDTH 12 0
BBX 12 12 -1 -2
BITMAP
2100
7BE0
9480
3F80
2080
3F80
2080
FFE0
2880
D160
3F80
0000
ENDCHAR
STARTCHAR 7A9C
ENCODING 31388
SWIDTH 1000 0
DWIDTH 12 0
BBX 12 12 -1 -2
BITMAP
0400
FFE0
94A0
7FC0
A4A0
3F80
0400
7FC0
4440
7FC0
0400
0000
ENDCHAR
STARTCHAR 6467
ENCODING 25703
SWIDTH 1000 0
DWIDTH 12 0
BBX 12 12 -1 -2
BITMAP
2920
2920
FFE0
2500
37E0
6900
BFC0
2900
2FC0
2900
EFE0
0000
ENDCHAR
STARTCHAR 5D14
ENCODING 23828
SWIDTH 1000 0
DWIDTH 12 0
BBX 12 12 -1 -2
BITMAP
2440
2440
3FC0
1200
3FE0
6200
BFC0
2200
3FC0
2200
3FE0
0000
ENDCHAR
STARTCHAR 50AC
ENCODING 20652
SWIDTH 1000 0
DWIDTH 12 0
BBX 12 12 -1 -2
BITMAP
2920
2920
2FE0
4500
4FE0
C900
5FC0
6900
4FC0
4900
4FE0
0000
ENDCHAR
STARTCHAR 8106
ENCODING 33030
SWIDTH 1000 0
DWIDTH 12 0
BBX 12 12 -1 -2
BITMAP
7200
53C0
5480
7FE0
5400
55C0
7540
5540
55C0
9920
B1E0
0000
ENDCHAR
STARTCHAR 7601
ENCODING 30209
SWIDTH 1000 0
DWIDTH 12 0
BBX 12 12 -1 -2
BITMAP
0200
3FE0
A100
7FE0
2480
6480
AB40
2100
5FE0
4100
8100
0000
ENDCHAR
STARTCHAR 7CB9
ENCODING 31929
SWIDTH 1000 0
DWIDTH 12 0
BBX 12 12 -1 -2
BITMAP
2100
2FE0
B240
6240
F5A0
2920
7100
AFE0
A100
2100
2100
0000
ENDCHAR
STARTCHAR 6DEC
ENCODING 28140
SWIDTH 1000 0
DWIDTH 12 0
BBX 12 12 -1 -2
BITMAP
4100
2FE0
2480
8480
4AC0
1120
4100
5FE0
C100
4100
4100
0000
ENDCHAR
STARTCHAR 7FE0
ENCODING 32736
SWIDTH 1000 0
DWIDTH 12 0
BBX 12 12 -1 -2
BITMAP
FBC0
2940
18C0
2940
7FC0
1100
2A80
4440
FFE0
0400
0400
0000
ENDCHAR
STARTCHAR 6751
ENCODING 26449
SWIDTH 1000 0
DWIDTH 12 0
BBX 12 12 -1 -2
BITMAP
2040
2040
FBE0
2040
2440
7240
6A40
A040
2040
2040
21C0
0000
ENDCHAR
STARTCHAR 5B58
ENCODING 23384
SWIDTH 1000 0
DWIDTH 12 0
BBX 12 12 -1 -2
BITMAP
0800
FFE0
0800
1FC0
2080
2100
6FE0
A100
2100
2100
2700
0000
ENDCHAR
STARTCHAR 5BF8
ENCODING 23544
SWIDTH 1000 0
DWIDTH 12 0
BBX 12 12 -1 -2
BITMAP
0100
0100
0100
FFE0
0100
2100
1100
1100
0100
0100
0700
0000
ENDCHAR
STARTCHAR 78CB
ENCODING 30923
SWIDTH 1000 0
DWIDTH 12 0
BBX 12 12 -1 -2
BITMAP
0440
F280
47E0
4100
77E0
D100
57E0
5200
77E0
4880
17E0
0000
ENDCHAR
STARTCHAR 64AE
ENCODING 25774
SWIDTH 1000 0
DWIDTH 12 0
BBX 12 12 -1 -2
BITMAP
47C0
4440
F7C0
4440
5FE0
4A00
6FE0
CAA0
4F40
5AA0
C320
0000
ENDCHAR
STARTCHAR 6413
ENCODING 25619
SWIDTH 1000 0
DWIDTH 12 0
BBX 12 12 -1 -2
BITMAP
2440
2280
FFE0
2200
27C0
3200
EFE0
2400
2FC0
3100
EFE0
0000
ENDCHAR
STARTCHAR 63AA
ENCODING 25514
SWIDTH 1000 0
DWIDTH 12 0
BBX 12 12 -1 -2
BITMAP
2280
2280
FFE0
2280
3FE0
6000
A7C0
2440
27C0
2440
E7C0
0000
ENDCHAR
STARTCHAR 632B
ENCODING 25387
SWIDTH 1000 0
DWIDTH 12 0
BBX 12 12 -1 -2
BITMAP
2100
2540
F540
2540
2BA0
3920
E100
2FE0
2100
2100
FFE0
0000
ENDCHAR
STARTCHAR 9519
ENCODING 38169
SWIDTH 1000 0
DWIDTH 12 0
BBX 12 12 -1 -2
BITMAP
4280
4280
6FE0
8280
EFE0
4000
F7C0
4440
57C0
6440
47C0
0000
ENDCHAR
STARTCHAR 642D
ENCODING 25645
SWIDTH 1000 0
DWIDTH 12 0
BBX 12 12 -1 -2
BITMAP
2480
2FE0
F480
2300
3480
6840
B7A0
2000
27C0
2440
E7C0
0000
ENDCHAR
STARTCHAR 8FBE
ENCODING 36798
SWIDTH 1000 0
DWIDTH 12 0
BBX 12 12 -1 -2
BITMAP
4200
2200
2200
1FE0
C200
4200
4500
48C0
5040
A000
9FE0
0000
ENDCHAR
STARTCHAR 7B54
ENCODING 31572
SWIDTH 1000 0
DWIDTH 12 0
BBX 12 12 -1 -2
BITMAP
2100
3FE0
5280
8C40
1200
3F80
C060
3F80
2080
2080
3F80
0000
ENDCHAR
STARTCHAR 7629
ENCODING 30249
SWIDTH 1000 0
DWIDTH 12 0
BBX 12 12 -1 -2
BITMAP
0200
3FE0
A480
7FE0
2280
6500
AFC0
3020
4FC0
4840
8FC0
0000
ENDCHAR
STARTCHAR 6253
ENCODING 25171
SWIDTH 1000 0
DWIDTH 12 0
BBX 12 12 -1 -2
BITMAP
2000
27E0
F880
2080
2080
3880
E080
2080
2080
2080
E380
0000
ENDCHAR
STARTCHAR 5927
ENCODING 22823
SWIDTH 1000 0
DWIDTH 12 0
BBX 12 12 -1 -2
BITMAP
0400
0400
0440
FFE0
0400
0400
0A00
0A00
1100
2080
C060
0000
ENDCHAR
STARTCHAR 5446
ENCODING 21574
SWIDTH 1000 0
DWIDTH 12 0
BBX 12 12 -1 -2
BITMAP
3F80
2080
2080
3F80
0400
FFE0
0E00
1500
2480
4460
8400
0000
ENDCHAR
STARTCHAR 6B79
ENCODING 27513
SWIDTH 1000 0
DWIDTH 12 0
BBX 12 12 -1 -2
BITMAP
0040
FFE0
0800
0FC0
1040
1880
2480
4100
0200
0C00
F000
0000
ENDCHAR
STARTCHAR 50A3
ENCODING 20643
SWIDTH 1000 0
DWIDTH 12 0
BBX 12 12 -1 -2
BITMAP
2200
3FE0
4200
5FC0
C400
5FE0
4A40
7AA0
4700
4A80
5640
0000
ENDCHAR
STARTCHAR 6234
ENCODING 25140
SWIDTH 1000 0
DWIDTH 12 0
BBX 12 12 -1 -2
BITMAP
7D40
1140
FFE0
5500
7D40
5540
7D40
2880
FEA0
2960
C620
0000
ENDCHAR
STARTCHAR 5E26
ENCODING 24102
SWIDTH 1000 0
DWIDTH 12 0
BBX 12 12 -1 -2
BITMAP
1480
FFE0
1480
1480
FFE0
8420
3F80
2480
2480
2580
0400
0000
ENDCHAR
STARTCHAR 6B86
ENCODING 27526
SWIDTH 1000 0
DWIDTH 12 0
BBX 12 12 -1 -2
BITMAP
0100
F900
2240
3A20
4FE0
4800
B3E0
1220
2220
4220
83E0
0000
ENDCHAR
STARTCHAR 4EE3
ENCODING 20195
SWIDTH 1000 0
DWIDTH 12 0
BBX 12 12 -1 -2
BITMAP
1280
1240
2240
23E0
7E00
A200
2200
2100
2120
20A0
2060
0000
ENDCHAR
STARTCHAR 8D37
ENCODING 36151
SWIDTH 1000 0
DWIDTH 12 0
BBX 12 12 -1 -2
BITMAP
1280
23E0
6E00
A120
20E0
3F80
2480
2480
2480
0B00
F0C0
0000
ENDCHAR
STARTCHAR 888B
ENCODING 34955
SWIDTH 1000 0
DWIDTH 12 0
BBX 12 12 -1 -2
BITMAP
1280
22E0
6F00
A220
29E0
2400
FFE0
1440
3280
D500
18E0
0000
ENDCHAR
STARTCHAR 5F85
ENCODING 24453
SWIDTH 1000 0
DWIDTH 12 0
BBX 12 12 -1 -2
BITMAP
2200
2FC0
4200
9200
2FE0
6080
BFE0
2480
2280
2080
2380
0000
ENDCHAR
STARTCHAR 902E
ENCODING 36910
SWIDTH 1000 0
DWIDTH 12 0
BBX 12 12 -1 -2
BITMAP
8200
4FC0
4240
1FE0
C240
5FC0
4A80
4700
5AC0
6600
9FE0
0000
ENDCHAR
STARTCHAR 6020
ENCODING 24608
SWIDTH 1000 0
DWIDTH 12 0
BBX 12 12 -1 -2
BITMAP
0900
1080
7FC0
0040
3F80
2080
3F80
0400
5240
90A0
1F80
0000
ENDCHAR
STARTCHAR 803D
ENCODING 32829
SWIDTH 1000 0
DWIDTH 12 0
BBX 12 12 -1 -2
BITMAP
F900
5100
57E0
7520
5100
7180
5180
5A80
72A0
94A0
18E0
0000
ENDCHAR
STARTCHAR 62C5
ENCODING 25285
SWIDTH 1000 0
DWIDTH 12 0
BBX 12 12 -1 -2
BITMAP
2000
27C0
FC40
2440
27C0
3440
E440
27C0
2440
2000
EFE0
0000
ENDCHAR
STARTCHAR 4E39
ENCODING 20025
SWIDTH 1000 0
DWIDTH 12 0
BBX 12 12 -1 -2
BITMAP
3F80
2080
2880
2480
2480
FFE0
2080
2080
2080
4080
8380
0000
ENDCHAR
STARTCHAR 5355
ENCODING 21333
SWIDTH 1000 0
DWIDTH 12 0
BBX 12 12 -1 -2
BITMAP
1100
0A00
3FC0
2440
3FC0
2440
3FC0
0400
FFE0
0400
0400
0000
ENDCHAR
STARTCHAR 90F8
ENCODING 37112
SWIDTH 1000 0
DWIDTH 12 0
BBX 12 12 -1 -2
BITMAP
4400
29E0
7D20
5540
7D40
5520
7D20
1120
FFE0
1100
1100
0000
ENDCHAR
STARTCHAR 63B8
ENCODING 25528
SWIDTH 1000 0
DWIDTH 12 0
BBX 12 12 -1 -2
BITMAP
2440
2280
FFC0
2940
2FC0
3940
EFC0
2100
3FE0
2100
E100
0000
ENDCHAR
STARTCHAR 80C6
ENCODING 32966
SWIDTH 1000 0
DWIDTH 12 0
BBX 12 12 -1 -2
BITMAP
7000
57C0
5440
7440
57C0
5440
7440
57C0
5440
9000
BFE0
0000
ENDCHAR
STARTCHAR 65E6
ENCODING 26086
SWIDTH 1000 0
DWIDTH 12 0
BBX 12 12 -1 -2
BITMAP
0000
3F80
2080
2080
3F80
2080
2080
3F80
0000
0000
FFE0
0000
ENDCHAR
STARTCHAR 6C2E
ENCODING 27694
SWIDTH 1000 0
DWIDTH 12 0
BBX 12 12 -1 -2
BITMAP
2000
7FE0
8000
7F80
2A80
4C80
1280
6880
2AA0
5460
6320
0000
ENDCHAR
STARTCHAR 4F46
ENCODING 20294
SWIDTH 1000 0
DWIDTH 12 0
BBX 12 12 -1 -2
BITMAP
2000
2FC0
4840
4840
CFC0
4840
4840
4FC0
4840
4000
5FE0
0000
ENDCHAR
STARTCHAR 60EE
ENCODING 24814
SWIDTH 1000 0
DWIDTH 12 0
BBX 12 12 -1 -2
BITMAP
2440
2280
2FE0
B920
AFE0
A920
2FE0
2100
3FE0
2100
2100
0000
ENDCHAR
STARTCHAR 6DE1
ENCODING 28129
SWIDTH 1000 0
DWIDTH 12 0
BBX 12 12 -1 -2
BITMAP
4100
2540
2540
8A80
4440
2920
4540
4580
CB00
4480
5860
0000
ENDCHAR
STARTCHAR 8BDE
ENCODING 35806
SWIDTH 1000 0
DWIDTH 12 0
BBX 12 12 -1 -2
BITMAP
8060
5B80
0880
1280
DAE0
4A80
4A80
5A80
6BE0
5400
23E0
0000
ENDCHAR
STARTCHAR 5F39
ENCODING 24377
SWIDTH 1000 0
DWIDTH 12 0
BBX 12 12 -1 -2
BITMAP
0440
E280
2FC0
2940
EFC0
8940
EFC0
2100
3FE0
2100
C100
0000
ENDCHAR
STARTCHAR 86CB
ENCODING 34507
SWIDTH 1000 0
DWIDTH 12 0
BBX 12 12 -1 -2
BITMAP
7FE0
2420
27C0
5C00
87E0
0400
3FC0
2440
3FC0
0480
FFE0
0000
ENDCHAR
STARTCHAR 5F53
ENCODING 24403
SWIDTH 1000 0
DWIDTH 12 0
BBX 12 12 -1 -2
BITMAP
0400
4440
2480
0500
FFC0
0040
0040
7FC0
0040
0040
FFC0
0000
ENDCHAR
STARTCHAR 6321
ENCODING 25377
SWIDTH 1000 0
DWIDTH 12 0
BBX 12 12 -1 -2
BITMAP
2100
2940
F540
2580
2FE0
3020
6020
AFE0
2020
2020
EFE0
0000
ENDCHAR
STARTCHAR 515A
ENCODING 20826
SWIDTH 1000 0
DWIDTH 12 0
BBX 12 12 -1 -2
BITMAP
2480
1500
7FE0
4020
9FC0
1080
1080
1F80
0A20
1220
E3E0
0000
ENDCHAR
STARTCHAR 8361
ENCODING 33633
SWIDTH 1000 0
DWIDTH 12 0
BBX 12 12 -1 -2
BITMAP
0900
FFE0
4900
2F80
8100
5600
2FE0
24A0
C920
5240
4DC0
0000
ENDCHAR
STARTCHAR 6863
ENCODING 26723
SWIDTH 1000 0
DWIDTH 12 0
BBX 12 12 -1 -2
BITMAP
2100
2920
F540
2580
2FE0
7020
A020
AFE0
2020
2020
2FE0
0000
ENDCHAR
STARTCHAR 5200
ENCODING 20992
SWIDTH 1000 0
DWIDTH 12 0
BBX 12 12 -1 -2
BITMAP
0040
7FE0
0840
0840
0840
0840
0840
1040
1040
2640
C180
0000
ENDCHAR
STARTCHAR 6363
ENCODING 25443
SWIDTH 1000 0
DWIDTH 12 0
BBX 12 12 -1 -2
BITMAP
2200
27C0
F440
25C0
2400
37E0
E020
2AA0
2AA0
2FA0
E0C0
0000
ENDCHAR
STARTCHAR 8E48
ENCODING 36424
SWIDTH 1000 0
DWIDTH 12 0
BBX 12 12 -1 -2
BITMAP
F0E0
9F00
9520
F540
2080
2760
BC20
A760
A420
BC20
C7E0
0000
ENDCHAR
STARTCHAR 5012
ENCODING 20498
SWIDTH 1000 0
DWIDTH 12 0
BBX 12 12 -1 -2
BITMAP
2020
3F20
48A0
52A0
DFA0
44A0
44A0
5FA0
44A0
4720
58E0
0000
ENDCHAR
STARTCHAR 5C9B
ENCODING 23707
SWIDTH 1000 0
DWIDTH 12 0
BBX 12 12 -1 -2
BITMAP
0800
3F80
2880
2480
2300
3FE0
0020
4920
4920
7F20
00C0
0000
ENDCHAR
STARTCHAR 7977
ENCODING 31095
SWIDTH 1000 0
DWIDTH 12 0
BBX 12 12 -1 -2
BITMAP
4100
2FE0
F100
17C0
2200
7FE0
A440
2FE0
3240
2140
20C0
0000
ENDCHAR
STARTCHAR 5BFC
ENCODING 23548
SWIDTH 1000 0
DWIDTH 12 0
BBX 12 12 -1 -2
BITMAP
3F80
2080
3F80
2020
2020
1FC0
0100
FFE0
1100
0900
0700
0000
ENDCHAR
STARTCHAR 5230
ENCODING 21040
SWIDTH 1000 0
DWIDTH 12 0
BBX 12 12 -1 -2
BITMAP
FE20
1020
2920
4520
FF20
1120
1120
FD20
1120
1E20
E0E0
0000
ENDCHAR
STARTCHAR 7A3B
ENCODING 31291
SWIDTH 1000 0
DWIDTH 12 0
BBX 12 12 -1 -2
BITMAP
30E0
EF00
2520
F540
2000
76E0
6420
A6E0
A420
2420
27E0
0000
ENDCHAR
STARTCHAR 60BC
ENCODING 24764
SWIDTH 1000 0
DWIDTH 12 0
BBX 12 12 -1 -2
BITMAP
2100
21E0
2100
BFC0
A840
AFC0
2840
2FC0
2100
3FE0
2100
0000
ENDCHAR
STARTCHAR 9053
ENCODING 36947
SWIDTH 1000 0
DWIDTH 12 0
BBX 12 12 -1 -2
BITMAP
8840
4480
1FE0
0200
CFC0
4840
4FC0
4840
4FC0
A000
9FE0
0000
ENDCHAR
STARTCHAR 76D7
ENCODING 30423
SWIDTH 1000 0
DWIDTH 12 0
BBX 12 12 -1 -2
BITMAP
4400
27E0
0820
2240
C300
4480
0840
7F80
4A80
4A80
FFE0
0000
ENDCHAR
STARTCHAR 5FB7
ENCODING 24503
SWIDTH 1000 0
DWIDTH 12 0
BBX 12 12 -1 -2
BITMAP
2100
5FE0
8200
2FE0
4AA0
CFE0
4000
5FE0
4440
5560
57C0
0000
ENDCHAR
STARTCHAR 5F97
ENCODING 24471
SWIDTH 1000 0
DWIDTH 12 0
BBX 12 12 -1 -2
BITMAP
27C0
2440
57C0
9440
27C0
6000
AFE0
2080
2FE0
2480
2180
0000
ENDCHAR
STARTCHAR 7684
ENCODING 30340
SWIDTH 1000 0
DWIDTH 12 0
BBX 12 12 -1 -2
BITMAP
1100
2100
FBE0
8A20
8C20
8A20
F920
8920
8820
F820
89C0
0000
ENDCHAR
STARTCHAR 8E6C
ENCODING 36460
SWIDTH 1000 0
DWIDTH 12 0
BBX 12 12 -1 -2
BITMAP
F740
9280
9AA0
F7C0
2820
A7C0
B440
A440
B7C0
E280
9FE0
0000
ENDCHAR
STARTCHAR 706F
ENCODING 28783
SWIDTH 1000 0
DWIDTH 12 0
BBX 12 12 -1 -2
BITMAP
2040
2FE0
2100
B100
A100
A100
2100
2100
5100
4900
8700
0000
ENDCHAR
STARTCHAR 767B
ENCODING 30331
SWIDTH 1000 0
DWIDTH 12 0
BBX 12 12 -1 -2
BITMAP
7A80
4AA0
3140
1F80
2040
DFA0
1080
1F80
1080
0900
FFE0
0000
ENDCHAR
STARTCHAR 7B49
ENCODING 31561
SWIDTH 1000 0
DWIDTH 12 0
BBX 12 12 -1 -2
BITMAP
2100
7BE0
5480
BFC0
0400
FFE0
0080
7FE0
1080
0880
0380
0000
ENDCHAR
STARTCHAR 77AA
ENCODING 30634
SWIDTH 1000 0
DWIDTH 12 0
BBX 12 12 -1 -2
BITMAP
0F40
F280
AAA0
E440
ABA0
B000
E7C0
A440
A7C0
E480
1FE0
0000
ENDCHAR
STARTCHAR 51F3
ENCODING 20979
SWIDTH 1000 0
DWIDTH 12 0
BBX 12 12 -1 -2
BITMAP
7A80
0940
5080
3FC0
E0A0
3F80
1100
FFE0
1100
1120
E1E0
0000
ENDCHAR
STARTCHAR 9093
ENCODING 37011
SWIDTH 1000 0
DWIDTH 12 0
BBX 12 12 -1 -2
BITMAP
0BE0
FE20
0A40
4A80
2A80
1240
1220
2A20
46C0
8200
0200
0000
ENDCHAR
STARTCHAR 5824
ENCODING 22564
SWIDTH 1000 0
DWIDTH 12 0
BBX 12 12 -1 -2
BITMAP
27C0
2440
27C0
F440
27C0
2000
2FE0
3900
C9C0
1500
23E0
0000
ENDCHAR
STARTCHAR 4F4E
ENCODING 20302
SWIDTH 1000 0
DWIDTH 12 0
BBX 12 12 -1 -2
BITMAP
20C0
2F00
4900
4900
C940
4FE0
4900
4900
4AA0
4C60
4B20
0000
ENDCHAR
STARTCHAR 6EF4
ENCODING 28404
SWIDTH 1000 0
DWIDTH 12 0
BBX 12 12 -1 -2
BITMAP
8200
7FE0
4480
9FC0
5240
1FC0
5240
5740
D540
5740
50C0
0000
ENDCHAR
STARTCHAR 8FEA
ENCODING 36842
SWIDTH 1000 0
DWIDTH 12 0
BBX 12 12 -1 -2
BITMAP
4100
2100
2FC0
0940
C940
4FC0
4940
4940
4FC0
A000
1FE0
0000
ENDCHAR
STARTCHAR 654C
ENCODING 25932
SWIDTH 1000 0
DWIDTH 12 0
BBX 12 12 -1 -2
BITMAP
1900
E100
23E0
FA40
2640
2240
F940
8880
8980
FA40
0C20
0000
ENDCHAR
STARTCHAR 7B1B
ENCODING 31515
SWIDTH 1000 0
DWIDTH 12 0
BBX 12 12 -1 -2
BITMAP
2100
3DE0
5280
8C40
0400
7FC0
4440
7FC0
4440
4440
7FC0
0000
ENDCHAR
STARTCHAR 72C4
ENCODING 29380
SWIDTH 1000 0
DWIDTH 12 0
BBX 12 12 -1 -2
BITMAP
8900
5100
2100
5520
9540
3980
5100
9280
1280
1440
6820
0000
ENDCHAR
STARTCHAR 6DA4
ENCODING 28068
SWIDTH 1000 0
DWIDTH 12 0
BBX 12 12 -1 -2
BITMAP
4400
27C0
2C80
9300
4480
1A60
4200
5FC0
CA80
5240
6640
0000
ENDCHAR
STARTCHAR 7FDF
ENCODING 32735
SWIDTH 1000 0
DWIDTH 12 0
BBX 12 12 -1 -2
BITMAP
FBC0
2940
18C0
2B40
5840
2200
7FE0
A200
3FC0
2200
3FE0
0000
ENDCHAR
STARTCHAR 5AE1
ENCODING 23265
SWIDTH 1000 0
DWIDTH 12 0
BBX 12 12 -1 -2
BITMAP
4100
4FE0
F280
AFE0
A920
AFE0
A920
EBA0
2AA0
5BA0
8860
0000
ENDCHAR
STARTCHAR 62B5
ENCODING 25269
SWIDTH 1000 0
DWIDTH 12 0
BBX 12 12 -1 -2
BITMAP
20C0
2F00
F900
2900
2FE0
3900
E900
2880
2AA0
2D60
E920
0000
ENDCHAR
STARTCHAR 5E95
ENCODING 24213
SWIDTH 1000 0
DWIDTH 12 0
BBX 12 12 -1 -2
BITMAP
0400
7FE0
4000
5FC0
5200
5240
5FE0
5100
5520
98A0
9660
0000
ENDCHAR
STARTCHAR 5730
ENCODING 22320
SWIDTH 1000 0
DWIDTH 12 0
BBX 12 12 -1 -2
BITMAP
4100
4500
4540
45C0
F740
4D40
4540
45C0
7520
C420
07E0
0000
ENDCHAR
STARTCHAR 8482
ENCODING 33922
SWIDTH 1000 0
DWIDTH 12 0
BBX 12 12 -1 -2
BITMAP
1100
FFE0
1500
7FC0
0900
7FE0
C420
3F80
2480
2580
0400
0000
ENDCHAR
STARTCHAR 7B2C
ENCODING 31532
SWIDTH 1000 0
DWIDTH 12 0
BBX 12 12 -1 -2
BITMAP
2100
7BE0
9480
7FC0
0440
7FC0
4400
7FE0
1420
25C0
C400
0000
ENDCHAR
STARTCHAR 5E1D
ENCODING 24093
SWIDTH 1000 0
DWIDTH 12 0
BBX 12 12 -1 -2
BITMAP
0400
7FC0
1100
0A00
FFE0
8420
3F80
2480
2480
2580
0400
0000
ENDCHAR
STARTCHAR 5F1F
ENCODING 24351
SWIDTH 1000 0
DWIDTH 12 0
BBX 12 12 -1 -2
BITMAP
1100
0A00
7FC0
0440
7FC0
4400
7FE0
0C20
1420
25C0
C400
0000
ENDCHAR
STARTCHAR 9012
ENCODING 36882
SWIDTH 1000 0
DWIDTH 12 0
BBX 12 12 -1 -2
BITMAP
4440
2280
2FC0
0140
EFC0
2900
2FE0
2520
29C0
5100
8FE0
0000
ENDCHAR
STARTCHAR 7F14
ENCODING 32532
SWIDTH 1000 0
DWIDTH 12 0
BBX 12 12 -1 -2
BITMAP
2100
4FE0
9440
E280
2FE0
4920
B7C0
C540
3540
C5C0
0100
0000
ENDCHAR
STARTCHAR 98A0
ENCODING 39072
SWIDTH 1000 0
DWIDTH 12 0
BBX 12 12 -1 -2
BITMAP
27E0
F880
23E0
7A20
4AA0
6AA0
5AA0
4AA0
FAA0
5140
8A20
0000
ENDCHAR
STARTCHAR 6382
ENCODING 25474
SWIDTH 1000 0
DWIDTH 12 0
BBX 12 12 -1 -2
BITMAP
2100
2FE0
F900
2900
29E0
3900
EBE0
2A20
2A20
33E0
E220
0000
ENDCHAR
STARTCHAR 6EC7
ENCODING 28359
SWIDTH 1000 0
DWIDTH 12 0
BBX 12 12 -1 -2
BITMAP
4100
2FE0
0100
AFC0
6840
2FC0
4840
4FC0
C840
5FE0
4840
0000
ENDCHAR
STARTCHAR 7898
ENCODING 30872
SWIDTH 1000 0
DWIDTH 12 0
BBX 12 12 -1 -2
BITMAP
0280
FFE0
4AA0
4AA0
EFE0
AAA0
AAA0
BFE0
A280
E440
1820
0000
ENDCHAR
STARTCHAR 70B9
ENCODING 28857
SWIDTH 1000 0
DWIDTH 12 0
BBX 12 12 -1 -2
BITMAP
0400
07C0
0400
0400
3F80
2080
2080
3F80
0000
4940
C920
0000
ENDCHAR
STARTCHAR 5178
ENCODING 20856
SWIDTH 1000 0
DWIDTH 12 0
BBX 12 12 -1 -2
BITMAP
0A00
0A00
3FC0
2A40
3FC0
2A40
2A40
FFE0
0900
1080
6040
0000
ENDCHAR
STARTCHAR 975B
ENCODING 38747
SWIDTH 1000 0
DWIDTH 12 0
BBX 12 12 -1 -2
BITMAP
2080
FBE0
2220
F800
23E0
FC80
4AE0
7A80
4A80
7D80
48E0
0000
ENDCHAR
STARTCHAR 57AB
ENCODING 22443
SWIDTH 1000 0
DWIDTH 12 0
BBX 12 12 -1 -2
BITMAP
2200
27C0
FA40
2640
F240
2560
6820
0400
7FC0
0400
FFE0
0000
ENDCHAR
STARTCHAR 7535
ENCODING 30005
SWIDTH 1000 0
DWIDTH 12 0
BBX 12 12 -1 -2
BITMAP
0400
0440
7FE0
4440
7FC0
4440
4440
7FC0
4400
0420
03E0
0000
ENDCHAR
STARTCHAR 4F43
ENCODING 20291
SWIDTH 1000 0
DWIDTH 12 0
BBX 12 12 -1 -2
BITMAP
1000
1FE0
2920
6920
A920
2FE0
2920
2920
2920
2FE0
2820
0000
ENDCHAR
STARTCHAR 7538
ENCODING 30008
SWIDTH 1000 0
DWIDTH 12 0
BBX 12 12 -1 -2
BITMAP
1000
3FE0
2020
7F20
A920
2920
3F20
2920
3F20
2120
01C0
0000
ENDCHAR
STARTCHAR 5E97
ENCODING 24215
SWIDTH 1000 0
DWIDTH 12 0
BBX 12 12 -1 -2
BITMAP
0200
7FE0
4200
4200
43E0
4200
5FC0
5040
5040
9FC0
9040
0000
ENDCHAR
STARTCHAR 60E6
ENCODING 24806
SWIDTH 1000 0
DWIDTH 12 0
BBX 12 12 -1 -2
BITMAP
4100
4FE0
C900
E900
C9E0
4900
4FC0
4C40
5440
5440
67C0
0000
ENDCHAR
STARTCHAR 5960
ENCODING 22880
SWIDTH 1000 0
DWIDTH 12 0
BBX 12 12 -1 -2
BITMAP
1100
FFE0
0A00
3FC0
2A40
3140
3FC0
0400
FFE0
0900
F0E0
0000
ENDCHAR
STARTCHAR 6DC0
ENCODING 28096
SWIDTH 1000 0
DWIDTH 12 0
BBX 12 12 -1 -2
BITMAP
4100
2FE0
0820
8000
4FE0
0100
4900
C9E0
4D00
5300
60E0
0000
ENDCHAR
STARTCHAR 6BBF
ENCODING 27583
SWIDTH 1000 0
DWIDTH 12 0
BBX 12 12 -1 -2
BITMAP
FDC0
8540
FD40
8260
A800
FDC0
A940
FD40
8080
A940
C620
0000
ENDCHAR
STARTCHAR 7889
ENCODING 30857
SWIDTH 1000 0
DWIDTH 12 0
BBX 12 12 -1 -2
BITMAP
F7E0
2520
47E0
4520
F7E0
5420
57A0
56A0
7BA0
0820
10E0
0000
ENDCHAR
STARTCHAR 53FC
ENCODING 21500
SWIDTH 1000 0
DWIDTH 12 0
BBX 12 12 -1 -2
BITMAP
0020
F7E0
9020
9060
90A0
9120
9220
F420
8020
0320
00C0
0000
ENDCHAR
STARTCHAR 96D5
ENCODING 38613
SWIDTH 1000 0
DWIDTH 12 0
BBX 12 12 -1 -2
BITMAP
F940
A940
FBE0
AE80
FBE0
8A80
FA80
DBE0
FA80
8A80
9BE0
0000
ENDCHAR
STARTCHAR 51CB
ENCODING 20939
SWIDTH 1000 0
DWIDTH 12 0
BBX 12 12 -1 -2
BITMAP
9FE0
5220
57A0
1220
5FE0
5020
97A0
94A0
97A0
A020
20E0
0000
ENDCHAR
STARTCHAR 5201
ENCODING 20993
SWIDTH 1000 0
DWIDTH 12 0
BBX 12 12 -1 -2
BITMAP
0040
7FE0
0040
0140
0240
0440
1840
6040
0040
0640
0180
0000
ENDCHAR
STARTCHAR 6389
ENCODING 25481
SWIDTH 1000 0
DWIDTH 12 0
BBX 12 12 -1 -2
BITMAP
2100
21E0
F100
27C0
2440
37C0
E440
27C0
2100
3FE0
E100
0000
ENDCHAR
STARTCHAR 540A
ENCODING 21514
SWIDTH 1000 0
DWIDTH 12 0
BBX 12 12 -1 -2
BITMAP
3F80
2080
2080
3F80
0400
7FC0
4440
4440
4440
45C0
0400
0000
ENDCHAR
STARTCHAR 9493
ENCODING 38035
SWIDTH 1000 0
DWIDTH 12 0
BBX 12 12 -1 -2
BITMAP
2200
2200
7BE0
4420
F420
2220
F920
2120
2820
3020
21C0
0000
ENDCHAR
STARTCHAR 8C03
ENCODING 35843
SWIDTH 1000 0
DWIDTH 12 0
BBX 12 12 -1 -2
BITMAP
4FE0
2920
0BA0
0920
CFE0
4820
4BA0
5AA0
6BA0
4820
10E0
0000
ENDCHAR
STARTCHAR 8DCC
ENCODING 36300
SWIDTH 1000 0
DWIDTH 12 0
BBX 12 12 -1 -2
BITMAP
F100
9500
97E0
9500
F100
27E0
B900
A100
A280
F440
8820
0000
ENDCHAR
STARTCHAR 7239
ENCODING 29241
SWIDTH 1000 0
DWIDTH 12 0
BBX 12 12 -1 -2
BITMAP
1180
2A40
4C00
1300
E8E0
1F00
6400
1BC0
0480
0B00
7C00
0000
ENDCHAR
STARTCHAR 789F
ENCODING 30879
SWIDTH 1000 0
DWIDTH 12 0
BBX 12 12 -1 -2
BITMAP
0540
FFE0
4540
45C0
7400
D7E0
D100
5FE0
7380
4540
1920
0000
ENDCHAR
STARTCHAR 8776
ENCODING 34678
SWIDTH 1000 0
DWIDTH 12 0
BBX 12 12 -1 -2
BITMAP
2540
2FE0
F540
B5C0
B400
B7E0
F100
2FE0
2380
F540
0920
0000
ENDCHAR
STARTCHAR 8FED
ENCODING 36845
SWIDTH 1000 0
DWIDTH 12 0
BBX 12 12 -1 -2
BITMAP
4100
2500
2FE0
0900
C100
5FE0
4280
4440
6820
9000
0FE0
0000
ENDCHAR
STARTCHAR 8C0D
ENCODING 35853
SWIDTH 1000 0
DWIDTH 12 0
BBX 12 12 -1 -2
BITMAP
8A80
5FE0
4A80
0B80
C800
4FE0
4100
5FE0
6580
4940
3120
0000
ENDCHAR
STARTCHAR 53E0
ENCODING 21472
SWIDTH 1000 0
DWIDTH 12 0
BBX 12 12 -1 -2
BITMAP
1F80
0600
0900
7BC0
3180
4A40
FFE0
90A0
1F80
1080
FFE0
0000
ENDCHAR
STARTCHAR 4E01
ENCODING 19969
SWIDTH 1000 0
DWIDTH 12 0
BBX 12 12 -1 -2
BITMAP
0040
FFE0
0400
0400
0400
0400
0400
0400
0400
0400
1C00
0000
ENDCHAR
STARTCHAR 76EF
ENCODING 30447
SWIDTH 1000 0
DWIDTH 12 0
BBX 12 12 -1 -2
BITMAP
F040
97E0
9080
F080
9080
9080
F080
9080
F080
9080
0380
0000
ENDCHAR
STARTCHAR 53EE
ENCODING 21486
SWIDTH 1000 0
DWIDTH 12 0
BBX 12 12 -1 -2
BITMAP
0040
F7E0
9080
9080
9080
9080
F080
9080
8080
0080
0380
0000
ENDCHAR
STARTCHAR 9489
ENCODING 38025
SWIDTH 1000 0
DWIDTH 12 0
BBX 12 12 -1 -2
BITMAP
4040
47E0
7880
8080
F880
2080
F880
2080
2880
3080
2380
0000
ENDCHAR
STARTCHAR 9876
ENCODING 39030
SWIDTH 1000 0
DWIDTH 12 0
BBX 12 12 -1 -2
BITMAP
07E0
F900
27E0
2420
2520
2520
2520
2520
A180
6240
0C20
0000
ENDCHAR
STARTCHAR 9F0E
ENCODING 40718
SWIDTH 1000 0
DWIDTH 12 0
BBX 12 12 -1 -2
BITMAP
1F00
1100
1F00
5140
5F40
4040
7BC0
0A00
FBC0
4A40
8A40
0000
ENDCHAR
STARTCHAR 952D
ENCODING 38189
SWIDTH 1000 0
DWIDTH 12 0
BBX 12 12 -1 -2
BITMAP
4100
77E0
8420
F000
47E0
4100
F500
45E0
5500
6B00
10E0
0000
ENDCHAR
STARTCHAR 5B9A
ENCODING 23450
SWIDTH 1000 0
DWIDTH 12 0
BBX 12 12 -1 -2
BITMAP
0400
7FE0
C020
0000
7FC0
0400
2400
27C0
3400
4C00
83E0
0000
ENDCHAR
STARTCHAR 8BA2
ENCODING 35746
SWIDTH 1000 0
DWIDTH 12 0
BBX 12 12 -1 -2
BITMAP
4040
2FE0
0100
C100
4100
4100
4100
4900
5100
6100
0700
0000
ENDCHAR
STARTCHAR 4E22
ENCODING 20002
SWIDTH 1000 0
DWIDTH 12 0
BBX 12 12 -1 -2
BITMAP
03C0
7C00
0400
7FC0
0400
0400
FFE0
0800
1100
2080
7FC0
0000
ENDCHAR
STARTCHAR 4E1C
ENCODING 19996
SWIDTH 1000 0
DWIDTH 12 0
BBX 12 12 -1 -2
BITMAP
0400
FFE0
0800
1400
2400
7FC0
0500
1480
2440
C420
0C00
0000
ENDCHAR
STARTCHAR 51AC
ENCODING 20908
SWIDTH 1000 0
DWIDTH 12 0
BBX 12 12 -1 -2
BITMAP
0800
1F80
1100
2A00
4400
0A00
3180
C660
0000
1C00
0300
0000
ENDCHAR
STARTCHAR 8463
ENCODING 33891
SWIDTH 1000 0
DWIDTH 12 0
BBX 12 12 -1 -2
BITMAP
FFE0
1100
3F80
0400
FFE0
2480
3F80
2480
7FC0
0400
FFE0
0000
ENDCHAR
STARTCHAR 61C2
ENCODING 25026
SWIDTH 1000 0
DWIDTH 12 0
BBX 12 12 -1 -2
BITMAP
5FE0
4480
6FC0
C200
DFE0
4A40
4FC0
4A40
4FC0
4200
5FE0
0000
ENDCHAR
STARTCHAR 52A8
ENCODING 21160
SWIDTH 1000 0
DWIDTH 12 0
BBX 12 12 -1 -2
BITMAP
0100
F900
0100
03E0
FD20
2120
5120
8920
FA20
8440
09C0
0000
ENDCHAR
STARTCHAR 680B
ENCODING 26635
SWIDTH 1000 0
DWIDTH 12 0
BBX 12 12 -1 -2
BITMAP
2200
2FE0
F200
2500
2500
6FE0
B100
A540
2520
2920
2300
0000
ENDCHAR
STARTCHAR 4F97
ENCODING 20375
SWIDTH 1000 0
DWIDTH 12 0
BBX 12 12 -1 -2
BITMAP
2040
3FE0
5040
5FC0
D040
5740
5540
5740
5540
5040
50C0
0000
ENDCHAR
STARTCHAR 606B
ENCODING 24683
SWIDTH 1000 0
DWIDTH 12 0
BBX 12 12 -1 -2
BITMAP
4000
4FE0
C820
EFE0
C820
4BA0
4AA0
4BA0
4AA0
4820
48E0
0000
ENDCHAR
STARTCHAR 51BB
ENCODING 20923
SWIDTH 1000 0
DWIDTH 12 0
BBX 12 12 -1 -2
BITMAP
8200
4240
5FE0
2500
2900
4FE0
C100
4540
4920
5120
0700
0000
ENDCHAR
STARTCHAR 6D1E
ENCODING 27934
SWIDTH 1000 0
DWIDTH 12 0
BBX 12 12 -1 -2
BITMAP
4FE0
2820
0FE0
8820
4BA0
2AA0
4AA0
CBA0
4820
4820
48E0
0000
ENDCHAR
STARTCHAR 515C
ENCODING 20828
SWIDTH 1000 0
DWIDTH 12 0
BBX 12 12 -1 -2
BITMAP
0400
6EC0
4A40
4E40
4A40
6EC0
4000
0A00
0A20
1220
E3E0
0000
ENDCHAR
STARTCHAR 6296
ENCODING 25238
SWIDTH 1000 0
DWIDTH 12 0
BBX 12 12 -1 -2
BITMAP
2080
2480
F280
2080
2480
3280
E0E0
2F80
2080
2080
E080
0000
ENDCHAR
STARTCHAR 6597
ENCODING 26007
SWIDTH 1000 0
DWIDTH 12 0
BBX 12 12 -1 -2
BITMAP
2100
1100
0900
4100
2100
1100
01E0
FF00
0100
0100
0100
0000
ENDCHAR
STARTCHAR 9661
ENCODING 38497
SWIDTH 1000 0
DWIDTH 12 0
BBX 12 12 -1 -2
BITMAP
F100
97E0
9100
A100
AFE0
9100
9500
F5E0
8500
8B00
91E0
0000
ENDCHAR
STARTCHAR 8C46
ENCODING 35910
SWIDTH 1000 0
DWIDTH 12 0
BBX 12 12 -1 -2
BITMAP
7FC0
0000
0000
3F80
2080
2080
3F80
2080
1100
0A00
FFE0
0000
ENDCHAR
STARTCHAR 9017
ENCODING 36887
SWIDTH 1000 0
DWIDTH 12 0
BBX 12 12 -1 -2
BITMAP
9FE0
4000
4FC0
0840
C840
4FC0
4880
4500
5FE0
A000
1FE0
0000
ENDCHAR
STARTCHAR 75D8
ENCODING 30168
SWIDTH 1000 0
DWIDTH 12 0
BBX 12 12 -1 -2
BITMAP
0200
3FE0
A000
7FE0
2000
6FC0
A840
2FC0
2880
4500
BFE0
0000
ENDCHAR
STARTCHAR 90FD
ENCODING 37117
SWIDTH 1000 0
DWIDTH 12 0
BBX 12 12 -1 -2
BITMAP
15E0
7D20
1520
FF40
1140
3D20
6520
BD20
25E0
3D00
2500
0000
ENDCHAR
STARTCHAR 7763
ENCODING 30563
SWIDTH 1000 0
DWIDTH 12 0
BBX 12 12 -1 -2
BITMAP
1C40
13E0
FD40
5880
5540
9220
3F80
2080
3F80
2080
3F80
0000
ENDCHAR
STARTCHAR 6BD2
ENCODING 27602
SWIDTH 1000 0
DWIDTH 12 0
BBX 12 12 -1 -2
BITMAP
0400
FFE0
0400
7FC0
0400
FFE0
2480
FFE0
2480
7FE0
0100
0000
ENDCHAR
STARTCHAR 728A
ENCODING 29322
SWIDTH 1000 0
DWIDTH 12 0
BBX 12 12 -1 -2
BITMAP
2100
A7E0
A100
F7E0
A420
2280
3480
E280
2FE0
2140
2E20
0000
ENDCHAR
STARTCHAR 72EC
ENCODING 29420
SWIDTH 1000 0
DWIDTH 12 0
BBX 12 12 -1 -2
BITMAP
9100
5100
27E0
5520
9520
3520
57E0
9100
1140
11E0
6E20
0000
ENDCHAR
STARTCHAR 8BFB
ENCODING 35835
SWIDTH 1000 0
DWIDTH 12 0
BBX 12 12 -1 -2
BITMAP
8200
4FC0
0200
1FE0
C520
4B00
4500
5FE0
4100
6280
4C40
0000
ENDCHAR
STARTCHAR 5835
ENCODING 22581
SWIDTH 1000 0
DWIDTH 12 0
BBX 12 12 -1 -2
BITMAP
4200
4240
4FC0
E280
5FE0
4200
47C0
6C40
D7C0
0440
07C0
0000
ENDCHAR
STARTCHAR 7779
ENCODING 30585
SWIDTH 1000 0
DWIDTH 12 0
BBX 12 12 -1 -2
BITMAP
0200
F240
9FC0
F280
9FE0
9200
F7C0
9C40
97C0
F440
07C0
0000
ENDCHAR
STARTCHAR 8D4C
ENCODING 36172
SWIDTH 1000 0
DWIDTH 12 0
BBX 12 12 -1 -2
BITMAP
0100
F920
8FC0
A940
AFE0
A900
ABC0
AE40
23C0
5240
8BC0
0000
ENDCHAR
STARTCHAR 675C
ENCODING 26460
SWIDTH 1000 0
DWIDTH 12 0
BBX 12 12 -1 -2
BITMAP
2100
2100
F900
2100
27E0
7100
6900
A100
A100
2100
2FE0
0000
ENDCHAR
STARTCHAR 9540
ENCODING 38208
SWIDTH 1000 0
DWIDTH 12 0
BBX 12 12 -1 -2
BITMAP
4080
77E0
8540
F7E0
4540
45C0
F400
47C0
5940
6980
1660
0000
ENDCHAR
STARTCHAR 809A
ENCODING 32922
SWIDTH 1000 0
DWIDTH 12 0
BBX 12 12 -1 -2
BITMAP
7100
5100
5100
7100
5FE0
5100
7100
5100
5100
9100
BFE0
0000
ENDCHAR
STARTCHAR 5EA6
ENCODING 24230
SWIDTH 1000 0
DWIDTH 12 0
BBX 12 12 -1 -2
BITMAP
0200
7FE0
4880
7FE0
4880
4F80
4000
5F80
4500
8700
B8E0
0000
ENDCHAR
STARTCHAR 6E21
ENCODING 28193
SWIDTH 1000 0
DWIDTH 12 0
BBX 12 12 -1 -2
BITMAP
8100
5FE0
1280
9FE0
5280
5380
5000
D7C0
5280
5380
6C60
0000
ENDCHAR
STARTCHAR 5992
ENCODING 22930
SWIDTH 1000 0
DWIDTH 12 0
BBX 12 12 -1 -2
BITMAP
2100
2080
FBE0
4A20
4A20
53E0
9200
E200
3400
4400
8800
0000
ENDCHAR
STARTCHAR 7AEF
ENCODING 31471
SWIDTH 1000 0
DWIDTH 12 0
BBX 12 12 -1 -2
BITMAP
4100
2920
FFE0
0000
AFE0
A200
AFE0
4AA0
FAA0
8AA0
0860
0000
ENDCHAR
STARTCHAR 77ED
ENCODING 30701
SWIDTH 1000 0
DWIDTH 12 0
BBX 12 12 -1 -2
BITMAP
4040
4FE0
7000
A7C0
2440
FC40
27C0
2440
5280
4A80
8FE0
0000
ENDCHAR
STARTCHAR 953B
ENCODING 38203
SWIDTH 1000 0
DWIDTH 12 0
BBX 12 12 -1 -2
BITMAP
47C0
4940
6940
8D60
EA00
4DE0
E940
4D40
5880
6940
4A20
0000
ENDCHAR
STARTCHAR 6BB5
ENCODING 27573
SWIDTH 1000 0
DWIDTH 12 0
BBX 12 12 -1 -2
BITMAP
1B80
6280
4280
74E0
4000
77C0
4280
7A80
C100
4280
5C60
0000
ENDCHAR
STARTCHAR 65AD
ENCODING 26029
SWIDTH 1000 0
DWIDTH 12 0
BBX 12 12 -1 -2
BITMAP
9060
D580
B900
9100
FDE0
9140
B940
D540
9240
FA40
0440
0000
ENDCHAR
STARTCHAR 7F0E
ENCODING 32526
SWIDTH 1000 0
DWIDTH 12 0
BBX 12 12 -1 -2
BITMAP
2DC0
4940
A940
EE60
4800
8DE0
E940
0940
2E80
D940
0A20
0000
ENDCHAR
STARTCHAR 5806
ENCODING 22534
SWIDTH 1000 0
DWIDTH 12 0
BBX 12 12 -1 -2
BITMAP
2280
2480
2FE0
F480
27E0
2480
2480
37E0
C480
07E0
0400
0000
ENDCHAR
STARTCHAR 5151
ENCODING 20817
SWIDTH 1000 0
DWIDTH 12 0
BBX 12 12 -1 -2
BITMAP
1100
0A00
3F80
2080
2080
2080
3F80
0A00
0A20
1220
E3E0
0000
ENDCHAR
STARTCHAR 961F
ENCODING 38431
SWIDTH 1000 0
DWIDTH 12 0
BBX 12 12 -1 -2
BITMAP
F100
9100
9100
A100
A100
9100
9280
9280
F440
8840
9020
0000
ENDCHAR
STARTCHAR 5BF9
ENCODING 23545
SWIDTH 1000 0
DWIDTH 12 0
BBX 12 12 -1 -2
BITMAP
0040
F840
0840
4FE0
2840
1240
1140
2940
4840
8840
01C0
0000
ENDCHAR
STARTCHAR 58A9
ENCODING 22697
SWIDTH 1000 0
DWIDTH 12 0
BBX 12 12 -1 -2
BITMAP
4440
5F40
40E0
EFA0
4AA0
5EA0
42A0
6740
DC40
04A0
0D20
0000
ENDCHAR
STARTCHAR 5428
ENCODING 21544
SWIDTH 1000 0
DWIDTH 12 0
BBX 12 12 -1 -2
BITMAP
0100
E100
BFE0
A100
A940
A940
A940
EFC0
A100
0120
01E0
0000
ENDCHAR
STARTCHAR 8E72
ENCODING 36466
SWIDTH 1000 0
DWIDTH 12 0
BBX 12 12 -1 -2
BITMAP
F240
9FE0
9280
F7E0
26A0
2460
B7E0
A040
AFE0
F240
81C0
0000
ENDCHAR
STARTCHAR 6566
ENCODING 25958
SWIDTH 1000 0
DWIDTH 12 0
BBX 12 12 -1 -2
BITMAP
1100
FD00
01E0
7A40
4E40
7940
0940
1080
FC80
1140
7620
0000
ENDCHAR
STARTCHAR 987F
ENCODING 39039
SWIDTH 1000 0
DWIDTH 12 0
BBX 12 12 -1 -2
BITMAP
27E0
2100
FBE0
2220
AAA0
AAA0
FAA0
22A0
2880
3140
2620
0000
ENDCHAR
STARTCHAR 56E4
ENCODING 22244
SWIDTH 1000 0
DWIDTH 12 0
BBX 12 12 -1 -2
BITMAP
7FE0
4420
7FA0
4420
5520
5520
5F20
44A0
47A0
4020
7FE0
0000
ENDCHAR
STARTCHAR 949D
ENCODING 38045
SWIDTH 1000 0
DWIDTH 12 0
BBX 12 12 -1 -2
BITMAP
4100
7100
8FE0
F100
4540
4540
F7C0
4100
5120
6120
41E0
0000
ENDCHAR
STARTCHAR 76FE
ENCODING 30462
SWIDTH 1000 0
DWIDTH 12 0
BBX 12 12 -1 -2
BITMAP
03C0
7E00
4200
7FE0
4200
5FC0
5040
5E40
53C0
9040
9FC0
0000
ENDCHAR
STARTCHAR 9041
ENCODING 36929
SWIDTH 1000 0
DWIDTH 12 0
BBX 12 12 -1 -2
BITMAP
9FC0
5100
5FE0
1100
D7C0
5440
57C0
5440
57C0
A000
1FE0
0000
ENDCHAR
STARTCHAR 6387
ENCODING 25479
SWIDTH 1000 0
DWIDTH 12 0
BBX 12 12 -1 -2
BITMAP
4EE0
4AA0
F440
46C0
4920
6000
CFE0
4AA0
4440
4AA0
D120
0000
ENDCHAR
STARTCHAR 54C6
ENCODING 21702
SWIDTH 1000 0
DWIDTH 12 0
BBX 12 12 -1 -2
BITMAP
0200
F3C0
9440
9A80
9300
9D00
F3E0
9440
0A80
0300
1C00
0000
ENDCHAR
STARTCHAR 591A
ENCODING 22810
SWIDTH 1000 0
DWIDTH 12 0
BBX 12 12 -1 -2
BITMAP
0400
0FC0
1880
6500
0E00
7400
0FE0
1040
6980
0600
F800
0000
ENDCHAR
STARTCHAR 593A
ENCODING 22842
SWIDTH 1000 0
DWIDTH 12 0
BBX 12 12 -1 -2
BITMAP
0400
FFE0
0A00
1100
2080
4140
FFE0
2100
1100
1100
0700
0000
ENDCHAR
STARTCHAR 579B
ENCODING 22427
SWIDTH 1000 0
DWIDTH 12 0
BBX 12 12 -1 -2
BITMAP
4780
4480
4480
F480
4860
4100
4FE0
7300
C580
0940
3120
0000
ENDCHAR
STARTCHAR 8EB2
ENCODING 36530
SWIDTH 1000 0
DWIDTH 12 0
BBX 12 12 -1 -2
BITMAP
23C0
7A40
4A40
7A40
4D60
7900
4FE0
F980
2B40
4D20
9900
0000
ENDCHAR
STARTCHAR 6735
ENCODING 26421
SWIDTH 1000 0
DWIDTH 12 0
BBX 12 12 -1 -2
BITMAP
1F00
1100
1100
1100
20E0
4400
FFE0
0E00
1500
2480
C460
0000
ENDCHAR
STARTCHAR 8DFA
ENCODING 36346
SWIDTH 1000 0
DWIDTH 12 0
BBX 12 12 -1 -2
BITMAP
F3C0
9240
9240
F240
2560
A900
B7E0
A380
B540
C920
0100
0000
ENDCHAR
STARTCHAR 8235
ENCODING 33333
SWIDTH 1000 0
DWIDTH 12 0
BBX 12 12 -1 -2
BITMAP
2100
7FE0
4C20
6800
4A00
FA40
4A80
6B00
4A20
8A20
99E0
0000
ENDCHAR
STARTCHAR 5241
ENCODING 21057
SWIDTH 1000 0
DWIDTH 12 0
BBX 12 12 -1 -2
BITMAP
3820
2820
28A0
4EA0
80A0
10A0
FEA0
38A0
54A0
9220
10E0
0000
ENDCHAR
STARTCHAR 60F0
ENCODING 24816
SWIDTH 1000 0
DWIDTH 12 0
BBX 12 12 -1 -2
BITMAP
4200
5FE0
4400
E7E0
C900
57C0
4440
47C0
4440
47C0
4440
0000
ENDCHAR
STARTCHAR 5815
ENCODING 22549
SWIDTH 1000 0
DWIDTH 12 0
BBX 12 12 -1 -2
BITMAP
F200
9FE0
A440
AFC0
9440
F7C0
8440
8400
3FC0
0400
FFE0
0000
ENDCHAR
STARTCHAR 86FE
ENCODING 34558
SWIDTH 1000 0
DWIDTH 12 0
BBX 12 12 -1 -2
BITMAP
4280
4CC0
F4A0
9FE0
9480
95A0
F6A0
5CC0
44A0
F560
0C20
0000
ENDCHAR
STARTCHAR 5CE8
ENCODING 23784
SWIDTH 1000 0
DWIDTH 12 0
BBX 12 12 -1 -2
BITMAP
2280
2EC0
22A0
AFE0
AA80
ABA0
AEC0
BA80
C2A0
0360
0E20
0000
ENDCHAR
STARTCHAR 9E45
ENCODING 40517
SWIDTH 1000 0
DWIDTH 12 0
BBX 12 12 -1 -2
BITMAP
3080
DBC0
5240
FB40
52C0
7600
DBE0
5020
6BE0
4A20
C6C0
0000
ENDCHAR
STARTCHAR 4FC4
ENCODING 20420
SWIDTH 1000 0
DWIDTH 12 0
BBX 12 12 -1 -2
BITMAP
2300
2D40
4520
5FE0
C500
4720
4D40
5480
44A0
4560
5C20
0000
ENDCHAR
STARTCHAR 989D
ENCODING 39069
SWIDTH 1000 0
DWIDTH 12 0
BBX 12 12 -1 -2
BITMAP
27E0
F880
8BE0
7A20
4AA0
B2A0
4AA0
FAA0
4880
4940
7A20
0000
ENDCHAR
STARTCHAR 8BB9
ENCODING 35769
SWIDTH 1000 0
DWIDTH 12 0
BBX 12 12 -1 -2
BITMAP
8500
4500
4520
0940
C980
5900
4B00
4900
5920
6920
08E0
0000
ENDCHAR
STARTCHAR 5A25
ENCODING 23077
SWIDTH 1000 0
DWIDTH 12 0
BBX 12 12 -1 -2
BITMAP
2380
2EC0
F2A0
5FE0
5280
53A0
96C0
EA80
22A0
5360
8620
0000
ENDCHAR
STARTCHAR 6076
ENCODING 24694
SWIDTH 1000 0
DWIDTH 12 0
BBX 12 12 -1 -2
BITMAP
7FC0
0A00
4A40
2A80
2A80
FFE0
0000
5440
52A0
90A0
1F80
0000
ENDCHAR
STARTCHAR 5384
ENCODING 21380
SWIDTH 1000 0
DWIDTH 12 0
BBX 12 12 -1 -2
BITMAP
7FE0
4000
4000
4F80
4880
4880
4B80
4820
4820
8820
8FE0
0000
ENDCHAR
STARTCHAR 627C
ENCODING 25212
SWIDTH 1000 0
DWIDTH 12 0
BBX 12 12 -1 -2
BITMAP
2040
2FE0
F800
2BC0
3A40
6A40
AA40
2AC0
2A20
3220
E1E0
0000
ENDCHAR
STARTCHAR 904F
ENCODING 36943
SWIDTH 1000 0
DWIDTH 12 0
BBX 12 12 -1 -2
BITMAP
4FC0
2840
2FC0
0840
CFE0
5A20
6DA0
4820
4FA0
6040
9FE0
0000
ENDCHAR
STARTCHAR 9102
ENCODING 37122
SWIDTH 1000 0
DWIDTH 12 0
BBX 12 12 -1 -2
BITMAP
EFE0
AB20
EF20
0140
7D40
0120
FF20
2120
7DE0
0900
3900
0000
ENDCHAR
STARTCHAR 997F
ENCODING 39295
SWIDTH 1000 0
DWIDTH 12 0
BBX 12 12 -1 -2
BITMAP
42C0
4EA0
7280
9FE0
4280
43A0
4EA0
42C0
52A0
6360
0E20
0000
ENDCHAR
STARTCHAR 6069
ENCODING 24681
SWIDTH 1000 0
DWIDTH 12 0
BBX 12 12 -1 -2
BITMAP
7FC0
4440
5F40
4440
4A40
5140
7FC0
0440
52A0
50A0
9F80
0000
ENDCHAR
STARTCHAR 800C
ENCODING 32780
SWIDTH 1000 0
DWIDTH 12 0
BBX 12 12 -1 -2
BITMAP
FFE0
0400
0800
7FC0
4A40
4A40
4A40
4A40
4A40
4A40
40C0
0000
ENDCHAR
STARTCHAR 513F
ENCODING 20799
SWIDTH 1000 0
DWIDTH 12 0
BBX 12 12 -1 -2
BITMAP
1100
1100
1100
1100
1100
1100
1100
2120
2120
4120
81E0
0000
ENDCHAR
STARTCHAR 8033
ENCODING 32819
SWIDTH 1000 0
DWIDTH 12 0
BBX 12 12 -1 -2
BITMAP
FFE0
2100
2100
3F00
2100
3F00
2100
21E0
FF00
0100
0100
0000
ENDCHAR
STARTCHAR 5C14
ENCODING 23572
SWIDTH 1000 0
DWIDTH 12 0
BBX 12 12 -1 -2
BITMAP
1000
1040
3FE0
4440
8480
1500
1480
2440
4420
8420
1C00
0000
ENDCHAR
STARTCHAR 9975
ENCODING 39285
SWIDTH 1000 0
DWIDTH 12 0
BBX 12 12 -1 -2
BITMAP
4040
4FE0
7440
97C0
4440
47C0
4440
4440
5FE0
6040
0040
0000
ENDCHAR
STARTCHAR 6D31
ENCODING 27953
SWIDTH 1000 0
DWIDTH 12 0
BBX 12 12 -1 -2
BITMAP
8040
5FE0
0880
AF80
6880
2F80
4880
C8E0
5F80
4080
4080
0000
ENDCHAR
STARTCHAR 4E8C
ENCODING 20108
SWIDTH 1000 0
DWIDTH 12 0
BBX 12 12 -1 -2
BITMAP
0000
0080
7FC0
0000
0000
0000
0000
0000
0000
FFE0
0000
0000
ENDCHAR
STARTCHAR 8D30
ENCODING 36144
SWIDTH 1000 0
DWIDTH 12 0
BBX 12 12 -1 -2
BITMAP
0140
FFE0
0100
FD00
0100
7D00
4500
5500
54A0
2860
C620
0000
ENDCHAR
STARTCHAR 53D1
ENCODING 21457
SWIDTH 1000 0
DWIDTH 12 0
BBX 12 12 -1 -2
BITMAP
0900
4880
4800
FFE0
1000
1F80
1480
2500
2200
4D80
B060
0000
ENDCHAR
STARTCHAR 7F5A
ENCODING 32602
SWIDTH 1000 0
DWIDTH 12 0
BBX 12 12 -1 -2
BITMAP
7FC0
4940
7FC0
2000
1240
1240
E240
2240
2240
2840
31C0
0000
ENDCHAR
STARTCHAR 7B4F
ENCODING 31567
SWIDTH 1000 0
DWIDTH 12 0
BBX 12 12 -1 -2
BITMAP
2100
7BE0
9480
1100
2480
27E0
7C40
A280
22A0
2320
2CE0
0000
ENDCHAR
STARTCHAR 4F10
ENCODING 20240
SWIDTH 1000 0
DWIDTH 12 0
BBX 12 12 -1 -2
BITMAP
1280
1240
2200
23E0
7E00
A240
2280
2100
2320
24A0
3860
0000
ENDCHAR
STARTCHAR 4E4F
ENCODING 20047
SWIDTH 1000 0
DWIDTH 12 0
BBX 12 12 -1 -2
BITMAP
0380
FC00
0800
0400
7F80
0100
0600
1800
6000
9000
0FE0
0000
ENDCHAR
STARTCHAR 9600
ENCODING 38400
SWIDTH 1000 0
DWIDTH 12 0
BBX 12 12 -1 -2
BITMAP
2FE0
1020
4B20
52A0
53E0
7E20
5320
52A0
5DA0
50A0
4060
0000
ENDCHAR
STARTCHAR 6CD5
ENCODING 27861
SWIDTH 1000 0
DWIDTH 12 0
BBX 12 12 -1 -2
BITMAP
4100
2100
2FE0
8100
4100
1FE0
4200
4280
C440
49E0
4E20
0000
ENDCHAR
STARTCHAR 73D0
ENCODING 29648
SWIDTH 1000 0
DWIDTH 12 0
BBX 12 12 -1 -2
BITMAP
0100
F100
4FE0
4100
F100
4FE0
4100
4200
7480
C840
0FE0
0000
ENDCHAR
STARTCHAR 85E9
ENCODING 34281
SWIDTH 1000 0
DWIDTH 12 0
BBX 12 12 -1 -2
BITMAP
1100
FFE0
5100
2FC0
8A80
5FE0
4680
5A60
CFC0
4A40
4FC0
0000
ENDCHAR
STARTCHAR 5E06
ENCODING 24070
SWIDTH 1000 0
DWIDTH 12 0
BBX 12 12 -1 -2
BITMAP
2040
23E0
FA40
AA40
AB40
AAC0
AA40
BA40
2440
2840
3060
0000
ENDCHAR
STARTCHAR 756A
ENCODING 30058
SWIDTH 1000 0
DWIDTH 12 0
BBX 12 12 -1 -2
BITMAP
03C0
7C80
1500
FFE0
1500
2480
FFE0
2480
3F80
2480
3F80
0000
ENDCHAR
STARTCHAR 7FFB
ENCODING 32763
SWIDTH 1000 0
DWIDTH 12 0
BBX 12 12 -1 -2
BITMAP
1800
E7E0
A920
FD20
7360
A920
FB60
ADA0
F920
A920
FB60
0000
ENDCHAR
STARTCHAR 6A0A
ENCODING 27146
SWIDTH 1000 0
DWIDTH 12 0
BBX 12 12 -1 -2
BITMAP
2A80
2480
FBE0
2AC0
75A0
AA80
2480
FFE0
0A00
1100
E0E0
0000
ENDCHAR
STARTCHAR 77FE
ENCODING 30718
SWIDTH 1000 0
DWIDTH 12 0
BBX 12 12 -1 -2
BITMAP
0780
F480
4480
4480
7680
D580
5480
5480
74A0
48A0
10E0
0000
ENDCHAR
STARTCHAR 9492
ENCODING 38034
SWIDTH 1000 0
DWIDTH 12 0
BBX 12 12 -1 -2
BITMAP
4080
47C0
7480
8480
F680
4580
F480
4480
54A0
68A0
50E0
0000
ENDCHAR
STARTCHAR 7E41
ENCODING 32321
SWIDTH 1000 0
DWIDTH 12 0
BBX 12 12 -1 -2
BITMAP
7D00
55E0
FF40
5480
7D40
1220
3F00
0880
7FC0
2500
CCC0
0000
ENDCHAR
STARTCHAR 51E1
ENCODING 20961
SWIDTH 1000 0
DWIDTH 12 0
BBX 12 12 -1 -2
BITMAP
0100
1F80
1100
1100
1900
1500
1500
1120
2120
4120
81E0
0000
ENDCHAR
STARTCHAR 70E6
ENCODING 28902
SWIDTH 1000 0
DWIDTH 12 0
BBX 12 12 -1 -2
BITMAP
2FE0
2100
27C0
B440
A540
A540
2540
2540
5180
5240
8C20
0000
ENDCHAR
STARTCHAR 53CD
ENCODING 21453
SWIDTH 1000 0
DWIDTH 12 0
BBX 12 12 -1 -2
BITMAP
03C0
3C00
2000
3FC0
2040
2880
2880
2500
4200
4D00
B0E0
0000
ENDCHAR
STARTCHAR 8FD4
ENCODING 36820
SWIDTH 1000 0
DWIDTH 12 0
BBX 12 12 -1 -2
BITMAP
41C0
2E00
2800
0FC0
E840
2A80
2900
3280
2440
5000
8FE0
0000
ENDCHAR
STARTCHAR 8303
ENCODING 33539
SWIDTH 1000 0
DWIDTH 12 0
BBX 12 12 -1 -2
BITMAP
1100
FFE0
1100
4000
27C0
9440
5440
25C0
C420
4420
47E0
0000
ENDCHAR
STARTCHAR 8D29
ENCODING 36137
SWIDTH 1000 0
DWIDTH 12 0
BBX 12 12 -1 -2
BITMAP
F8E0
8B00
AA00
ABE0
AA20
AA40
AB40
2480
5480
4940
9620
0000
ENDCHAR
STARTCHAR 72AF
ENCODING 29359
SWIDTH 1000 0
DWIDTH 12 0
BBX 12 12 -1 -2
BITMAP
8800
57C0
2440
5440
9440
3440
55C0
9400
1420
1420
E3E0
0000
ENDCHAR
STARTCHAR 996D
ENCODING 39277
SWIDTH 1000 0
DWIDTH 12 0
BBX 12 12 -1 -2
BITMAP
40E0
4700
7400
97C0
C440
4640
4540
4580
5880
6940
1620
0000
ENDCHAR
STARTCHAR 6CDB
ENCODING 27867
SWIDTH 1000 0
DWIDTH 12 0
BBX 12 12 -1 -2
BITMAP
80C0
5F00
2200
8100
5FC0
2080
2100
4200
C400
4800
57E0
0000
ENDCHAR
STARTCHAR 574A
ENCODING 22346
SWIDTH 1000 0
DWIDTH 12 0
BBX 12 12 -1 -2
BITMAP
2200
2100
2FE0
F200
2200
23C0
2240
3A40
C440
0840
3180
0000
ENDCHAR
STARTCHAR 82B3
ENCODING 33459
SWIDTH 1000 0
DWIDTH 12 0
BBX 12 12 -1 -2
BITMAP
1100
FFE0
1100
0400
FFE0
0800
0FC0
0840
1040
2080
C380
0000
ENDCHAR
STARTCHAR 65B9
ENCODING 26041
SWIDTH 1000 0
DWIDTH 12 0
BBX 12 12 -1 -2
BITMAP
0400
0240
FFE0
0800
0F80
0880
0880
1080
1080
2080
C700
0000
ENDCHAR
STARTCHAR 80AA
ENCODING 32938
SWIDTH 1000 0
DWIDTH 12 0
BBX 12 12 -1 -2
BITMAP
7200
5100
5FE0
7200
53C0
5240
7240
5240
5440
9840
B180
0000
ENDCHAR
STARTCHAR 623F
ENCODING 25151
SWIDTH 1000 0
DWIDTH 12 0
BBX 12 12 -1 -2
BITMAP
0400
7FC0
4040
7FC0
4200
5FE0
4400
47C0
4440
8840
B380
0000
ENDCHAR
STARTCHAR 9632
ENCODING 38450
SWIDTH 1000 0
DWIDTH 12 0
BBX 12 12 -1 -2
BITMAP
F200
9100
9FE0
A200
A3C0
9240
9240
F440
8440
8A40
9180
0000
ENDCHAR
STARTCHAR 59A8
ENCODING 22952
SWIDTH 1000 0
DWIDTH 12 0
BBX 12 12 -1 -2
BITMAP
2100
2080
FFE0
5200
53C0
5240
9240
E240
3240
4440
8980
0000
ENDCHAR
STARTCHAR 4EFF
ENCODING 20223
SWIDTH 1000 0
DWIDTH 12 0
BBX 12 12 -1 -2
BITMAP
1200
2100
3FE0
6200
A3C0
2240
2240
2440
2440
2840
3180
0000
ENDCHAR
STARTCHAR 8BBF
ENCODING 35775
SWIDTH 1000 0
DWIDTH 12 0
BBX 12 12 -1 -2
BITMAP
4200
2100
1FE0
0200
C3C0
4240
4240
4440
5440
6840
1380
0000
ENDCHAR
STARTCHAR 7EBA
ENCODING 32442
SWIDTH 1000 0
DWIDTH 12 0
BBX 12 12 -1 -2
BITMAP
2100
2080
4FE0
9200
E3C0
4240
B240
C440
3440
C840
11C0
0000
ENDCHAR
STARTCHAR 653E
ENCODING 25918
SWIDTH 1000 0
DWIDTH 12 0
BBX 12 12 -1 -2
BITMAP
2100
1100
FDE0
4240
7A40
4940
4940
4880
4980
BA40
8420
0000
ENDCHAR
STARTCHAR 83F2
ENCODING 33778
SWIDTH 1000 0
DWIDTH 12 0
BBX 12 12 -1 -2
BITMAP
1100
FFE0
1100
0A00
FBE0
0A00
7BC0
0A00
FBE0
0A00
0A00
0000
ENDCHAR
STARTCHAR 975E
ENCODING 38750
SWIDTH 1000 0
DWIDTH 12 0
BBX 12 12 -1 -2
BITMAP
0A00
0A00
FBE0
0A00
0A00
7BC0
0A00
0A00
FBE0
0A00
0A00
0000
ENDCHAR
STARTCHAR 5561
ENCODING 21857
SWIDTH 1000 0
DWIDTH 12 0
BBX 12 12 -1 -2
BITMAP
0280
E280
BEE0
A280
AEE0
A280
E280
BEE0
0280
0280
0280
0000
ENDCHAR
STARTCHAR 98DE
ENCODING 39134
SWIDTH 1000 0
DWIDTH 12 0
BBX 12 12 -1 -2
BITMAP
FC00
0440
0480
0500
0700
0480
0440
0200
0220
0120
00E0
0000
ENDCHAR
STARTCHAR 80A5
ENCODING 32933
SWIDTH 1000 0
DWIDTH 12 0
BBX 12 12 -1 -2
BITMAP
77E0
5520
5520
7520
57E0
5400
7400
5400
5420
9420
B7E0
0000
ENDCHAR
STARTCHAR 532A
ENCODING 21290
SWIDTH 1000 0
DWIDTH 12 0
BBX 12 12 -1 -2
BITMAP
7FE0
4900
4900
79E0
4900
79E0
4900
79E0
4900
4900
7FE0
0000
ENDCHAR
STARTCHAR 8BFD
ENCODING 35837
SWIDTH 1000 0
DWIDTH 12 0
BBX 12 12 -1 -2
BITMAP
8280
4280
5EE0
0280
C280
5EE0
4280
5EE0
5280
6280
0280
0000
ENDCHAR
STARTCHAR 5420
ENCODING 21536
SWIDTH 1000 0
DWIDTH 12 0
BBX 12 12 -1 -2
BITMAP
0200
F280
9240
9FE0
9200
9200
F200
9500
0480
0840
3020
0000
ENDCHAR
STARTCHAR 80BA
ENCODING 32954
SWIDTH 1000 0
DWIDTH 12 0
BBX 12 12 -1 -2
BITMAP
7100
5100
5FE0
7100
57E0
5520
7520
5520
5560
9100
B100
0000
ENDCHAR
STARTCHAR 5E9F
ENCODING 24223
SWIDTH 1000 0
DWIDTH 12 0
BBX 12 12 -1 -2
BITMAP
0200
7FE0
4280
5240
5FE0
4400
4780
4C80
5280
A300
9CE0
0000
ENDCHAR
STARTCHAR 6CB8
ENCODING 27832
SWIDTH 1000 0
DWIDTH 12 0
BBX 12 12 -1 -2
BITMAP
8500
5FC0
0540
8540
5FC0
1500
5FE0
4520
C520
49C0
5100
0000
ENDCHAR
STARTCHAR 8D39
ENCODING 36153
SWIDTH 1000 0
DWIDTH 12 0
BBX 12 12 -1 -2
BITMAP
0A00
7FC0
4A40
7FE0
1220
E2C0
3F80
2480
2480
0B00
F0C0
0000
ENDCHAR
STARTCHAR 82AC
ENCODING 33452
SWIDTH 1000 0
DWIDTH 12 0
BBX 12 12 -1 -2
BITMAP
1100
FFE0
1100
0A00
1100
2080
DF60
0900
0900
1100
6700
0000
ENDCHAR
STARTCHAR 915A
ENCODING 37210
SWIDTH 1000 0
DWIDTH 12 0
BBX 12 12 -1 -2
BITMAP
F880
5280
FA40
AA40
AC20
DBC0
8940
F940
8A40
FA40
8D80
0000
ENDCHAR
STARTCHAR 5429
ENCODING 21545
SWIDTH 1000 0
DWIDTH 12 0
BBX 12 12 -1 -2
BITMAP
0280
E280
A440
A440
A820
B7C0
A240
E240
0440
0840
3380
0000
ENDCHAR
STARTCHAR 6C1B
ENCODING 27675
SWIDTH 1000 0
DWIDTH 12 0
BBX 12 12 -1 -2
BITMAP
2040
3FE0
4000
FF80
0080
2480
4280
FD80
14A0
2460
CC20
0000
ENDCHAR
STARTCHAR 5206
ENCODING 20998
SWIDTH 1000 0
DWIDTH 12 0
BBX 12 12 -1 -2
BITMAP
1100
1100
2080
2080
4040
BFA0
0880
0880
1080
2080
C700
0000
ENDCHAR
STARTCHAR 7EB7
ENCODING 32439
SWIDTH 1000 0
DWIDTH 12 0
BBX 12 12 -1 -2
BITMAP
2080
2280
5240
9440
E820
47C0
B240
C240
3240
C440
1980
0000
ENDCHAR
STARTCHAR 575F
ENCODING 22367
SWIDTH 1000 0
DWIDTH 12 0
BBX 12 12 -1 -2
BITMAP
2200
2100
2FE0
F480
2480
2480
2280
3900
C300
0480
3860
0000
ENDCHAR
STARTCHAR 711A
ENCODING 28954
SWIDTH 1000 0
DWIDTH 12 0
BBX 12 12 -1 -2
BITMAP
1100
FBE0
3180
5B40
9520
1100
0440
2480
4B00
1100
E0E0
0000
ENDCHAR
STARTCHAR 6C7E
ENCODING 27774
SWIDTH 1000 0
DWIDTH 12 0
BBX 12 12 -1 -2
BITMAP
4280
2280
0480
A440
6840
37E0
4240
C240
4440
4840
5380
0000
ENDCHAR
STARTCHAR 7C89
ENCODING 31881
SWIDTH 1000 0
DWIDTH 12 0
BBX 12 12 -1 -2
BITMAP
2280
AA80
7280
2440
F820
27C0
7240
AA40
A240
2440
2980
0000
ENDCHAR
STARTCHAR 594B
ENCODING 22859
SWIDTH 1000 0
DWIDTH 12 0
BBX 12 12 -1 -2
BITMAP
0400
FFE0
0A00
1100
2080
FFE0
2480
3F80
2480
2480
3F80
0000
ENDCHAR
STARTCHAR 4EFD
ENCODING 20221
SWIDTH 1000 0
DWIDTH 12 0
BBX 12 12 -1 -2
BITMAP
2500
2500
2480
4880
5040
CFA0
4480
4480
4480
4880
5380
0000
ENDCHAR
STARTCHAR 5FFF
ENCODING 24575
SWIDTH 1000 0
DWIDTH 12 0
BBX 12 12 -1 -2
BITMAP
0A00
1100
2080
DF60
0900
1100
2700
D040
5420
52A0
9F80
0000
ENDCHAR
STARTCHAR 6124
ENCODING 24868
SWIDTH 1000 0
DWIDTH 12 0
BBX 12 12 -1 -2
BITMAP
4100
4FE0
6480
DFE0
C480
CFC0
4840
4A40
4A40
4580
5860
0000
ENDCHAR
STARTCHAR 7CAA
ENCODING 31914
SWIDTH 1000 0
DWIDTH 12 0
BBX 12 12 -1 -2
BITMAP
2480
1500
FFE0
1500
E4E0
1100
7FC0
1100
FFE0
1100
E0E0
0000
ENDCHAR
STARTCHAR 4E30
ENCODING 20016
SWIDTH 1000 0
DWIDTH 12 0
BBX 12 12 -1 -2
BITMAP
0400
0440
FFE0
0400
0400
7FC0
0400
FFE0
0400
0400
0400
0000
ENDCHAR
STARTCHAR 5C01
ENCODING 23553
SWIDTH 1000 0
DWIDTH 12 0
BBX 12 12 -1 -2
BITMAP
2040
2040
FC40
23E0
FC40
0240
2140
FD40
2040
3C40
C1C0
0000
ENDCHAR
STARTCHAR 67AB
ENCODING 26539
SWIDTH 1000 0
DWIDTH 12 0
BBX 12 12 -1 -2
BITMAP
4040
4FE0
4940
E940
4D40
6A40
CB40
CD40
4940
4860
5020
0000
ENDCHAR
STARTCHAR 8702
ENCODING 34562
SWIDTH 1000 0
DWIDTH 12 0
BBX 12 12 -1 -2
BITMAP
2200
23C0
2540
FA80
AD40
ABA0
F900
23C0
3900
EFE0
8100
0000
ENDCHAR
STARTCHAR 5CF0
ENCODING 23792
SWIDTH 1000 0
DWIDTH 12 0
BBX 12 12 -1 -2
BITMAP
2200
23C0
AE40
A980
AA40
AFE0
A900
BFC0
C100
0FE0
0100
0000
ENDCHAR
STARTCHAR 950B
ENCODING 38155
SWIDTH 1000 0
DWIDTH 12 0
BBX 12 12 -1 -2
BITMAP
4200
47C0
7A80
8380
F560
4FC0
F100
47C0
5100
6FE0
0100
0000
ENDCHAR
STARTCHAR 98CE
ENCODING 39118
SWIDTH 1000 0
DWIDTH 12 0
BBX 12 12 -1 -2
BITMAP
0080
7FC0
4080
5280
4A80
4480
4480
4A80
52A0
A060
8020
0000
ENDCHAR
STARTCHAR 75AF
ENCODING 30127
SWIDTH 1000 0
DWIDTH 12 0
BBX 12 12 -1 -2
BITMAP
0200
3FE0
A000
6FC0
2940
6D40
AA40
2A40
4D40
5160
A020
0000
ENDCHAR
STARTCHAR 70FD
ENCODING 28925
SWIDTH 1000 0
DWIDTH 12 0
BBX 12 12 -1 -2
BITMAP
2200
27C0
2A80
B380
AD60
A7C0
2100
2FC0
5100
4FE0
8100
0000
ENDCHAR
STARTCHAR 9022
ENCODING 36898
SWIDTH 1000 0
DWIDTH 12 0
BBX 12 12 -1 -2
BITMAP
8400
4FC0
5480
0300
DCE0
4200
4F80
4200
5FC0
A200
9FE0
0000
ENDCHAR
STARTCHAR 51AF
ENCODING 20911
SWIDTH 1000 0
DWIDTH 12 0
BBX 12 12 -1 -2
BITMAP
9FC0
4040
4440
2480
2480
2FE0
4020
C020
5FA0
4020
41C0
0000
ENDCHAR
STARTCHAR 7F1D
ENCODING 32541
SWIDTH 1000 0
DWIDTH 12 0
BBX 12 12 -1 -2
BITMAP
5100
4BE0
8A40
A1C0
C2A0
5880
EBE0
0880
3BE0
C880
17E0
0000
ENDCHAR
STARTCHAR 8BBD
ENCODING 35773
SWIDTH 1000 0
DWIDTH 12 0
BBX 12 12 -1 -2
BITMAP
4FC0
2840
0840
0940
CD40
4A40
4A40
4D40
6940
5060
2020
0000
ENDCHAR
STARTCHAR 5949
ENCODING 22857
SWIDTH 1000 0
DWIDTH 12 0
BBX 12 12 -1 -2
BITMAP
0400
7FC0
0400
3F80
0800
FFE0
2480
DF60
0400
3FC0
0400
0000
ENDCHAR
STARTCHAR 51E4
ENCODING 20964
SWIDTH 1000 0
DWIDTH 12 0
BBX 12 12 -1 -2
BITMAP
7F80
4080
4080
5E80
5280
4C80
4480
4A80
51A0
A060
8020
0000
ENDCHAR
STARTCHAR 4F5B
ENCODING 20315
SWIDTH 1000 0
DWIDTH 12 0
BBX 12 12 -1 -2
BITMAP
2500
2500
5FC0
4540
DFC0
5500
5FE0
4520
4520
49C0
5100
0000
ENDCHAR
STARTCHAR 5426
ENCODING 21542
SWIDTH 1000 0
DWIDTH 12 0
BBX 12 12 -1 -2
BITMAP
FFE0
0400
0F00
34C0
C420
0400
3F80
2080
2080
3F80
2080
0000
ENDCHAR
STARTCHAR 592B
ENCODING 22827
SWIDTH 1000 0
DWIDTH 12 0
BBX 12 12 -1 -2
BITMAP
0400
0480
7FC0
0400
0400
FFE0
0400
0A00
1100
2080
C060
0000
ENDCHAR
STARTCHAR 6577
ENCODING 25975
SWIDTH 1000 0
DWIDTH 12 0
BBX 12 12 -1 -2
BITMAP
2900
FD00
21E0
FB40
A940
F940
A940
FC80
2880
4940
BA20
0000
ENDCHAR
STARTCHAR 80A4
ENCODING 32932
SWIDTH 1000 0
DWIDTH 12 0
BBX 12 12 -1 -2
BITMAP
7100
5100
5FE0
7100
5100
5FE0
7100
5280
5280
5440
B820
0000
ENDCHAR
STARTCHAR 5B75
ENCODING 23413
SWIDTH 1000 0
DWIDTH 12 0
BBX 12 12 -1 -2
BITMAP
6040
9DA0
B6A0
B540
FDE0
B440
F480
BFE0
3080
5080
9180
0000
ENDCHAR
STARTCHAR 6276
ENCODING 25206
SWIDTH 1000 0
DWIDTH 12 0
BBX 12 12 -1 -2
BITMAP
2100
2100
F7E0
2100
3100
6FE0
A100
2280
2280
2440
F820
0000
ENDCHAR
STARTCHAR 62C2
ENCODING 25282
SWIDTH 1000 0
DWIDTH 12 0
BBX 12 12 -1 -2
BITMAP
4280
4280
EFE0
42A0
4FE0
6A80
CFE0
42A0
42A0
44E0
C880
0000
ENDCHAR
STARTCHAR 8F90
ENCODING 36752
SWIDTH 1000 0
DWIDTH 12 0
BBX 12 12 -1 -2
BITMAP
4FE0
4000
F7C0
A440
A7C0
F000
2FE0
3920
EFE0
2920
2FE0
0000
ENDCHAR
STARTCHAR 5E45
ENCODING 24133
SWIDTH 1000 0
DWIDTH 12 0
BBX 12 12 -1 -2
BITMAP
2FE0
2000
FBC0
AA40
ABC0
A800
AFE0
BD20
27E0
2520
27E0
0000
ENDCHAR
STARTCHAR 6C1F
ENCODING 27679
SWIDTH 1000 0
DWIDTH 12 0
BBX 12 12 -1 -2
BITMAP
2000
3FE0
4000
FF80
1480
7F80
5480
7F80
15A0
2760
C420
0000
ENDCHAR
STARTCHAR 7B26
ENCODING 31526
SWIDTH 1000 0
DWIDTH 12 0
BBX 12 12 -1 -2
BITMAP
2100
7DE0
9240
1480
2080
2FE0
6880
A480
2480
2080
2380
0000
ENDCHAR
STARTCHAR 4F0F
ENCODING 20239
SWIDTH 1000 0
DWIDTH 12 0
BBX 12 12 -1 -2
BITMAP
1200
1280
2240
3FE0
6200
A200
2300
2480
2480
2840
3020
0000
ENDCHAR
STARTCHAR 4FD8
ENCODING 20440
SWIDTH 1000 0
DWIDTH 12 0
BBX 12 12 -1 -2
BITMAP
21C0
3E40
4940
4480
CFC0
4080
4100
5FE0
4100
4100
4700
0000
ENDCHAR
STARTCHAR 670D
ENCODING 26381
SWIDTH 1000 0
DWIDTH 12 0
BBX 12 12 -1 -2
BITMAP
77C0
5440
5440
75C0
5400
57C0
7540
5540
5480
9540
B620
0000
ENDCHAR
STARTCHAR 6D6E
ENCODING 28014
SWIDTH 1000 0
DWIDTH 12 0
BBX 12 12 -1 -2
BITMAP
41C0
2E40
0A80
A500
6FC0
2080
4100
5FE0
C100
4100
4700
0000
ENDCHAR
STARTCHAR 6DAA
ENCODING 28074
SWIDTH 1000 0
DWIDTH 12 0
BBX 12 12 -1 -2
BITMAP
8200
5FE0
0880
A480
6500
3FE0
4000
4FC0
C840
4840
4FC0
0000
ENDCHAR
STARTCHAR 798F
ENCODING 31119
SWIDTH 1000 0
DWIDTH 12 0
BBX 12 12 -1 -2
BITMAP
4FE0
2000
F7C0
1440
27C0
3000
6FE0
A920
2FE0
2920
2FE0
0000
ENDCHAR
STARTCHAR 88B1
ENCODING 34993
SWIDTH 1000 0
DWIDTH 12 0
BBX 12 12 -1 -2
BITMAP
4500
2540
E520
2900
2FE0
5900
E900
5980
4A40
4A40
4C20
0000
ENDCHAR
STARTCHAR 5F17
ENCODING 24343
SWIDTH 1000 0
DWIDTH 12 0
BBX 12 12 -1 -2
BITMAP
0900
7FC0
0940
0940
7FC0
4900
7FE0
0920
1120
21C0
C100
0000
ENDCHAR
STARTCHAR 752B
ENCODING 29995
SWIDTH 1000 0
DWIDTH 12 0
BBX 12 12 -1 -2
BITMAP
0480
FFE0
0400
3FC0
2440
3FC0
2440
3FC0
2440
2440
24C0
0000
ENDCHAR
STARTCHAR 629A
ENCODING 25242
SWIDTH 1000 0
DWIDTH 12 0
BBX 12 12 -1 -2
BITMAP
2040
2FE0
F200
2200
2FE0
3280
E280
2480
24A0
28A0
F0E0
0000
ENDCHAR
STARTCHAR 8F85
ENCODING 36741
SWIDTH 1000 0
DWIDTH 12 0
BBX 12 12 -1 -2
BITMAP
4140
4140
F7E0
4100
A7E0
F520
27E0
3520
E7E0
2520
2560
0000
ENDCHAR
STARTCHAR 4FEF
ENCODING 20463
SWIDTH 1000 0
DWIDTH 12 0
BBX 12 12 -1 -2
BITMAP
2100
2FE0
2A40
4A40
4BE0
CE40
4B40
4AC0
5240
5240
62C0
0000
ENDCHAR
STARTCHAR 91DC
ENCODING 37340
SWIDTH 1000 0
DWIDTH 12 0
BBX 12 12 -1 -2
BITMAP
1100
20C0
D100
0E00
3180
DF60
0400
7FC0
2480
1500
FFE0
0000
ENDCHAR
STARTCHAR 65A7
ENCODING 26023
SWIDTH 1000 0
DWIDTH 12 0
BBX 12 12 -1 -2
BITMAP
1180
3140
CA00
0E00
31E0
DF00
2000
3FC0
2200
2200
C200
0000
ENDCHAR
STARTCHAR 812F
ENCODING 33071
SWIDTH 1000 0
DWIDTH 12 0
BBX 12 12 -1 -2
BITMAP
7140
5140
5FE0
7100
57E0
5520
77E0
5520
57E0
9520
B560
0000
ENDCHAR
STARTCHAR 8151
ENCODING 33105
SWIDTH 1000 0
DWIDTH 12 0
BBX 12 12 -1 -2
BITMAP
E100
AFE0
AA40
EA40
ABE0
AE40
EB40
AAC0
AA40
AA40
B2C0
0000
ENDCHAR
STARTCHAR 5E9C
ENCODING 24220
SWIDTH 1000 0
DWIDTH 12 0
BBX 12 12 -1 -2
BITMAP
0400
7FE0
4880
4880
57E0
5080
7480
5280
5280
9080
9180
0000
ENDCHAR
STARTCHAR 8150
ENCODING 33104
SWIDTH 1000 0
DWIDTH 12 0
BBX 12 12 -1 -2
BITMAP
0400
7FE0
4880
5FC0
6880
4A80
5FC0
5540
5AC0
9540
90C0
0000
ENDCHAR
STARTCHAR 8D74
ENCODING 36212
SWIDTH 1000 0
DWIDTH 12 0
BBX 12 12 -1 -2
BITMAP
1100
7D00
1100
1180
FF40
1120
5100
5D00
5100
B000
8FE0
0000
ENDCHAR
STARTCHAR 526F
ENCODING 21103
SWIDTH 1000 0
DWIDTH 12 0
BBX 12 12 -1 -2
BITMAP
FE20
0020
7D20
4520
7D20
0120
FD20
9520
FD20
9420
FCE0
0000
ENDCHAR
STARTCHAR 8986
ENCODING 35206
SWIDTH 1000 0
DWIDTH 12 0
BBX 12 12 -1 -2
BITMAP
FFE0
4A40
7FC0
2400
47E0
AC40
27C0
6440
A7C0
2980
2E60
0000
ENDCHAR
STARTCHAR 8D4B
ENCODING 36171
SWIDTH 1000 0
DWIDTH 12 0
BBX 12 12 -1 -2
BITMAP
0080
F7A0
90A0
DFE0
D280
D280
DB80
CA80
6AA0
9B60
8C20
0000
ENDCHAR
STARTCHAR 590D
ENCODING 22797
SWIDTH 1000 0
DWIDTH 12 0
BBX 12 12 -1 -2
BITMAP
1040
3FE0
6080
BF80
2080
3F80
1000
1F80
6900
0600
F9E0
0000
ENDCHAR
STARTCHAR 5085
ENCODING 20613
SWIDTH 1000 0
DWIDTH 12 0
BBX 12 12 -1 -2
BITMAP
2280
3FE0
4A40
4FC0
CA40
4FC0
4A40
4080
5FE0
4480
4180
0000
ENDCHAR
STARTCHAR 4ED8
ENCODING 20184
SWIDTH 1000 0
DWIDTH 12 0
BBX 12 12 -1 -2
BITMAP
1080
1080
2080
2FE0
6080
A880
2480
2480
2080
2080
2380
0000
ENDCHAR
STARTCHAR 961C
ENCODING 38428
SWIDTH 1000 0
DWIDTH 12 0
BBX 12 12 -1 -2
BITMAP
0400
3F80
2080
3F80
2000
3F80
2080
3F80
0400
FFE0
0400
0000
ENDCHAR
STARTCHAR 7236
ENCODING 29238
SWIDTH 1000 0
DWIDTH 12 0
BBX 12 12 -1 -2
BITMAP
1100
1080
2040
D120
1100
1100
0A00
0400
0A00
3180
C060
0000
ENDCHAR
STARTCHAR 8179
ENCODING 33145
SWIDTH 1000 0
DWIDTH 12 0
BBX 12 12 -1 -2
BITMAP
7200
57E0
5C40
77C0
5440
57C0
7200
53C0
5680
9180
BE60
0000
ENDCHAR
STARTCHAR 8D1F
ENCODING 36127
SWIDTH 1000 0
DWIDTH 12 0
BBX 12 12 -1 -2
BITMAP
0800
1F00
2200
7F80
A080
2480
2480
2480
2600
0980
F040
0000
ENDCHAR
STARTCHAR 5BCC
ENCODING 23500
SWIDTH 1000 0
DWIDTH 12 0
BBX 12 12 -1 -2
BITMAP
0400
7FE0
4020
BFC0
1080
1F80
3FC0
2440
3FC0
2440
3FC0
0000
ENDCHAR
STARTCHAR 8BA3
ENCODING 35747
SWIDTH 1000 0
DWIDTH 12 0
BBX 12 12 -1 -2
BITMAP
4100
2100
2100
0100
E180
2140
2120
2500
2900
3100
0100
0000
ENDCHAR
STARTCHAR 9644
ENCODING 38468
SWIDTH 1000 0
DWIDTH 12 0
BBX 12 12 -1 -2
BITMAP
F240
9240
9440
ADE0
A440
9540
94C0
F440
8440
8440
85C0
0000
ENDCHAR
STARTCHAR 5987
ENCODING 22919
SWIDTH 1000 0
DWIDTH 12 0
BBX 12 12 -1 -2
BITMAP
2000
27E0
F820
4820
4820
4BE0
5020
7020
1020
2FE0
C020
0000
ENDCHAR
STARTCHAR 7F1A
ENCODING 32538
SWIDTH 1000 0
DWIDTH 12 0
BBX 12 12 -1 -2
BITMAP
4140
4FE0
5100
9FC0
E940
4FC0
A940
DFE0
0480
3280
C180
0000
ENDCHAR
STARTCHAR 5490
ENCODING 21648
SWIDTH 1000 0
DWIDTH 12 0
BBX 12 12 -1 -2
BITMAP
0440
E440
A440
AFE0
B840
AA40
A940
E940
A840
0840
09C0
0000
ENDCHAR
STARTCHAR 5676
ENCODING 22134
SWIDTH 1000 0
DWIDTH 12 0
BBX 12 12 -1 -2
BITMAP
1FE0
E480
AFC0
A840
AFC0
A440
EFE0
B920
8AA0
0FA0
00C0
0000
ENDCHAR
STARTCHAR 560E
ENCODING 22030
SWIDTH 1000 0
DWIDTH 12 0
BBX 12 12 -1 -2
BITMAP
1FE0
E200
AFC0
A840
AFC0
A840
EFC0
A260
1F80
0320
3CE0
0000
ENDCHAR
STARTCHAR 8BE5
ENCODING 35813
SWIDTH 1000 0
DWIDTH 12 0
BBX 12 12 -1 -2
BITMAP
4100
2FE0
2200
0240
C440
4F80
4120
4240
5480
6340
0C20
0000
ENDCHAR
STARTCHAR 6539
ENCODING 25913
SWIDTH 1000 0
DWIDTH 12 0
BBX 12 12 -1 -2
BITMAP
F200
13E0
1240
1440
F440
8A40
8280
8100
9980
E240
0C20
0000
ENDCHAR
STARTCHAR 6982
ENCODING 27010
SWIDTH 1000 0
DWIDTH 12 0
BBX 12 12 -1 -2
BITMAP
4FE0
4A40
FA40
4E40
4A40
EFE0
C840
4AC0
4D40
4A40
4460
0000
ENDCHAR
STARTCHAR 9499
ENCODING 38041
SWIDTH 1000 0
DWIDTH 12 0
BBX 12 12 -1 -2
BITMAP
4FE0
4100
7500
85E0
F500
2500
F7E0
2020
2820
3020
21C0
0000
ENDCHAR
STARTCHAR 76D6
ENCODING 30422
SWIDTH 1000 0
DWIDTH 12 0
BBX 12 12 -1 -2
BITMAP
1100
7FC0
0400
7FC0
0400
FFE0
0000
7FC0
4A40
4A40
FFE0
0000
ENDCHAR
STARTCHAR 6E89
ENCODING 28297
SWIDTH 1000 0
DWIDTH 12 0
BBX 12 12 -1 -2
BITMAP
9DE0
5480
1480
9C80
B680
5FE0
50C0
D540
5D40
5240
4460
0000
ENDCHAR
STARTCHAR 5E72
ENCODING 24178
SWIDTH 1000 0
DWIDTH 12 0
BBX 12 12 -1 -2
BITMAP
0080
7FC0
0400
0400
0400
FFE0
0400
0400
0400
0400
0400
0000
ENDCHAR
STARTCHAR 7518
ENCODING 29976
SWIDTH 1000 0
DWIDTH 12 0
BBX 12 12 -1 -2
BITMAP
2100
2100
FFE0
2100
2100
2100
3F00
2100
2100
2100
3F00
0000
ENDCHAR
STARTCHAR 6746
ENCODING 26438
SWIDTH 1000 0
DWIDTH 12 0
BBX 12 12 -1 -2
BITMAP
2040
27E0
F900
2100
6100
77E0
A900
A100
2100
2100
2100
0000
ENDCHAR
STARTCHAR 67D1
ENCODING 26577
SWIDTH 1000 0
DWIDTH 12 0
BBX 12 12 -1 -2
BITMAP
2440
2440
FFE0
2440
2440
6440
77C0
A440
A440
2440
27C0
0000
ENDCHAR
STARTCHAR 7AFF
ENCODING 31487
SWIDTH 1000 0
DWIDTH 12 0
BBX 12 12 -1 -2
BITMAP
2100
3DE0
5280
8000
7FC0
0400
0400
FFE0
0400
0400
0400
0000
ENDCHAR
STARTCHAR 809D
ENCODING 32925
SWIDTH 1000 0
DWIDTH 12 0
BBX 12 12 -1 -2
BITMAP
77E0
5100
5100
7100
5100
5FE0
7100
5100
5100
9100
B100
0000
ENDCHAR
STARTCHAR 8D76
ENCODING 36214
SWIDTH 1000 0
DWIDTH 12 0
BBX 12 12 -1 -2
BITMAP
13E0
7C80
1080
1080
FC80
13E0
5080
5C80
5080
B080
8FE0
0000
ENDCHAR
STARTCHAR 611F
ENCODING 24863
SWIDTH 1000 0
DWIDTH 12 0
BBX 12 12 -1 -2
BITMAP
0140
7FE0
4100
7F40
5D40
54A0
9D60
8220
5440
52A0
9F80
0000
ENDCHAR
STARTCHAR 79C6
ENCODING 31174
SWIDTH 1000 0
DWIDTH 12 0
BBX 12 12 -1 -2
BITMAP
37E0
E080
2080
F880
2080
77E0
6880
A080
A080
2080
2080
0000
ENDCHAR
STARTCHAR 6562
ENCODING 25954
SWIDTH 1000 0
DWIDTH 12 0
BBX 12 12 -1 -2
BITMAP
7900
1100
FDE0
4B40
7940
4940
7940
4C80
7880
C940
0E20
0000
ENDCHAR
STARTCHAR 8D63
ENCODING 36195
SWIDTH 1000 0
DWIDTH 12 0
BBX 12 12 -1 -2
BITMAP
2200
FFE0
5280
FD60
4BC0
7880
4BE0
7A20
22A0
F940
2620
0000
ENDCHAR
STARTCHAR 5188
ENCODING 20872
SWIDTH 1000 0
DWIDTH 12 0
BBX 12 12 -1 -2
BITMAP
FFC0
8040
A140
9140
8A40
8440
8A40
9140
A140
8040
80C0
0000
ENDCHAR
STARTCHAR 521A
ENCODING 21018
SWIDTH 1000 0
DWIDTH 12 0
BBX 12 12 -1 -2
BITMAP
FE20
8220
8AA0
CAA0
B2A0
92A0
AAA0
CAA0
82A0
8220
9EE0
0000
ENDCHAR
STARTCHAR 94A2
ENCODING 38050
SWIDTH 1000 0
DWIDTH 12 0
BBX 12 12 -1 -2
BITMAP
47E0
4420
7CA0
86A0
F5A0
24A0
F560
2620
2420
3420
2460
0000
ENDCHAR
STARTCHAR 7F38
ENCODING 32568
SWIDTH 1000 0
DWIDTH 12 0
BBX 12 12 -1 -2
BITMAP
4000
7BE0
A080
2080
FC80
2080
A880
A880
A880
B880
CBE0
0000
ENDCHAR
STARTCHAR 809B
ENCODING 32923
SWIDTH 1000 0
DWIDTH 12 0
BBX 12 12 -1 -2
BITMAP
7000
57E0
5080
7080
5080
5080
7080
5080
5080
9080
B7E0
0000
ENDCHAR
STARTCHAR 7EB2
ENCODING 32434
SWIDTH 1000 0
DWIDTH 12 0
BBX 12 12 -1 -2
BITMAP
27E0
2420
54A0
96A0
E5A0
24A0
5560
E620
1420
E420
0460
0000
ENDCHAR
STARTCHAR 5C97
ENCODING 23703
SWIDTH 1000 0
DWIDTH 12 0
BBX 12 12 -1 -2
BITMAP
4440
4440
7FC0
0000
7FC0
5140
4A40
4440
4A40
7140
40C0
0000
ENDCHAR
STARTCHAR 6E2F
ENCODING 28207
SWIDTH 1000 0
DWIDTH 12 0
BBX 12 12 -1 -2
BITMAP
8480
5FE0
0480
8480
5FE0
4880
5FC0
A8A0
8F80
8820
8FE0
0000
ENDCHAR
STARTCHAR 6760
ENCODING 26464
SWIDTH 1000 0
DWIDTH 12 0
BBX 12 12 -1 -2
BITMAP
2000
27E0
F900
2100
2100
7100
6900
A100
A100
2100
2FE0
0000
ENDCHAR
STARTCHAR 7BD9
ENCODING 31705
SWIDTH 1000 0
DWIDTH 12 0
BBX 12 12 -1 -2
BITMAP
2200
7BE0
9480
FFE0
2080
3F80
0000
7FC0
5140
5F40
40C0
0000
ENDCHAR
STARTCHAR 768B
ENCODING 30347
SWIDTH 1000 0
DWIDTH 12 0
BBX 12 12 -1 -2
BITMAP
0800
3F80
2080
3F80
2080
FFE0
1100
2480
7FC0
8420
0400
0000
ENDCHAR
STARTCHAR 9AD8
ENCODING 39640
SWIDTH 1000 0
DWIDTH 12 0
BBX 12 12 -1 -2
BITMAP
0400
FFE0
0000
1F80
1080
7FE0
4020
5F20
5120
5F20
40E0
0000
ENDCHAR
STARTCHAR 818F
ENCODING 33167
SWIDTH 1000 0
DWIDTH 12 0
BBX 12 12 -1 -2
BITMAP
0400
FFE0
1100
FFE0
9F20
1100
3F80
2080
3F80
2080
2380
0000
ENDCHAR
STARTCHAR 7F94
ENCODING 32660
SWIDTH 1000 0
DWIDTH 12 0
BBX 12 12 -1 -2
BITMAP
1100
0A40
FFE0
0400
7FC0
0400
0400
FFE0
0000
5240
8920
0000
ENDCHAR
STARTCHAR 7CD5
ENCODING 31957
SWIDTH 1000 0
DWIDTH 12 0
BBX 12 12 -1 -2
BITMAP
2440
AA80
77E0
2100
F7E0
2100
7100
AFE0
A000
2AA0
2AA0
0000
ENDCHAR
STARTCHAR 641E
ENCODING 25630
SWIDTH 1000 0
DWIDTH 12 0
BBX 12 12 -1 -2
BITMAP
2100
2FE0
F000
27C0
2440
3FE0
E820
2BA0
2AA0
2BA0
E860
0000
ENDCHAR
STARTCHAR 9550
ENCODING 38224
SWIDTH 1000 0
DWIDTH 12 0
BBX 12 12 -1 -2
BITMAP
4100
4FE0
7000
87C0
F440
4FE0
F820
4BA0
5AA0
6BA0
4860
0000
ENDCHAR
STARTCHAR 7A3F
ENCODING 31295
SWIDTH 1000 0
DWIDTH 12 0
BBX 12 12 -1 -2
BITMAP
3100
EFE0
2000
F7C0
2440
6FE0
7820
ABA0
AAA0
2BA0
2860
0000
ENDCHAR
STARTCHAR 544A
ENCODING 21578
SWIDTH 1000 0
DWIDTH 12 0
BBX 12 12 -1 -2
BITMAP
2400
2480
3FC0
4400
FFE0
0000
3F80
2080
2080
3F80
2080
0000
ENDCHAR
STARTCHAR 54E5
ENCODING 21733
SWIDTH 1000 0
DWIDTH 12 0
BBX 12 12 -1 -2
BITMAP
FFE0
3C80
2480
3C80
0080
FFE0
3C80
2480
3C80
2480
0380
0000
ENDCHAR
STARTCHAR 6B4C
ENCODING 27468
SWIDTH 1000 0
DWIDTH 12 0
BBX 12 12 -1 -2
BITMAP
FD00
0900
EBE0
AA20
FD40
0900
E900
A900
EA80
0C40
1820
0000
ENDCHAR
STARTCHAR 6401
ENCODING 25601
SWIDTH 1000 0
DWIDTH 12 0
BBX 12 12 -1 -2
BITMAP
4800
45E0
EA20
4BA0
4EA0
6920
CAA0
4FE0
4AA0
4BA0
C860
0000
ENDCHAR
STARTCHAR 6208
ENCODING 25096
SWIDTH 1000 0
DWIDTH 12 0
BBX 12 12 -1 -2
BITMAP
0900
0880
09E0
FE00
0840
0480
0500
0600
0A20
3120
C0E0
0000
ENDCHAR
STARTCHAR 9E3D
ENCODING 40509
SWIDTH 1000 0
DWIDTH 12 0
BBX 12 12 -1 -2
BITMAP
2100
37C0
4C40
8540
74C0
0400
77E0
5020
5FA0
7020
40C0
0000
ENDCHAR
STARTCHAR 80F3
ENCODING 33011
SWIDTH 1000 0
DWIDTH 12 0
BBX 12 12 -1 -2
BITMAP
7200
53C0
5440
7A80
5100
5280
7C60
57C0
5440
9440
B7C0
0000
ENDCHAR
STARTCHAR 7599
ENCODING 30105
SWIDTH 1000 0
DWIDTH 12 0
BBX 12 12 -1 -2
BITMAP
0200
3FE0
A400
67C0
2800
7FC0
A100
2200
2420
4820
8FE0
0000
ENDCHAR
STARTCHAR 5272
ENCODING 21106
SWIDTH 1000 0
DWIDTH 12 0
BBX 12 12 -1 -2
BITMAP
1020
FE20
92A0
7CA0
10A0
FEA0
10A0
7CA0
4420
4420
7CE0
0000
ENDCHAR
STARTCHAR 9769
ENCODING 38761
SWIDTH 1000 0
DWIDTH 12 0
BBX 12 12 -1 -2
BITMAP
1100
FFE0
1100
1F00
0400
3FC0
2440
3FC0
0400
FFE0
0400
0000
ENDCHAR
STARTCHAR 845B
ENCODING 33883
SWIDTH 1000 0
DWIDTH 12 0
BBX 12 12 -1 -2
BITMAP
FFE0
0900
3F80
2080
3F80
2080
3FC0
6440
AA40
3E40
0180
0000
ENDCHAR
STARTCHAR 683C
ENCODING 26684
SWIDTH 1000 0
DWIDTH 12 0
BBX 12 12 -1 -2
BITMAP
2200
23C0
F440
2A80
6100
7280
AC60
A7C0
2440
2440
27C0
0000
ENDCHAR
STARTCHAR 86E4
ENCODING 34532
SWIDTH 1000 0
DWIDTH 12 0
BBX 12 12 -1 -2
BITMAP
2100
2100
FA80
AC40
ABA0
A800
FFC0
2440
2440
FC40
87C0
0000
ENDCHAR
STARTCHAR 9601
ENCODING 38401
SWIDTH 1000 0
DWIDTH 12 0
BBX 12 12 -1 -2
BITMAP
4FE0
2820
4FA0
5920
6620
4920
7FE0
4920
4920
4F20
40E0
0000
ENDCHAR
STARTCHAR 9694
ENCODING 38548
SWIDTH 1000 0
DWIDTH 12 0
BBX 12 12 -1 -2
BITMAP
EFE0
A000
A7C0
C440
A7C0
A000
AFE0
EAA0
8FE0
8920
8960
0000
ENDCHAR
STARTCHAR 94EC
ENCODING 38124
SWIDTH 1000 0
DWIDTH 12 0
BBX 12 12 -1 -2
BITMAP
4200
43C0
7440
8A80
F100
4280
F460
47C0
5440
6440
47C0
0000
ENDCHAR
STARTCHAR 4E2A
ENCODING 20010
SWIDTH 1000 0
DWIDTH 12 0
BBX 12 12 -1 -2
BITMAP
0400
0A00
1100
2480
C460
0400
0400
0400
0400
0400
0400
0000
ENDCHAR
STARTCHAR 5404
ENCODING 21508
SWIDTH 1000 0
DWIDTH 12 0
BBX 12 12 -1 -2
BITMAP
1000
1F80
3100
4A00
8400
0B00
30E0
DF80
1080
1080
1F80
0000
ENDCHAR
STARTCHAR 7ED9
ENCODING 32473
SWIDTH 1000 0
DWIDTH 12 0
BBX 12 12 -1 -2
BITMAP
2100
2100
4280
9440
EBA0
4000
97C0
E440
0440
3440
C7C0
0000
ENDCHAR
STARTCHAR 6839
ENCODING 26681
SWIDTH 1000 0
DWIDTH 12 0
BBX 12 12 -1 -2
BITMAP
27C0
2440
F7C0
2440
6440
77C0
A520
A540
2480
2540
2620
0000
ENDCHAR
STARTCHAR 8DDF
ENCODING 36319
SWIDTH 1000 0
DWIDTH 12 0
BBX 12 12 -1 -2
BITMAP
F7C0
9440
97C0
F440
2440
A7C0
BD20
A540
BC80
E540
8620
0000
ENDCHAR
STARTCHAR 8015
ENCODING 32789
SWIDTH 1000 0
DWIDTH 12 0
BBX 12 12 -1 -2
BITMAP
2280
F280
2FE0
F280
2280
F280
2FE0
7280
AA80
2480
2880
0000
ENDCHAR
STARTCHAR 66F4
ENCODING 26356
SWIDTH 1000 0
DWIDTH 12 0
BBX 12 12 -1 -2
BITMAP
FFE0
0400
3FC0
2440
3FC0
2440
3FC0
1400
0800
1400
E3E0
0000
ENDCHAR
STARTCHAR 5E9A
ENCODING 24218
SWIDTH 1000 0
DWIDTH 12 0
BBX 12 12 -1 -2
BITMAP
0400
7FE0
4400
5FC0
4440
7FE0
4440
5FC0
4500
8880
B060
0000
ENDCHAR
STARTCHAR 7FB9
ENCODING 32697
SWIDTH 1000 0
DWIDTH 12 0
BBX 12 12 -1 -2
BITMAP
1100
7FC0
0400
FFE0
4940
FFE0
0400
7FC0
0400
FFE0
60C0
0000
ENDCHAR
STARTCHAR 57C2
ENCODING 22466
SWIDTH 1000 0
DWIDTH 12 0
BBX 12 12 -1 -2
BITMAP
5FE0
4100
4FC0
F940
4FC0
4940
4FC0
7500
C200
0500
38E0
0000
ENDCHAR
STARTCHAR 803F
ENCODING 32831
SWIDTH 1000 0
DWIDTH 12 0
BBX 12 12 -1 -2
BITMAP
FD00
5100
5100
7520
5540
7580
5100
5A80
F280
9440
1820
0000
ENDCHAR
STARTCHAR 6897
ENCODING 26775
SWIDTH 1000 0
DWIDTH 12 0
BBX 12 12 -1 -2
BITMAP
4FE0
4100
FFC0
4940
4FC0
E940
CFC0
4500
4200
4580
5860
0000
ENDCHAR
STARTCHAR 5DE5
ENCODING 24037
SWIDTH 1000 0
DWIDTH 12 0
BBX 12 12 -1 -2
BITMAP
0080
7FC0
0400
0400
0400
0400
0400
0400
0400
0400
FFE0
0000
ENDCHAR
STARTCHAR 653B
ENCODING 25915
SWIDTH 1000 0
DWIDTH 12 0
BBX 12 12 -1 -2
BITMAP
0200
FA00
23E0
2440
2A40
2280
2280
3900
C280
0440
1820
0000
ENDCHAR
STARTCHAR 529F
ENCODING 21151
SWIDTH 1000 0
DWIDTH 12 0
BBX 12 12 -1 -2
BITMAP
0100
F900
2100
27E0
2120
2120
2120
3A20
C220
0420
19C0
0000
ENDCHAR
STARTCHAR 606D
ENCODING 24685
SWIDTH 1000 0
DWIDTH 12 0
BBX 12 12 -1 -2
BITMAP
1100
1100
7FC0
1100
FFE0
1100
2480
5460
9680
2540
0C00
0000
ENDCHAR
STARTCHAR 9F9A
ENCODING 40858
SWIDTH 1000 0
DWIDTH 12 0
BBX 12 12 -1 -2
BITMAP
0900
FFE0
0A80
1320
2DE0
D100
7FC0
1100
FFE0
1080
E040
0000
ENDCHAR
STARTCHAR 4F9B
ENCODING 20379
SWIDTH 1000 0
DWIDTH 12 0
BBX 12 12 -1 -2
BITMAP
2480
2480
3FE0
4480
C480
4480
5FE0
4000
4480
4840
5020
0000
ENDCHAR
STARTCHAR 8EAC
ENCODING 36524
SWIDTH 1000 0
DWIDTH 12 0
BBX 12 12 -1 -2
BITMAP
23E0
7820
4820
7BE0
4A00
7A00
4BE0
F820
2820
4820
99C0
0000
ENDCHAR
STARTCHAR 516C
ENCODING 20844
SWIDTH 1000 0
DWIDTH 12 0
BBX 12 12 -1 -2
BITMAP
1200
1200
1100
2100
4480
8460
0800
0A00
1100
2380
7C80
0000
ENDCHAR
STARTCHAR 5BAB
ENCODING 23467
SWIDTH 1000 0
DWIDTH 12 0
BBX 12 12 -1 -2
BITMAP
0400
7FE0
C020
1F80
1080
1F80
0000
3FC0
2040
2040
3FC0
0000
ENDCHAR
STARTCHAR 5F13
ENCODING 24339
SWIDTH 1000 0
DWIDTH 12 0
BBX 12 12 -1 -2
BITMAP
7F80
0080
0080
3F80
2000
4000
7FC0
0040
0040
0080
0780
0000
ENDCHAR
STARTCHAR 5DE9
ENCODING 24041
SWIDTH 1000 0
DWIDTH 12 0
BBX 12 12 -1 -2
BITMAP
0080
F7C0
2480
2480
2680
2580
2480
3880
C8A0
10A0
2060
0000
ENDCHAR
STARTCHAR 6C5E
ENCODING 27742
SWIDTH 1000 0
DWIDTH 12 0
BBX 12 12 -1 -2
BITMAP
7FC0
0400
0400
FFE0
0000
0440
F680
1500
2480
4440
9C20
0000
ENDCHAR
STARTCHAR 62F1
ENCODING 25329
SWIDTH 1000 0
DWIDTH 12 0
BBX 12 12 -1 -2
BITMAP
2480
2480
F480
2FE0
3480
6480
BFE0
2000
2480
2840
F020
0000
ENDCHAR
STARTCHAR 8D21
ENCODING 36129
SWIDTH 1000 0
DWIDTH 12 0
BBX 12 12 -1 -2
BITMAP
7FC0
0400
0400
FFE0
0000
3F80
2480
2480
2A80
1100
E0C0
0000
ENDCHAR
STARTCHAR 5171
ENCODING 20849
SWIDTH 1000 0
DWIDTH 12 0
BBX 12 12 -1 -2
BITMAP
1100
1100
FFE0
1100
1100
1100
FFE0
0000
1180
2040
C020
0000
ENDCHAR
STARTCHAR 94A9
ENCODING 38057
SWIDTH 1000 0
DWIDTH 12 0
BBX 12 12 -1 -2
BITMAP
4200
7A00
43E0
F420
A920
2220
F4A0
27A0
28A0
3020
21C0
0000
ENDCHAR
STARTCHAR 52FE
ENCODING 21246
SWIDTH 1000 0
DWIDTH 12 0
BBX 12 12 -1 -2
BITMAP
2000
2040
3FE0
4040
8840
0840
1240
2740
3940
0040
0380
0000
ENDCHAR
STARTCHAR 6C9F
ENCODING 27807
SWIDTH 1000 0
DWIDTH 12 0
BBX 12 12 -1 -2
BITMAP
4400
2400
27E0
8820
5220
2220
4520
4FA0
C020
4020
41C0
0000
ENDCHAR
STARTCHAR 82DF
ENCODING 33503
SWIDTH 1000 0
DWIDTH 12 0
BBX 12 12 -1 -2
BITMAP
1100
FFE0
2100
3FC0
4040
BE40
2240
2240
3E40
0040
0180
0000
ENDCHAR
STARTCHAR 72D7
ENCODING 29399
SWIDTH 1000 0
DWIDTH 12 0
BBX 12 12 -1 -2
BITMAP
9400
57E0
2420
6820
97A0
34A0
54A0
97A0
14A0
1020
61C0
0000
ENDCHAR
STARTCHAR 57A2
ENCODING 22434
SWIDTH 1000 0
DWIDTH 12 0
BBX 12 12 -1 -2
BITMAP
20C0
2700
2400
F7E0
2400
2400
27C0
3A40
CA40
1240
23C0
0000
ENDCHAR
STARTCHAR 6784
ENCODING 26500
SWIDTH 1000 0
DWIDTH 12 0
BBX 12 12 -1 -2
BITMAP
2200
2200
F3E0
2420
6A20
7220
A4A0
AFA0
20A0
2020
21C0
0000
ENDCHAR
STARTCHAR 8D2D
ENCODING 36141
SWIDTH 1000 0
DWIDTH 12 0
BBX 12 12 -1 -2
BITMAP
FA00
8A00
ABE0
AC20
A920
A920
AAA0
A7A0
3020
4820
81C0
0000
ENDCHAR
STARTCHAR 591F
ENCODING 22815
SWIDTH 1000 0
DWIDTH 12 0
BBX 12 12 -1 -2
BITMAP
4100
41E0
7A40
8D80
E900
AA80
A9E0
EA20
0D40
7080
0700
0000
ENDCHAR
STARTCHAR 8F9C
ENCODING 36764
SWIDTH 1000 0
DWIDTH 12 0
BBX 12 12 -1 -2
BITMAP
0400
FFE0
0400
3F80
2080
7FC0
1100
FFE0
0400
7FC0
0400
0000
ENDCHAR
STARTCHAR 83C7
ENCODING 33735
SWIDTH 1000 0
DWIDTH 12 0
BBX 12 12 -1 -2
BITMAP
0900
FFE0
0900
2080
FFE0
4880
4880
53E0
2220
5220
8BE0
0000
ENDCHAR
STARTCHAR 5495
ENCODING 21653
SWIDTH 1000 0
DWIDTH 12 0
BBX 12 12 -1 -2
BITMAP
0100
F100
9FE0
9100
9100
9100
97C0
F440
0440
0440
07C0
0000
ENDCHAR
STARTCHAR 7B8D
ENCODING 31629
SWIDTH 1000 0
DWIDTH 12 0
BBX 12 12 -1 -2
BITMAP
2100
7BE0
9480
2FE0
F880
2BE0
3AA0
EAA0
2AE0
2880
EFE0
0000
ENDCHAR
STARTCHAR 4F30
ENCODING 20272
SWIDTH 1000 0
DWIDTH 12 0
BBX 12 12 -1 -2
BITMAP
1100
1100
3FE0
6100
A100
2100
2FC0
2840
2840
2840
2FC0
0000
ENDCHAR
STARTCHAR 6CBD
ENCODING 27837
SWIDTH 1000 0
DWIDTH 12 0
BBX 12 12 -1 -2
BITMAP
4100
2100
3FE0
8100
4100
2FC0
2840
4840
C840
4FC0
4840
0000
ENDCHAR
STARTCHAR 5B64
ENCODING 23396
SWIDTH 1000 0
DWIDTH 12 0
BBX 12 12 -1 -2
BITMAP
F0C0
1F80
2A80
4A80
4A80
6A80
CA40
4A40
4A40
4BA0
D020
0000
ENDCHAR
STARTCHAR 59D1
ENCODING 22993
SWIDTH 1000 0
DWIDTH 12 0
BBX 12 12 -1 -2
BITMAP
2100
2100
FFE0
5100
5100
5100
97E0
D420
2420
5420
87E0
0000
ENDCHAR
STARTCHAR 9F13
ENCODING 40723
SWIDTH 1000 0
DWIDTH 12 0
BBX 12 12 -1 -2
BITMAP
1080
FC80
13E0
FC80
03E0
7920
4920
7940
4880
3D40
E620
0000
ENDCHAR
STARTCHAR 53E4
ENCODING 21476
SWIDTH 1000 0
DWIDTH 12 0
BBX 12 12 -1 -2
BITMAP
0400
0400
FFE0
0400
0400
0400
3F80
2080
2080
2080
3F80
0000
ENDCHAR
STARTCHAR 86CA
ENCODING 34506
SWIDTH 1000 0
DWIDTH 12 0
BBX 12 12 -1 -2
BITMAP
0400
7FC0
4440
7FC0
0480
FFE0
0020
7FC0
4A40
4A40
FFE0
0000
ENDCHAR
STARTCHAR 9AA8
ENCODING 39592
SWIDTH 1000 0
DWIDTH 12 0
BBX 12 12 -1 -2
BITMAP
3F80
2080
3C80
2480
FFE0
A0A0
3F80
2080
3F80
2080
2380
0000
ENDCHAR
STARTCHAR 8C37
ENCODING 35895
SWIDTH 1000 0
DWIDTH 12 0
BBX 12 12 -1 -2
BITMAP
1100
2080
4440
8A20
1100
2080
DFE0
1080
1080
1080
1F80
0000
ENDCHAR
STARTCHAR 80A1
ENCODING 32929
SWIDTH 1000 0
DWIDTH 12 0
BBX 12 12 -1 -2
BITMAP
7380
5280
5280
74E0
5800
57C0
7440
5280
5100
9280
BC60
0000
ENDCHAR
STARTCHAR 6545
ENCODING 25925
SWIDTH 1000 0
DWIDTH 12 0
BBX 12 12 -1 -2
BITMAP
1100
1100
FDE0
1240
1240
7D40
4940
4880
4880
7940
4E20
0000
ENDCHAR
STARTCHAR 987E
ENCODING 39038
SWIDTH 1000 0
DWIDTH 12 0
BBX 12 12 -1 -2
BITMAP
FBE0
8100
BBE0
AA20
AAA0
AAA0
BAA0
A2A0
A980
B240
8C20
0000
ENDCHAR
STARTCHAR 56FA
ENCODING 22266
SWIDTH 1000 0
DWIDTH 12 0
BBX 12 12 -1 -2
BITMAP
7FE0
4420
4420
7FA0
4420
5F20
5120
5120
5F20
4020
7FE0
0000
ENDCHAR
STARTCHAR 96C7
ENCODING 38599
SWIDTH 1000 0
DWIDTH 12 0
BBX 12 12 -1 -2
BITMAP
0400
7FC0
4040
7FC0
4900
4FE0
5900
6FE0
4900
4900
8FE0
0000
ENDCHAR
STARTCHAR 522E
ENCODING 21038
SWIDTH 1000 0
DWIDTH 12 0
BBX 12 12 -1 -2
BITMAP
0C20
F020
1120
1120
FF20
1120
7D20
4520
4520
7C20
44E0
0000
ENDCHAR
STARTCHAR 74DC
ENCODING 29916
SWIDTH 1000 0
DWIDTH 12 0
BBX 12 12 -1 -2
BITMAP
01C0
3F00
2500
2500
2500
2480
2480
2580
4740
4540
8020
0000
ENDCHAR
STARTCHAR 5250
ENCODING 21072
SWIDTH 1000 0
DWIDTH 12 0
BBX 12 12 -1 -2
BITMAP
7C20
4520
4520
7D20
1120
FD20
9520
AD20
C420
8420
8CE0
0000
ENDCHAR
STARTCHAR 5BE1
ENCODING 23521
SWIDTH 1000 0
DWIDTH 12 0
BBX 12 12 -1 -2
BITMAP
0400
7FE0
C420
1F80
1080
1F80
1080
FFE0
2940
C920
3300
0000
ENDCHAR
STARTCHAR 6302
ENCODING 25346
SWIDTH 1000 0
DWIDTH 12 0
BBX 12 12 -1 -2
BITMAP
2100
2100
F7C0
2100
3100
6FE0
A100
27C0
2100
2100
EFE0
0000
ENDCHAR
STARTCHAR 8902
ENCODING 35074
SWIDTH 1000 0
DWIDTH 12 0
BBX 12 12 -1 -2
BITMAP
4440
2440
EF40
2440
2F40
5460
E440
5F40
4440
4740
5C40
0000
ENDCHAR
STARTCHAR 4E56
ENCODING 20054
SWIDTH 1000 0
DWIDTH 12 0
BBX 12 12 -1 -2
BITMAP
7F80
0400
FFE0
0400
1500
F560
1580
3520
D5E0
0400
0400
0000
ENDCHAR
STARTCHAR 62D0
ENCODING 25296
SWIDTH 1000 0
DWIDTH 12 0
BBX 12 12 -1 -2
BITMAP
27C0
2440
FC40
27C0
3200
6FE0
A220
2220
2220
2420
E9C0
0000
ENDCHAR
STARTCHAR 602A
ENCODING 24618
SWIDTH 1000 0
DWIDTH 12 0
BBX 12 12 -1 -2
BITMAP
4FC0
4840
6480
D300
C480
5960
4100
4FC0
4100
4100
7FE0
0000
ENDCHAR
STARTCHAR 68FA
ENCODING 26874
SWIDTH 1000 0
DWIDTH 12 0
BBX 12 12 -1 -2
BITMAP
4100
4FE0
F820
47C0
6440
D7C0
C400
47C0
4440
4440
47C0
0000
ENDCHAR
STARTCHAR 5173
ENCODING 20851
SWIDTH 1000 0
DWIDTH 12 0
BBX 12 12 -1 -2
BITMAP
1080
0900
7FC0
0400
0400
0400
FFE0
0A00
1100
2080
C060
0000
ENDCHAR
STARTCHAR 5B98
ENCODING 23448
SWIDTH 1000 0
DWIDTH 12 0
BBX 12 12 -1 -2
BITMAP
0400
7FE0
C020
3F80
2080
3F80
2000
3F80
2080
2080
3F80
0000
ENDCHAR
STARTCHAR 51A0
ENCODING 20896
SWIDTH 1000 0
DWIDTH 12 0
BBX 12 12 -1 -2
BITMAP
7FE0
C020
0080
7880
03E0
FC80
2A80
2A80
49A0
4820
8FE0
0000
ENDCHAR
STARTCHAR 89C2
ENCODING 35266
SWIDTH 1000 0
DWIDTH 12 0
BBX 12 12 -1 -2
BITMAP
07C0
F440
1540
9540
5540
2540
2540
5280
52A0
84A0
18E0
0000
ENDCHAR
STARTCHAR 7BA1
ENCODING 31649
SWIDTH 1000 0
DWIDTH 12 0
BBX 12 12 -1 -2
BITMAP
2100
7BE0
9480
FFE0
8020
3F00
2100
3F80
2080
2080
3F80
0000
ENDCHAR
STARTCHAR 9986
ENCODING 39302
SWIDTH 1000 0
DWIDTH 12 0
BBX 12 12 -1 -2
BITMAP
4100
4FE0
7820
97C0
4440
47C0
4400
47C0
5440
6440
47C0
0000
ENDCHAR
STARTCHAR 7F50
ENCODING 32592
SWIDTH 1000 0
DWIDTH 12 0
BBX 12 12 -1 -2
BITMAP
4FE0
7280
AEE0
2AA0
FEE0
2480
A7E0
BC80
B7E0
F480
07E0
0000
ENDCHAR
STARTCHAR 60EF
ENCODING 24815
SWIDTH 1000 0
DWIDTH 12 0
BBX 12 12 -1 -2
BITMAP
27C0
2540
3FE0
A540
A7C0
A000
2FC0
2940
2940
2280
3C60
0000
ENDCHAR
STARTCHAR 704C
ENCODING 28748
SWIDTH 1000 0
DWIDTH 12 0
BBX 12 12 -1 -2
BITMAP
9FE0
4480
1DC0
9540
5DC0
4900
5FE0
6900
CFE0
4900
4FE0
0000
ENDCHAR
STARTCHAR 8D2F
ENCODING 36143
SWIDTH 1000 0
DWIDTH 12 0
BBX 12 12 -1 -2
BITMAP
3F80
2480
FFE0
2480
3F80
0000
3F80
2480
2A80
1100
E0C0
0000
ENDCHAR
STARTCHAR 5149
ENCODING 20809
SWIDTH 1000 0
DWIDTH 12 0
BBX 12 12 -1 -2
BITMAP
0400
4440
2480
1500
FFE0
1200
1200
1200
1220
2220
C1E0
0000
ENDCHAR
STARTCHAR 5E7F
ENCODING 24191
SWIDTH 1000 0
DWIDTH 12 0
BBX 12 12 -1 -2
BITMAP
0400
7FE0
4000
4000
4000
4000
4000
4000
4000
8000
8000
0000
ENDCHAR
STARTCHAR 901B
ENCODING 36891
SWIDTH 1000 0
DWIDTH 12 0
BBX 12 12 -1 -2
BITMAP
8400
57E0
4880
1480
C7E0
4C80
5480
4480
5BE0
A000
9FE0
0000
ENDCHAR
STARTCHAR 7470
ENCODING 29808
SWIDTH 1000 0
DWIDTH 12 0
BBX 12 12 -1 -2
BITMAP
0200
FFC0
4940
4FC0
F940
4FC0
4100
4340
75C0
C920
31E0
0000
ENDCHAR
STARTCHAR 89C4
ENCODING 35268
SWIDTH 1000 0
DWIDTH 12 0
BBX 12 12 -1 -2
BITMAP
27C0
2440
FC40
2540
2540
FD40
2540
3180
4AA0
44A0
98E0
0000
ENDCHAR
STARTCHAR 572D
ENCODING 22317
SWIDTH 1000 0
DWIDTH 12 0
BBX 12 12 -1 -2
BITMAP
0400
7FC0
0400
0400
FFE0
0400
0400
7FC0
0400
0400
FFE0
0000
ENDCHAR
STARTCHAR 7845
ENCODING 30789
SWIDTH 1000 0
DWIDTH 12 0
BBX 12 12 -1 -2
BITMAP
0100
F900
47E0
4100
77E0
D100
5100
57E0
7100
5100
0FE0
0000
ENDCHAR
STARTCHAR 5F52
ENCODING 24402
SWIDTH 1000 0
DWIDTH 12 0
BBX 12 12 -1 -2
BITMAP
1000
57E0
5020
5020
5020
57E0
5020
5020
1020
2FE0
C020
0000
ENDCHAR
STARTCHAR 9F9F
ENCODING 40863
SWIDTH 1000 0
DWIDTH 12 0
BBX 12 12 -1 -2
BITMAP
1000
1F00
2200
7FC0
C440
7FC0
4440
4440
7FC0
0420
07E0
0000
ENDCHAR
STARTCHAR 95FA
ENCODING 38394
SWIDTH 1000 0
DWIDTH 12 0
BBX 12 12 -1 -2
BITMAP
2FE0
5020
4420
5FA0
4420
7FA0
4420
5FA0
4420
7FA0
4060
0000
ENDCHAR
STARTCHAR 8F68
ENCODING 36712
SWIDTH 1000 0
DWIDTH 12 0
BBX 12 12 -1 -2
BITMAP
2200
2200
FA80
47C0
A280
FA80
2280
3A80
E4A0
24A0
28E0
0000
ENDCHAR
STARTCHAR 9B3C
ENCODING 39740
SWIDTH 1000 0
DWIDTH 12 0
BBX 12 12 -1 -2
BITMAP
0800
7FC0
4440
7FC0
4440
7FC0
0A00
0A80
13C0
2220
C3E0
0000
ENDCHAR
STARTCHAR 8BE1
ENCODING 35809
SWIDTH 1000 0
DWIDTH 12 0
BBX 12 12 -1 -2
BITMAP
4400
2780
0880
1FE0
C800
4BC0
4A40
4A40
5AC0
6A20
53E0
0000
ENDCHAR
STARTCHAR 7678
ENCODING 30328
SWIDTH 1000 0
DWIDTH 12 0
BBX 12 12 -1 -2
BITMAP
7A80
0B00
4A40
3180
2080
5F60
8400
7FC0
0A00
1100
E0C0
0000
ENDCHAR
STARTCHAR 6842
ENCODING 26690
SWIDTH 1000 0
DWIDTH 12 0
BBX 12 12 -1 -2
BITMAP
2100
2100
F7E0
2100
2FE0
7100
A100
AFE0
2100
2100
3FE0
0000
ENDCHAR
STARTCHAR 67DC
ENCODING 26588
SWIDTH 1000 0
DWIDTH 12 0
BBX 12 12 -1 -2
BITMAP
2040
27E0
2400
F400
27C0
7440
6440
A7C0
A400
2400
27E0
0000
ENDCHAR
STARTCHAR 8DEA
ENCODING 36330
SWIDTH 1000 0
DWIDTH 12 0
BBX 12 12 -1 -2
BITMAP
F200
93C0
9480
FFE0
2400
A5C0
B540
A5C0
B520
C920
11E0
0000
ENDCHAR
STARTCHAR 8D35
ENCODING 36149
SWIDTH 1000 0
DWIDTH 12 0
BBX 12 12 -1 -2
BITMAP
0400
3F80
2480
FFE0
0000
3F80
2080
2480
2480
0B00
F0C0
0000
ENDCHAR
STARTCHAR 523D
ENCODING 21053
SWIDTH 1000 0
DWIDTH 12 0
BBX 12 12 -1 -2
BITMAP
1020
28A0
44A0
82A0
7CA0
00A0
FEA0
20A0
44A0
FE20
42E0
0000
ENDCHAR
STARTCHAR 8F8A
ENCODING 36746
SWIDTH 1000 0
DWIDTH 12 0
BBX 12 12 -1 -2
BITMAP
27C0
2440
FFC0
4440
A7C0
F800
24A0
3EC0
E480
26A0
24E0
0000
ENDCHAR
STARTCHAR 6EDA
ENCODING 28378
SWIDTH 1000 0
DWIDTH 12 0
BBX 12 12 -1 -2
BITMAP
8100
5FE0
0480
8A40
54A0
2FC0
4220
4540
DC80
4540
4620
0000
ENDCHAR
STARTCHAR 68CD
ENCODING 26829
SWIDTH 1000 0
DWIDTH 12 0
BBX 12 12 -1 -2
BITMAP
27C0
2440
F7C0
2440
67C0
7000
A8A0
AEC0
2880
2AA0
2CE0
0000
ENDCHAR
STARTCHAR 9505
ENCODING 38149
SWIDTH 1000 0
DWIDTH 12 0
BBX 12 12 -1 -2
BITMAP
47C0
4440
7440
87C0
F100
4FE0
F920
4AA0
5C60
6820
48E0
0000
ENDCHAR
STARTCHAR 90ED
ENCODING 37101
SWIDTH 1000 0
DWIDTH 12 0
BBX 12 12 -1 -2
BITMAP
1000
FDE0
0120
7D20
4540
FD40
0920
1120
FD20
11C0
3100
0000
ENDCHAR
STARTCHAR 56FD
ENCODING 22269
SWIDTH 1000 0
DWIDTH 12 0
BBX 12 12 -1 -2
BITMAP
7FE0
4020
5FA0
4420
5FA0
4420
4520
44A0
7FE0
4020
7FE0
0000
ENDCHAR
STARTCHAR 679C
ENCODING 26524
SWIDTH 1000 0
DWIDTH 12 0
BBX 12 12 -1 -2
BITMAP
3FC0
2440
3FC0
2440
3FC0
0400
FFE0
0E00
1500
2480
C460
0000
ENDCHAR
STARTCHAR 88F9
ENCODING 35065
SWIDTH 1000 0
DWIDTH 12 0
BBX 12 12 -1 -2
BITMAP
0440
FFE0
2480
3F80
2480
FFE0
2480
C860
1480
3300
DCE0
0000
ENDCHAR
STARTCHAR 8FC7
ENCODING 36807
SWIDTH 1000 0
DWIDTH 12 0
BBX 12 12 -1 -2
BITMAP
8080
4080
5FE0
0080
E880
2480
2480
2080
2380
5000
8FE0
0000
ENDCHAR
STARTCHAR 54C8
ENCODING 21704
SWIDTH 1000 0
DWIDTH 12 0
BBX 12 12 -1 -2
BITMAP
0100
F100
9280
9440
9FE0
9000
97C0
F440
8440
07C0
0440
0000
ENDCHAR
STARTCHAR 9AB8
ENCODING 39608
SWIDTH 1000 0
DWIDTH 12 0
BBX 12 12 -1 -2
BITMAP
7900
4880
6BE0
FD00
8640
7B80
4920
7A40
4C80
7940
4E20
0000
ENDCHAR
STARTCHAR 5B69
ENCODING 23401
SWIDTH 1000 0
DWIDTH 12 0
BBX 12 12 -1 -2
BITMAP
F100
1FE0
2100
2240
3480
6720
A240
2480
2980
2240
EC20
0000
ENDCHAR
STARTCHAR 6D77
ENCODING 28023
SWIDTH 1000 0
DWIDTH 12 0
BBX 12 12 -1 -2
BITMAP
8800
4FE0
1000
AFC0
A840
4A40
7FE0
9280
9FE0
8080
8380
0000
ENDCHAR
STARTCHAR 6C26
ENCODING 27686
SWIDTH 1000 0
DWIDTH 12 0
BBX 12 12 -1 -2
BITMAP
2000
3FE0
4000
BF80
0880
7F80
1480
3A80
14A0
2A60
7120
0000
ENDCHAR
STARTCHAR 4EA5
ENCODING 20133
SWIDTH 1000 0
DWIDTH 12 0
BBX 12 12 -1 -2
BITMAP
0400
FFE0
0800
1100
2200
3C80
0900
1200
6500
1880
6040
0000
ENDCHAR
STARTCHAR 5BB3
ENCODING 23475
SWIDTH 1000 0
DWIDTH 12 0
BBX 12 12 -1 -2
BITMAP
0400
7FE0
C420
3FC0
0400
7FC0
0400
FFE0
2080
2080
3F80
0000
ENDCHAR
STARTCHAR 9A87
ENCODING 39559
SWIDTH 1000 0
DWIDTH 12 0
BBX 12 12 -1 -2
BITMAP
F100
1FE0
5100
5240
5440
5780
7940
0A80
ED80
1240
7420
0000
ENDCHAR
STARTCHAR 9163
ENCODING 37219
SWIDTH 1000 0
DWIDTH 12 0
BBX 12 12 -1 -2
BITMAP
FA40
5240
FFE0
AA40
AA40
DA40
8BC0
FA40
8A40
FBC0
8A40
0000
ENDCHAR
STARTCHAR 61A8
ENCODING 25000
SWIDTH 1000 0
DWIDTH 12 0
BBX 12 12 -1 -2
BITMAP
7900
1100
FDE0
4B40
7940
4C80
F940
0A20
5440
52A0
9F80
0000
ENDCHAR
STARTCHAR 90AF
ENCODING 37039
SWIDTH 1000 0
DWIDTH 12 0
BBX 12 12 -1 -2
BITMAP
49E0
4920
FD20
4940
4940
7920
4920
4920
79E0
4900
0100
0000
ENDCHAR
STARTCHAR 97E9
ENCODING 38889
SWIDTH 1000 0
DWIDTH 12 0
BBX 12 12 -1 -2
BITMAP
2100
FBE0
2100
7BE0
4900
7FE0
4920
7920
21A0
FD40
2100
0000
ENDCHAR
STARTCHAR 542B
ENCODING 21547
SWIDTH 1000 0
DWIDTH 12 0
BBX 12 12 -1 -2
BITMAP
0400
0A00
1100
2480
DF60
0100
0200
3F80
2080
2080
3F80
0000
ENDCHAR
STARTCHAR 6DB5
ENCODING 28085
SWIDTH 1000 0
DWIDTH 12 0
BBX 12 12 -1 -2
BITMAP
9FC0
4080
0100
9A60
56A0
5320
56A0
DA60
5620
5020
5FE0
0000
ENDCHAR
STARTCHAR 5BD2
ENCODING 23506
SWIDTH 1000 0
DWIDTH 12 0
BBX 12 12 -1 -2
BITMAP
0400
FFE0
9220
7FC0
1200
FFE0
1200
1900
2680
D860
0700
0000
ENDCHAR
STARTCHAR 51FD
ENCODING 20989
SWIDTH 1000 0
DWIDTH 12 0
BBX 12 12 -1 -2
BITMAP
7F80
0100
0200
A4C0
9540
8E40
9540
A4C0
8C40
8040
FFC0
0000
ENDCHAR
STARTCHAR 558A
ENCODING 21898
SWIDTH 1000 0
DWIDTH 12 0
BBX 12 12 -1 -2
BITMAP
00C0
E0A0
AFE0
A880
AFA0
A8A0
EFA0
AD40
0F40
10A0
2320
0000
ENDCHAR
STARTCHAR 7F55
ENCODING 32597
SWIDTH 1000 0
DWIDTH 12 0
BBX 12 12 -1 -2
BITMAP
7FE0
C020
1180
2040
DFA0
0400
0400
FFE0
0400
0400
0400
0000
ENDCHAR
STARTCHAR 7FF0
ENCODING 32752
SWIDTH 1000 0
DWIDTH 12 0
BBX 12 12 -1 -2
BITMAP
2100
FA80
2440
F820
97E0
F120
95A0
F360
25A0
F920
2760
0000
ENDCHAR
STARTCHAR 64BC
ENCODING 25788
SWIDTH 1000 0
DWIDTH 12 0
BBX 12 12 -1 -2
BITMAP
40A0
4FE0
F880
4FA0
48A0
6F40
D540
67A0
4840
5520
C780
0000
ENDCHAR
STARTCHAR 634D
ENCODING 25421
SWIDTH 1000 0
DWIDTH 12 0
BBX 12 12 -1 -2
BITMAP
27C0
2440
F7C0
2440
37C0
6000
AFE0
2100
2FE0
2100
E100
0000
ENDCHAR
STARTCHAR 65F1
ENCODING 26097
SWIDTH 1000 0
DWIDTH 12 0
BBX 12 12 -1 -2
BITMAP
3F80
2080
3F80
2080
3F80
0000
7FC0
0400
FFE0
0400
0400
0000
ENDCHAR
STARTCHAR 61BE
ENCODING 25022
SWIDTH 1000 0
DWIDTH 12 0
BBX 12 12 -1 -2
BITMAP
4140
5FE0
F100
DF40
D540
54A0
5D60
6220
5540
54A0
6780
0000
ENDCHAR
STARTCHAR 608D
ENCODING 24717
SWIDTH 1000 0
DWIDTH 12 0
BBX 12 12 -1 -2
BITMAP
47C0
4440
67C0
D440
C7C0
4000
4FE0
4100
5FE0
4100
4100
0000
ENDCHAR
STARTCHAR 710A
ENCODING 28938
SWIDTH 1000 0
DWIDTH 12 0
BBX 12 12 -1 -2
BITMAP
27C0
2440
27C0
B440
A7C0
A000
2FE0
2100
5FE0
4100
8100
0000
ENDCHAR
STARTCHAR 6C57
ENCODING 27735
SWIDTH 1000 0
DWIDTH 12 0
BBX 12 12 -1 -2
BITMAP
8FE0
4100
0100
A100
AFE0
4100
4100
4100
C100
4100
4100
0000
ENDCHAR
STARTCHAR 6C49
ENCODING 27721
SWIDTH 1000 0
DWIDTH 12 0
BBX 12 12 -1 -2
BITMAP
4040
2FE0
0440
9440
5480
2280
2280
C100
4280
4440
5820
0000
ENDCHAR
STARTCHAR 592F
ENCODING 22831
SWIDTH 1000 0
DWIDTH 12 0
BBX 12 12 -1 -2
BITMAP
0400
FFE0
0A00
1100
2080
C860
3F80
0880
0880
1080
E700
0000
ENDCHAR
STARTCHAR 676D
ENCODING 26477
SWIDTH 1000 0
DWIDTH 12 0
BBX 12 12 -1 -2
BITMAP
2200
2100
2FE0
F000
2780
6480
7480
A480
24A0
28A0
30E0
0000
ENDCHAR
STARTCHAR 822A
ENCODING 33322
SWIDTH 1000 0
DWIDTH 12 0
BBX 12 12 -1 -2
BITMAP
2100
7880
4FE0
6800
4B80
FA80
4A80
6A80
4AA0
4CA0
B8E0
0000
ENDCHAR
STARTCHAR 58D5
ENCODING 22741
SWIDTH 1000 0
DWIDTH 12 0
BBX 12 12 -1 -2
BITMAP
4100
5FE0
47C0
E440
4FE0
5020
4FC0
7540
CB80
0540
1B20
0000
ENDCHAR
STARTCHAR 568E
ENCODING 22158
SWIDTH 1000 0
DWIDTH 12 0
BBX 12 12 -1 -2
BITMAP
0100
FFE0
A7C0
A440
BFE0
B020
AFC0
E540
1B80
0540
3B20
0000
ENDCHAR
STARTCHAR 8C6A
ENCODING 35946
SWIDTH 1000 0
DWIDTH 12 0
BBX 12 12 -1 -2
BITMAP
0400
FFE0
1F80
1080
FFE0
8020
3FC0
5480
2B00
1280
6E60
0000
ENDCHAR
STARTCHAR 6BEB
ENCODING 27627
SWIDTH 1000 0
DWIDTH 12 0
BBX 12 12 -1 -2
BITMAP
0400
FFE0
2080
3F80
0000
FFE0
8320
7C00
0780
FC20
07E0
0000
ENDCHAR
STARTCHAR 90DD
ENCODING 37085
SWIDTH 1000 0
DWIDTH 12 0
BBX 12 12 -1 -2
BITMAP
11E0
7D20
1120
1120
FF40
2940
6D20
AB20
29E0
4900
9900
0000
ENDCHAR
STARTCHAR 597D
ENCODING 22909
SWIDTH 1000 0
DWIDTH 12 0
BBX 12 12 -1 -2
BITMAP
27C0
2040
F880
4900
4900
4FE0
9100
D100
3100
4900
8300
0000
ENDCHAR
STARTCHAR 8017
ENCODING 32791
SWIDTH 1000 0
DWIDTH 12 0
BBX 12 12 -1 -2
BITMAP
20C0
FB00
2100
F9E0
2700
F900
21E0
7700
A920
A120
21E0
0000
ENDCHAR
STARTCHAR 53F7
ENCODING 21495
SWIDTH 1000 0
DWIDTH 12 0
BBX 12 12 -1 -2
BITMAP
3F80
2080
2080
3F80
0000
FFE0
1000
1F80
0080
0080
0700
0000
ENDCHAR
STARTCHAR 6D69
ENCODING 28009
SWIDTH 1000 0
DWIDTH 12 0
BBX 12 12 -1 -2
BITMAP
4100
2900
0FE0
9100
A100
5FE0
4000
4FC0
C840
4840
4FC0
0000
ENDCHAR
STARTCHAR 5475
ENCODING 21621
SWIDTH 1000 0
DWIDTH 12 0
BBX 12 12 -1 -2
BITMAP
0FE0
E040
A040
AF40
A940
A940
EF40
A940
8040
0040
01C0
0000
ENDCHAR
STARTCHAR 559D
ENCODING 21917
SWIDTH 1000 0
DWIDTH 12 0
BBX 12 12 -1 -2
BITMAP
07C0
E440
A7C0
A440
A7C0
A400
EFE0
B920
0AA0
0FA0
00C0
0000
ENDCHAR
STARTCHAR 8377
ENCODING 33655
SWIDTH 1000 0
DWIDTH 12 0
BBX 12 12 -1 -2
BITMAP
0900
FFE0
0900
2000
2FE0
6040
AE40
2A40
2E40
2A40
21C0
0000
ENDCHAR
STARTCHAR 83CF
ENCODING 33743
SWIDTH 1000 0
DWIDTH 12 0
BBX 12 12 -1 -2
BITMAP
1100
FFE0
1100
5FE0
A040
4F40
2940
4940
CF40
4040
41C0
0000
ENDCHAR
STARTCHAR 6838
ENCODING 26680
SWIDTH 1000 0
DWIDTH 12 0
BBX 12 12 -1 -2
BITMAP
2100
2FE0
F100
2240
6480
7700
A240
A480
2980
2240
2C20
0000
ENDCHAR
STARTCHAR 79BE
ENCODING 31166
SWIDTH 1000 0
DWIDTH 12 0
BBX 12 12 -1 -2
BITMAP
03C0
7C00
0400
0400
FFE0
0E00
1500
2480
4440
8420
0400
0000
ENDCHAR
STARTCHAR 548C
ENCODING 21644
SWIDTH 1000 0
DWIDTH 12 0
BBX 12 12 -1 -2
BITMAP
0C00
F3E0
1220
FE20
1220
1A20
3620
5220
93E0
1220
1000
0000
ENDCHAR
STARTCHAR 4F55
ENCODING 20309
SWIDTH 1000 0
DWIDTH 12 0
BBX 12 12 -1 -2
BITMAP
2000
3FE0
4040
4F40
C940
4940
4940
4F40
4040
4040
41C0
0000
ENDCHAR
STARTCHAR 5408
ENCODING 21512
SWIDTH 1000 0
DWIDTH 12 0
BBX 12 12 -1 -2
BITMAP
0400
0A00
1100
2080
DF60
0000
0000
3F80
2080
2080
3F80
0000
ENDCHAR
STARTCHAR 76D2
ENCODING 30418
SWIDTH 1000 0
DWIDTH 12 0
BBX 12 12 -1 -2
BITMAP
0400
0A00
1100
3FE0
D080
1F80
0000
3FC0
2A40
2A40
FFE0
0000
ENDCHAR
STARTCHAR 8C89
ENCODING 35977
SWIDTH 1000 0
DWIDTH 12 0
BBX 12 12 -1 -2
BITMAP
1200
23C0
D440
2A80
D100
3280
5C60
ABC0
4A40
8A40
73C0
0000
ENDCHAR
STARTCHAR 9602
ENCODING 38402
SWIDTH 1000 0
DWIDTH 12 0
BBX 12 12 -1 -2
BITMAP
4FC0
2040
8440
BFC0
8840
9240
9D40
8A40
B540
8940
B0C0
0000
ENDCHAR
STARTCHAR 6CB3
ENCODING 27827
SWIDTH 1000 0
DWIDTH 12 0
BBX 12 12 -1 -2
BITMAP
8040
5FE0
0040
AF40
6940
2940
4940
4F40
C040
4040
41C0
0000
ENDCHAR
STARTCHAR 6DB8
ENCODING 28088
SWIDTH 1000 0
DWIDTH 12 0
BBX 12 12 -1 -2
BITMAP
4FE0
2820
0920
AFE0
6920
2BA0
4AA0
CAA0
4BA0
4820
4FE0
0000
ENDCHAR
STARTCHAR 8D6B
ENCODING 36203
SWIDTH 1000 0
DWIDTH 12 0
BBX 12 12 -1 -2
BITMAP
2080
FBE0
2080
2080
FBE0
5140
DB40
D560
5540
5140
B2C0
0000
ENDCHAR
STARTCHAR 8910
ENCODING 35088
SWIDTH 1000 0
DWIDTH 12 0
BBX 12 12 -1 -2
BITMAP
47C0
2440
E7C0
2440
47C0
D400
6FE0
5920
4AA0
4FA0
40C0
0000
ENDCHAR
STARTCHAR 9E64
ENCODING 40548
SWIDTH 1000 0
DWIDTH 12 0
BBX 12 12 -1 -2
BITMAP
2100
FFE0
AA20
52A0
7AC0
D200
53E0
7820
53E0
7C20
40C0
0000
ENDCHAR
STARTCHAR 8D3A
ENCODING 36154
SWIDTH 1000 0
DWIDTH 12 0
BBX 12 12 -1 -2
BITMAP
2000
FDE0
2520
55E0
8800
3F80
2480
2480
2A80
1180
E060
0000
ENDCHAR
STARTCHAR 563F
ENCODING 22079
SWIDTH 1000 0
DWIDTH 12 0
BBX 12 12 -1 -2
BITMAP
0FC0
EA40
AF40
AA40
AFC0
A200
EFC0
8200
3FE0
1540
3520
0000
ENDCHAR
STARTCHAR 9ED1
ENCODING 40657
SWIDTH 1000 0
DWIDTH 12 0
BBX 12 12 -1 -2
BITMAP
7FC0
4440
5540
4E40
7FC0
0400
7FC0
0400
FFE0
5240
8920
0000
ENDCHAR
STARTCHAR 75D5
ENCODING 30165
SWIDTH 1000 0
DWIDTH 12 0
BBX 12 12 -1 -2
BITMAP
0200
3FE0
A000
6FC0
2840
6FC0
A840
2FC0
4940
4A80
8C60
0000
ENDCHAR
STARTCHAR 5F88
ENCODING 24456
SWIDTH 1000 0
DWIDTH 12 0
BBX 12 12 -1 -2
BITMAP
27C0
2440
4440
97C0
2440
67C0
A520
2540
2480
2540
2620
0000
ENDCHAR
STARTCHAR 72E0
ENCODING 29408
SWIDTH 1000 0
DWIDTH 12 0
BBX 12 12 -1 -2
BITMAP
8FC0
5440
2440
67C0
9440
37C0
5520
9540
1480
1540
6620
0000
ENDCHAR
STARTCHAR 6068
ENCODING 24680
SWIDTH 1000 0
DWIDTH 12 0
BBX 12 12 -1 -2
BITMAP
27C0
2440
27C0
B440
A440
A7C0
2520
2540
2480
2540
2620
0000
ENDCHAR
STARTCHAR 54FC
ENCODING 21756
SWIDTH 1000 0
DWIDTH 12 0
BBX 12 12 -1 -2
BITMAP
0100
EFE0
A000
A7C0
A440
A7C0
A000
EFC0
0080
0100
0700
0000
ENDCHAR
STARTCHAR 4EA8
ENCODING 20136
SWIDTH 1000 0
DWIDTH 12 0
BBX 12 12 -1 -2
BITMAP
0400
FFE0
0000
3F80
2080
3F80
0000
7F80
0200
0400
1C00
0000
ENDCHAR
STARTCHAR 6A2A
ENCODING 27178
SWIDTH 1000 0
DWIDTH 12 0
BBX 12 12 -1 -2
BITMAP
4480
4FE0
F480
4FE0
4100
EFC0
C940
4FC0
4940
4FC0
5860
0000
ENDCHAR
STARTCHAR 8861
ENCODING 34913
SWIDTH 1000 0
DWIDTH 12 0
BBX 12 12 -1 -2
BITMAP
2E00
4AE0
9F00
35E0
5F40
5540
DF40
4440
5F40
4A40
51C0
0000
ENDCHAR
STARTCHAR 6052
ENCODING 24658
SWIDTH 1000 0
DWIDTH 12 0
BBX 12 12 -1 -2
BITMAP
4040
5FE0
4000
EFC0
C840
4FC0
4840
4840
4FC0
4000
5FE0
0000
ENDCHAR
STARTCHAR 8F70
ENCODING 36720
SWIDTH 1000 0
DWIDTH 12 0
BBX 12 12 -1 -2
BITMAP
0800
FFE0
1400
3FC0
0400
FFE0
0400
7BC0
2A80
3180
CA60
0000
ENDCHAR
STARTCHAR 54C4
ENCODING 21700
SWIDTH 1000 0
DWIDTH 12 0
BBX 12 12 -1 -2
BITMAP
0480
E480
BFE0
A480
A480
A480
BFE0
E000
0480
0840
3020
0000
ENDCHAR
STARTCHAR 70D8
ENCODING 28888
SWIDTH 1000 0
DWIDTH 12 0
BBX 12 12 -1 -2
BITMAP
2480
2480
3480
AFE0
A480
A480
2FE0
2000
5280
4440
9820
0000
ENDCHAR
STARTCHAR 8679
ENCODING 34425
SWIDTH 1000 0
DWIDTH 12 0
BBX 12 12 -1 -2
BITMAP
2000
27E0
F900
A900
A900
A900
F900
2100
2900
F900
8FE0
0000
ENDCHAR
STARTCHAR 9E3F
ENCODING 40511
SWIDTH 1000 0
DWIDTH 12 0
BBX 12 12 -1 -2
BITMAP
4100
23C0
1E40
8B40
4AC0
4A00
4FE0
F020
4FA0
4020
40C0
0000
ENDCHAR
STARTCHAR 6D2A
ENCODING 27946
SWIDTH 1000 0
DWIDTH 12 0
BBX 12 12 -1 -2
BITMAP
4480
2480
2FE0
8480
4480
0480
5FE0
4000
C480
4840
5020
0000
ENDCHAR
STARTCHAR 5B8F
ENCODING 23439
SWIDTH 1000 0
DWIDTH 12 0
BBX 12 12 -1 -2
BITMAP
0400
7FE0
4020
8440
7FE0
0800
0A00
1200
2480
4840
9FC0
0000
ENDCHAR
STARTCHAR 5F18
ENCODING 24344
SWIDTH 1000 0
DWIDTH 12 0
BBX 12 12 -1 -2
BITMAP
F880
0880
0880
7900
4100
8100
FA00
0A40
0A40
17E0
7420
0000
ENDCHAR
STARTCHAR 7EA2
ENCODING 32418
SWIDTH 1000 0
DWIDTH 12 0
BBX 12 12 -1 -2
BITMAP
2000
2FE0
4100
9100
E100
2100
5900
E100
0900
3100
CFE0
0000
ENDCHAR
STARTCHAR 5589
ENCODING 21897
SWIDTH 1000 0
DWIDTH 12 0
BBX 12 12 -1 -2
BITMAP
05C0
E440
A880
AFE0
BA00
ABE0
AC80
EFE0
A980
0A40
0C20
0000
ENDCHAR
STARTCHAR 4FAF
ENCODING 20399
SWIDTH 1000 0
DWIDTH 12 0
BBX 12 12 -1 -2
BITMAP
2F80
2080
5FE0
4800
CFC0
5200
4200
5FE0
4300
4480
5860
0000
ENDCHAR
STARTCHAR 7334
ENCODING 29492
SWIDTH 1000 0
DWIDTH 12 0
BBX 12 12 -1 -2
BITMAP
25C0
A440
4840
AFE0
3A00
2BC0
6D00
AFE0
2980
2A40
CC20
0000
ENDCHAR
STARTCHAR 543C
ENCODING 21564
SWIDTH 1000 0
DWIDTH 12 0
BBX 12 12 -1 -2
BITMAP
1E80
E280
A480
A480
A480
A680
FC80
A480
04A0
04A0
1CE0
0000
ENDCHAR
STARTCHAR 539A
ENCODING 21402
SWIDTH 1000 0
DWIDTH 12 0
BBX 12 12 -1 -2
BITMAP
7FE0
4000
5F80
5080
5F80
4000
5F80
4100
7FE0
8200
8E00
0000
ENDCHAR
STARTCHAR 5019
ENCODING 20505
SWIDTH 1000 0
DWIDTH 12 0
BBX 12 12 -1 -2
BITMAP
2780
2080
57E0
5200
D7C0
5500
5100
5FE0
5280
4440
4820
0000
ENDCHAR
STARTCHAR 540E
ENCODING 21518
SWIDTH 1000 0
DWIDTH 12 0
BBX 12 12 -1 -2
BITMAP
0FC0
3000
2000
3FE0
2000
2000
2FC0
2840
4840
4FC0
8840
0000
ENDCHAR
STARTCHAR 547C
ENCODING 21628
SWIDTH 1000 0
DWIDTH 12 0
BBX 12 12 -1 -2
BITMAP
00C0
FF00
9120
9940
9580
9FE0
9100
F100
0100
0100
0700
0000
ENDCHAR
STARTCHAR 4E4E
ENCODING 20046
SWIDTH 1000 0
DWIDTH 12 0
BBX 12 12 -1 -2
BITMAP
03C0
7C00
2480
1480
1500
FFE0
0400
0400
0400
0400
1C00
0000
ENDCHAR
STARTCHAR 5FFD
ENCODING 24573
SWIDTH 1000 0
DWIDTH 12 0
BBX 12 12 -1 -2
BITMAP
2040
3FE0
4940
8940
1240
6440
1980
4440
52A0
90A0
1F80
0000
ENDCHAR
STARTCHAR 745A
ENCODING 29786
SWIDTH 1000 0
DWIDTH 12 0
BBX 12 12 -1 -2
BITMAP
04E0
F4A0
4FA0
44E0
F4A0
4EA0
4AE0
4AA0
7EA0
C120
02E0
0000
ENDCHAR
STARTCHAR 58F6
ENCODING 22774
SWIDTH 1000 0
DWIDTH 12 0
BBX 12 12 -1 -2
BITMAP
0400
FFE0
0400
3F80
0000
7FE0
CA20
2A80
1B00
0A00
FFE0
0000
ENDCHAR
STARTCHAR 846B
ENCODING 33899
SWIDTH 1000 0
DWIDTH 12 0
BBX 12 12 -1 -2
BITMAP
1100
FFE0
1100
23E0
FE20
23E0
7A20
4BE0
4A20
7A20
04E0
0000
ENDCHAR
STARTCHAR 80E1
ENCODING 32993
SWIDTH 1000 0
DWIDTH 12 0
BBX 12 12 -1 -2
BITMAP
23E0
2220
FE20
23E0
2220
7A20
4BE0
4A20
7A20
4420
08E0
0000
ENDCHAR
STARTCHAR 8774
ENCODING 34676
SWIDTH 1000 0
DWIDTH 12 0
BBX 12 12 -1 -2
BITMAP
44E0
44A0
FEA0
D4E0
D4A0
DEA0
FAE0
4AA0
7EA0
C920
0260
0000
ENDCHAR
STARTCHAR 72D0
ENCODING 29392
SWIDTH 1000 0
DWIDTH 12 0
BBX 12 12 -1 -2
BITMAP
90C0
6F80
4A80
AA80
2A80
2A80
6A80
AA40
2BC0
2AA0
D020
0000
ENDCHAR
STARTCHAR 7CCA
ENCODING 31946
SWIDTH 1000 0
DWIDTH 12 0
BBX 12 12 -1 -2
BITMAP
2400
B4E0
6FA0
24E0
F4A0
2EA0
7AE0
AAA0
AF20
2220
2460
0000
ENDCHAR
STARTCHAR 6E56
ENCODING 28246
SWIDTH 1000 0
DWIDTH 12 0
BBX 12 12 -1 -2
BITMAP
89E0
4920
3F20
89E0
4920
1D20
55E0
5520
DD20
4220
4460
0000
ENDCHAR
STARTCHAR 5F27
ENCODING 24359
SWIDTH 1000 0
DWIDTH 12 0
BBX 12 12 -1 -2
BITMAP
E1C0
2E80
2A80
EA80
8A80
8A80
EA40
2A40
2AC0
2B20
D020
0000
ENDCHAR
STARTCHAR 864E
ENCODING 34382
SWIDTH 1000 0
DWIDTH 12 0
BBX 12 12 -1 -2
BITMAP
07C0
0400
7FE0
4420
7F40
47C0
4000
4F00
4920
8920
B1E0
0000
ENDCHAR
STARTCHAR 552C
ENCODING 21804
SWIDTH 1000 0
DWIDTH 12 0
BBX 12 12 -1 -2
BITMAP
03C0
E200
AFE0
AA20
AF40
ABC0
E800
8B80
0AA0
14A0
28E0
0000
ENDCHAR
STARTCHAR 62A4
ENCODING 25252
SWIDTH 1000 0
DWIDTH 12 0
BBX 12 12 -1 -2
BITMAP
2100
2080
F7E0
2420
2420
37E0
E400
2400
2800
2800
F000
0000
ENDCHAR
STARTCHAR 4E92
ENCODING 20114
SWIDTH 1000 0
DWIDTH 12 0
BBX 12 12 -1 -2
BITMAP
0040
FFE0
1000
1F00
1100
1100
1100
3F00
0100
0100
FFE0
0000
ENDCHAR
STARTCHAR 6CAA
ENCODING 27818
SWIDTH 1000 0
DWIDTH 12 0
BBX 12 12 -1 -2
BITMAP
4100
2080
07E0
9420
5420
27E0
2400
4400
C800
4800
5000
0000
ENDCHAR
STARTCHAR 6237
ENCODING 25143
SWIDTH 1000 0
DWIDTH 12 0
BBX 12 12 -1 -2
BITMAP
0200
3FC0
2040
2040
2040
3FC0
2000
2000
4000
4000
8000
0000
ENDCHAR
STARTCHAR 82B1
ENCODING 33457
SWIDTH 1000 0
DWIDTH 12 0
BBX 12 12 -1 -2
BITMAP
1100
FFE0
1100
0000
1200
2240
6280
A300
2E20
2220
23E0
0000
ENDCHAR
STARTCHAR 54D7
ENCODING 21719
SWIDTH 1000 0
DWIDTH 12 0
BBX 12 12 -1 -2
BITMAP
0480
E4A0
ACC0
B580
A6A0
A4E0
E500
A100
1FE0
0100
0100
0000
ENDCHAR
STARTCHAR 534E
ENCODING 21326
SWIDTH 1000 0
DWIDTH 12 0
BBX 12 12 -1 -2
BITMAP
1200
2240
6280
A720
3A20
23E0
0400
FFE0
0400
0400
0400
0000
ENDCHAR
STARTCHAR 733E
ENCODING 29502
SWIDTH 1000 0
DWIDTH 12 0
BBX 12 12 -1 -2
BITMAP
97C0
5740
2540
6FE0
A820
37C0
6440
A7C0
2440
27C0
6440
0000
ENDCHAR
STARTCHAR 6ED1
ENCODING 28369
SWIDTH 1000 0
DWIDTH 12 0
BBX 12 12 -1 -2
BITMAP
4F80
2880
0E80
9FE0
5020
0F80
4880
4F80
C880
4F80
4880
0000
ENDCHAR
STARTCHAR 753B
ENCODING 30011
SWIDTH 1000 0
DWIDTH 12 0
BBX 12 12 -1 -2
BITMAP
FFE0
0000
1F80
54A0
54A0
5FA0
54A0
54A0
5FA0
4020
7FE0
0000
ENDCHAR
STARTCHAR 5212
ENCODING 21010
SWIDTH 1000 0
DWIDTH 12 0
BBX 12 12 -1 -2
BITMAP
2020
2820
24A0
3CA0
E0A0
24A0
28A0
10A0
3220
4A20
86E0
0000
ENDCHAR
STARTCHAR 5316
ENCODING 21270
SWIDTH 1000 0
DWIDTH 12 0
BBX 12 12 -1 -2
BITMAP
1200
1200
2240
2240
6280
A300
2600
3A00
2220
2220
23E0
0000
ENDCHAR
STARTCHAR 8BDD
ENCODING 35805
SWIDTH 1000 0
DWIDTH 12 0
BBX 12 12 -1 -2
BITMAP
40E0
2F00
2100
0FE0
E100
2100
27E0
2420
2C20
37E0
2420
0000
ENDCHAR
STARTCHAR 69D0
ENCODING 27088
SWIDTH 1000 0
DWIDTH 12 0
BBX 12 12 -1 -2
BITMAP
4200
4FC0
E940
4FC0
4940
EFC0
C100
4340
45C0
4920
51E0
0000
ENDCHAR
STARTCHAR 5F8A
ENCODING 24458
SWIDTH 1000 0
DWIDTH 12 0
BBX 12 12 -1 -2
BITMAP
2000
4FE0
8820
2BA0
4AA0
CAA0
4AA0
4BA0
4820
4FE0
4820
0000
ENDCHAR
STARTCHAR 6000
ENCODING 24576
SWIDTH 1000 0
DWIDTH 12 0
BBX 12 12 -1 -2
BITMAP
2040
2FE0
2100
B100
A380
A540
2920
3120
2100
2100
2100
0000
ENDCHAR
STARTCHAR 6DEE
ENCODING 28142
SWIDTH 1000 0
DWIDTH 12 0
BBX 12 12 -1 -2
BITMAP
4500
2480
0FE0
8900
5FE0
0900
4900
4FE0
C900
4FE0
4800
0000
ENDCHAR
STARTCHAR 574F
ENCODING 22351
SWIDTH 1000 0
DWIDTH 12 0
BBX 12 12 -1 -2
BITMAP
4040
4FE0
4100
F100
4300
4380
4540
6920
9120
2100
0100
0000
ENDCHAR
STARTCHAR 6B22
ENCODING 27426
SWIDTH 1000 0
DWIDTH 12 0
BBX 12 12 -1 -2
BITMAP
0200
FA00
13E0
9420
5540
2100
2100
5280
4A80
8440
1820
0000
ENDCHAR
STARTCHAR 73AF
ENCODING 29615
SWIDTH 1000 0
DWIDTH 12 0
BBX 12 12 -1 -2
BITMAP
0FE0
F100
2100
2100
F380
2540
2920
3120
C100
0100
0100
0000
ENDCHAR
STARTCHAR 6853
ENCODING 26707
SWIDTH 1000 0
DWIDTH 12 0
BBX 12 12 -1 -2
BITMAP
4FE0
4000
F7C0
4440
6440
D7C0
C440
4440
47C0
4000
5FE0
0000
ENDCHAR
STARTCHAR 8FD8
ENCODING 36824
SWIDTH 1000 0
DWIDTH 12 0
BBX 12 12 -1 -2
BITMAP
9FE0
4100
0200
0200
C680
4A40
5220
4200
6200
9000
8FE0
0000
ENDCHAR
STARTCHAR 7F13
ENCODING 32531
SWIDTH 1000 0
DWIDTH 12 0
BBX 12 12 -1 -2
BITMAP
21C0
4E40
5540
AFE0
E200
4FE0
B200
C3C0
3680
C980
3660
0000
ENDCHAR
STARTCHAR 6362
ENCODING 25442
SWIDTH 1000 0
DWIDTH 12 0
BBX 12 12 -1 -2
BITMAP
2200
2780
F880
2FC0
2940
3940
E940
3FE0
2280
2440
F820
0000
ENDCHAR
STARTCHAR 60A3
ENCODING 24739
SWIDTH 1000 0
DWIDTH 12 0
BBX 12 12 -1 -2
BITMAP
0400
3FC0
2440
3FC0
0400
7FC0
4440
7FC0
5440
52A0
9F80
0000
ENDCHAR
STARTCHAR 5524
ENCODING 21796
SWIDTH 1000 0
DWIDTH 12 0
BBX 12 12 -1 -2
BITMAP
0200
E780
A880
BFC0
A940
A940
A940
FFE0
8300
0480
1860
0000
ENDCHAR
STARTCHAR 75EA
ENCODING 30186
SWIDTH 1000 0
DWIDTH 12 0
BBX 12 12 -1 -2
BITMAP
0200
3FE0
A400
6F80
3100
6FC0
AA40
3FE0
4300
4480
9860
0000
ENDCHAR
STARTCHAR 8C62
ENCODING 35938
SWIDTH 1000 0
DWIDTH 12 0
BBX 12 12 -1 -2
BITMAP
2500
7FC0
0800
FFE0
2080
DF60
6880
1500
6A80
1240
EC20
0000
ENDCHAR
STARTCHAR 7115
ENCODING 28949
SWIDTH 1000 0
DWIDTH 12 0
BBX 12 12 -1 -2
BITMAP
2200
2780
2880
BFC0
A940
A940
2940
3FE0
5280
4440
9820
0000
ENDCHAR
STARTCHAR 6DA3
ENCODING 28067
SWIDTH 1000 0
DWIDTH 12 0
BBX 12 12 -1 -2
BITMAP
4400
2780
0880
9FC0
A940
4940
4940
5FE0
8280
8440
9820
0000
ENDCHAR
STARTCHAR 5BA6
ENCODING 23462
SWIDTH 1000 0
DWIDTH 12 0
BBX 12 12 -1 -2
BITMAP
0400
7FE0
C020
3FC0
2400
3F80
2080
3F80
2400
2400
3FE0
0000
ENDCHAR
STARTCHAR 5E7B
ENCODING 24187
SWIDTH 1000 0
DWIDTH 12 0
BBX 12 12 -1 -2
BITMAP
2000
27E0
2020
4820
8820
F020
1020
2820
4420
FC20
85C0
0000
ENDCHAR
STARTCHAR 8352
ENCODING 33618
SWIDTH 1000 0
DWIDTH 12 0
BBX 12 12 -1 -2
BITMAP
1100
FFE0
1500
FFE0
2000
3FC0
0000
2480
24A0
24A0
C4E0
0000
ENDCHAR
STARTCHAR 614C
ENCODING 24908
SWIDTH 1000 0
DWIDTH 12 0
BBX 12 12 -1 -2
BITMAP
4480
5FE0
6480
DFE0
C800
4FC0
4000
4A80
4AA0
4AA0
52E0
0000
ENDCHAR
STARTCHAR 9EC4
ENCODING 40644
SWIDTH 1000 0
DWIDTH 12 0
BBX 12 12 -1 -2
BITMAP
1100
7FC0
1100
FFE0
0400
3F80
2480
3F80
2480
3F80
E0E0
0000
ENDCHAR
STARTCHAR 78FA
ENCODING 30970
SWIDTH 1000 0
DWIDTH 12 0
BBX 12 12 -1 -2
BITMAP
0280
F7E0
4280
4FE0
7100
D7E0
5520
57E0
5520
77E0
0C20
0000
ENDCHAR
STARTCHAR 8757
ENCODING 34647
SWIDTH 1000 0
DWIDTH 12 0
BBX 12 12 -1 -2
BITMAP
2100
27C0
F440
B7C0
B440
B7C0
FFE0
2100
27C0
F100
0FE0
0000
ENDCHAR
STARTCHAR 7C27
ENCODING 31783
SWIDTH 1000 0
DWIDTH 12 0
BBX 12 12 -1 -2
BITMAP
2200
7BE0
9500
7FC0
1100
FFE0
2480
3F80
2480
3F80
E0E0
0000
ENDCHAR
STARTCHAR 7687
ENCODING 30343
SWIDTH 1000 0
DWIDTH 12 0
BBX 12 12 -1 -2
BITMAP
0800
3F80
2080
3F80
2080
3F80
7FC0
0400
7FC0
0400
FFE0
0000
ENDCHAR
STARTCHAR 51F0
ENCODING 20976
SWIDTH 1000 0
DWIDTH 12 0
BBX 12 12 -1 -2
BITMAP
7FC0
4440
5F40
5140
5F40
5140
5F40
4440
5F40
8460
BFA0
0000
ENDCHAR
STARTCHAR 60F6
ENCODING 24822
SWIDTH 1000 0
DWIDTH 12 0
BBX 12 12 -1 -2
BITMAP
4200
4FC0
E840
CFC0
C840
4FC0
5FE0
4200
4FC0
4200
5FE0
0000
ENDCHAR
STARTCHAR 714C
ENCODING 29004
SWIDTH 1000 0
DWIDTH 12 0
BBX 12 12 -1 -2
BITMAP
2200
27C0
2440
B7C0
A440
A7C0
2FE0
2100
57C0
4100
9FE0
0000
ENDCHAR
STARTCHAR 6643
ENCODING 26179
SWIDTH 1000 0
DWIDTH 12 0
BBX 12 12 -1 -2
BITMAP
3F80
2080
3F80
2080
3F80
2480
1500
FFE0
0A00
1220
E3E0
0000
ENDCHAR
STARTCHAR 5E4C
ENCODING 24140
SWIDTH 1000 0
DWIDTH 12 0
BBX 12 12 -1 -2
BITMAP
27C0
2440
FFC0
AC40
AFC0
A920
AB40
AFE0
2280
24A0
38E0
0000
ENDCHAR
STARTCHAR 604D
ENCODING 24653
SWIDTH 1000 0
DWIDTH 12 0
BBX 12 12 -1 -2
BITMAP
4200
4A40
4A40
E680
C200
5FE0
4500
4500
4520
4920
51E0
0000
ENDCHAR
STARTCHAR 8C0E
ENCODING 35854
SWIDTH 1000 0
DWIDTH 12 0
BBX 12 12 -1 -2
BITMAP
8480
5FE0
4500
1FE0
C800
4FC0
4000
4A80
5AA0
6AA0
12E0
0000
ENDCHAR
STARTCHAR 7070
ENCODING 28784
SWIDTH 1000 0
DWIDTH 12 0
BBX 12 12 -1 -2
BITMAP
0800
FFE0
0800
1200
1200
2A40
2A80
4500
8480
0840
3020
0000
ENDCHAR
STARTCHAR 6325
ENCODING 25381
SWIDTH 1000 0
DWIDTH 12 0
BBX 12 12 -1 -2
BITMAP
2FE0
2820
F200
2FE0
2500
3500
EFE0
2100
2FE0
2100
E100
0000
ENDCHAR
STARTCHAR 8F89
ENCODING 36745
SWIDTH 1000 0
DWIDTH 12 0
BBX 12 12 -1 -2
BITMAP
27E0
AC20
7100
27E0
FA00
5480
57E0
5880
57E0
8080
8080
0000
ENDCHAR
STARTCHAR 5FBD
ENCODING 24509
SWIDTH 1000 0
DWIDTH 12 0
BBX 12 12 -1 -2
BITMAP
4880
6A80
BEE0
2140
5D40
C940
5540
4880
5C80
6940
5A20
0000
ENDCHAR
STARTCHAR 6062
ENCODING 24674
SWIDTH 1000 0
DWIDTH 12 0
BBX 12 12 -1 -2
BITMAP
4400
5FE0
C400
E500
C520
4940
4B80
5100
4280
4440
5820
0000
ENDCHAR
STARTCHAR 86D4
ENCODING 34516
SWIDTH 1000 0
DWIDTH 12 0
BBX 12 12 -1 -2
BITMAP
27E0
2420
F420
B7A0
B6A0
B6A0
F6A0
27A0
2C20
FFE0
8420
0000
ENDCHAR
STARTCHAR 56DE
ENCODING 22238
SWIDTH 1000 0
DWIDTH 12 0
BBX 12 12 -1 -2
BITMAP
7FE0
4020
4020
5F20
5120
5120
5F20
5120
4020
7FE0
4020
0000
ENDCHAR
STARTCHAR 6BC1
ENCODING 27585
SWIDTH 1000 0
DWIDTH 12 0
BBX 12 12 -1 -2
BITMAP
23C0
DA40
8A40
DA60
8C00
FBC0
0140
F940
2080
3940
C620
0000
ENDCHAR
STARTCHAR 6094
ENCODING 24724
SWIDTH 1000 0
DWIDTH 12 0
BBX 12 12 -1 -2
BITMAP
4400
47E0
6800
D7C0
C440
4540
5FE0
4940
4FE0
4040
4180
0000
ENDCHAR
STARTCHAR 6167
ENCODING 24935
SWIDTH 1000 0
DWIDTH 12 0
BBX 12 12 -1 -2
BITMAP
1100
FBE0
1100
FBE0
1100
7FC0
0040
3FC0
5440
52A0
9F80
0000
ENDCHAR
STARTCHAR 5349
ENCODING 21321
SWIDTH 1000 0
DWIDTH 12 0
BBX 12 12 -1 -2
BITMAP
0400
7FC0
0400
1500
1500
1100
FFE0
1100
1100
2100
C100
0000
ENDCHAR
STARTCHAR 60E0
ENCODING 24800
SWIDTH 1000 0
DWIDTH 12 0
BBX 12 12 -1 -2
BITMAP
0400
FFE0
2480
3F80
2480
3F80
0440
FFE0
5440
52A0
9F80
0000
ENDCHAR
STARTCHAR 6666
ENCODING 26214
SWIDTH 1000 0
DWIDTH 12 0
BBX 12 12 -1 -2
BITMAP
0400
E7E0
A800
B7C0
E440
A540
BFE0
A940
EFE0
0040
0180
0000
ENDCHAR
STARTCHAR 8D3F
ENCODING 36159
SWIDTH 1000 0
DWIDTH 12 0
BBX 12 12 -1 -2
BITMAP
F900
8FE0
8A00
ABC0
AE40
ABC0
AA40
ABC0
3240
4A40
8AC0
0000
ENDCHAR
STARTCHAR 79FD
ENCODING 31229
SWIDTH 1000 0
DWIDTH 12 0
BBX 12 12 -1 -2
BITMAP
3100
E520
2520
FFE0
2200
33E0
6420
AA40
A180
2300
2C00
0000
ENDCHAR
STARTCHAR 4F1A
ENCODING 20250
SWIDTH 1000 0
DWIDTH 12 0
BBX 12 12 -1 -2
BITMAP
0400
0A00
1100
2080
5F60
8000
0000
7FC0
1100
2080
7FC0
0000
ENDCHAR
STARTCHAR 70E9
ENCODING 28905
SWIDTH 1000 0
DWIDTH 12 0
BBX 12 12 -1 -2
BITMAP
2100
2100
2A80
B440
ABA0
A000
2FE0
2200
5280
5440
8FE0
0000
ENDCHAR
STARTCHAR 6C47
ENCODING 27719
SWIDTH 1000 0
DWIDTH 12 0
BBX 12 12 -1 -2
BITMAP
4000
2FE0
0800
A800
6800
2800
4800
4800
C800
4800
4FE0
0000
ENDCHAR
STARTCHAR 8BB3
ENCODING 35763
SWIDTH 1000 0
DWIDTH 12 0
BBX 12 12 -1 -2
BITMAP
8100
4100
2FE0
0100
CFC0
4100
5FE0
4120
5120
61C0
0100
0000
ENDCHAR
STARTCHAR 8BF2
ENCODING 35826
SWIDTH 1000 0
DWIDTH 12 0
BBX 12 12 -1 -2
BITMAP
4400
27E0
0800
17C0
C440
4540
5FE0
4940
5840
6FE0
0080
0000
ENDCHAR
STARTCHAR 7ED8
ENCODING 32472
SWIDTH 1000 0
DWIDTH 12 0
BBX 12 12 -1 -2
BITMAP
2100
2100
5280
9440
EBA0
2000
5FE0
E200
0280
F440
8FE0
0000
ENDCHAR
STARTCHAR 8364
ENCODING 33636
SWIDTH 1000 0
DWIDTH 12 0
BBX 12 12 -1 -2
BITMAP
1100
FFE0
1100
FFE0
9020
7FC0
2400
3FC0
0400
FFE0
0400
0000
ENDCHAR
STARTCHAR 660F
ENCODING 26127
SWIDTH 1000 0
DWIDTH 12 0
BBX 12 12 -1 -2
BITMAP
3F80
4400
7FE0
4200
5920
60E0
3F80
2080
3F80
2080
3F80
0000
ENDCHAR
STARTCHAR 5A5A
ENCODING 23130
SWIDTH 1000 0
DWIDTH 12 0
BBX 12 12 -1 -2
BITMAP
27C0
2500
F7E0
5500
56A0
5060
97C0
D440
27C0
5440
87C0
0000
ENDCHAR
STARTCHAR 9B42
ENCODING 39746
SWIDTH 1000 0
DWIDTH 12 0
BBX 12 12 -1 -2
BITMAP
0200
FFC0
0940
0FC0
F940
4FC0
4100
9340
F5E0
0920
31E0
0000
ENDCHAR
STARTCHAR 6D51
ENCODING 27985
SWIDTH 1000 0
DWIDTH 12 0
BBX 12 12 -1 -2
BITMAP
4FE0
2820
0200
AFC0
6500
2900
4FC0
C100
5FE0
4100
4100
0000
ENDCHAR
STARTCHAR 6DF7
ENCODING 28151
SWIDTH 1000 0
DWIDTH 12 0
BBX 12 12 -1 -2
BITMAP
4FC0
2840
2FC0
8840
4FC0
2000
2940
CF80
4920
4B20
4DE0
0000
ENDCHAR
STARTCHAR 8C41
ENCODING 35905
SWIDTH 1000 0
DWIDTH 12 0
BBX 12 12 -1 -2
BITMAP
2140
FD20
A6A0
7880
2140
FA20
2400
FBE0
8A20
8A20
FBE0
0000
ENDCHAR
STARTCHAR 6D3B
ENCODING 27963
SWIDTH 1000 0
DWIDTH 12 0
BBX 12 12 -1 -2
BITMAP
41C0
2F00
2100
8100
5FE0
2100
2FC0
4840
C840
4FC0
4840
0000
ENDCHAR
STARTCHAR 4F19
ENCODING 20249
SWIDTH 1000 0
DWIDTH 12 0
BBX 12 12 -1 -2
BITMAP
2200
2200
2200
6A40
AA40
2A80
3300
2280
2480
2840
3020
0000
ENDCHAR
STARTCHAR 706B
ENCODING 28779
SWIDTH 1000 0
DWIDTH 12 0
BBX 12 12 -1 -2
BITMAP
0400
0400
0400
2440
2480
4500
0A00
0A00
1100
2080
C060
0000
ENDCHAR
STARTCHAR 83B7
ENCODING 33719
SWIDTH 1000 0
DWIDTH 12 0
BBX 12 12 -1 -2
BITMAP
0900
FFE0
0900
5080
2140
6FE0
B100
5100
9280
1440
6820
0000
ENDCHAR
STARTCHAR 6216
ENCODING 25110
SWIDTH 1000 0
DWIDTH 12 0
BBX 12 12 -1 -2
BITMAP
0280
0240
FFE0
0200
7A40
4A40
7A80
4900
1DA0
E260
0C20
0000
ENDCHAR
STARTCHAR 60D1
ENCODING 24785
SWIDTH 1000 0
DWIDTH 12 0
BBX 12 12 -1 -2
BITMAP
0280
FFE0
0200
7A40
4A80
7920
0EA0
F060
5440
52A0
9FA0
0000
ENDCHAR
STARTCHAR 970D
ENCODING 38669
SWIDTH 1000 0
DWIDTH 12 0
BBX 12 12 -1 -2
BITMAP
7FC0
0400
FFE0
8420
39C0
2400
7FC0
A400
3FC0
2400
3FE0
0000
ENDCHAR
STARTCHAR 8D27
ENCODING 36135
SWIDTH 1000 0
DWIDTH 12 0
BBX 12 12 -1 -2
BITMAP
1240
2380
EE20
23E0
0000
3F80
2080
2480
2480
1B00
E0C0
0000
ENDCHAR
STARTCHAR 7978
ENCODING 31096
SWIDTH 1000 0
DWIDTH 12 0
BBX 12 12 -1 -2
BITMAP
47C0
2440
F440
17C0
2100
7FE0
A920
29A0
2A60
2C20
28E0
0000
ENDCHAR
STARTCHAR 51FB
ENCODING 20987
SWIDTH 1000 0
DWIDTH 12 0
BBX 12 12 -1 -2
BITMAP
0400
0400
7FC0
0400
0400
FFE0
0400
4440
4440
4440
7FC0
0000
ENDCHAR
STARTCHAR 573E
ENCODING 22334
SWIDTH 1000 0
DWIDTH 12 0
BBX 12 12 -1 -2
BITMAP
2080
2FC0
2480
F500
25C0
2440
2440
3680
C900
1280
2C60
0000
ENDCHAR
STARTCHAR 57FA
ENCODING 22522
SWIDTH 1000 0
DWIDTH 12 0
BBX 12 12 -1 -2
BITMAP
1100
FFE0
1100
1F00
1100
FFE0
1100
2480
DF60
0400
FFE0
0000
ENDCHAR
STARTCHAR 673A
ENCODING 26426
SWIDTH 1000 0
DWIDTH 12 0
BBX 12 12 -1 -2
BITMAP
2080
27C0
FC80
2480
2480
7480
6C80
A480
A4A0
28A0
30E0
0000
ENDCHAR
STARTCHAR 7578
ENCODING 30072
SWIDTH 1000 0
DWIDTH 12 0
BBX 12 12 -1 -2
BITMAP
0100
FFE0
A900
AA80
FFE0
A840
AF40
AD40
FF40
0040
00C0
0000
ENDCHAR
STARTCHAR 7A3D
ENCODING 31293
SWIDTH 1000 0
DWIDTH 12 0
BBX 12 12 -1 -2
BITMAP
3240
EFE0
2280
F4E0
2F80
6420
B7E0
A440
27C0
2440
27C0
0000
ENDCHAR
STARTCHAR 79EF
ENCODING 31215
SWIDTH 1000 0
DWIDTH 12 0
BBX 12 12 -1 -2
BITMAP
1800
E7E0
2420
FC20
2420
77E0
6800
A240
A240
2420
3820
0000
ENDCHAR
STARTCHAR 7B95
ENCODING 31637
SWIDTH 1000 0
DWIDTH 12 0
BBX 12 12 -1 -2
BITMAP
2100
7BE0
9480
1100
7FC0
1100
1F00
1100
FFE0
1100
60C0
0000
ENDCHAR
STARTCHAR 808C
ENCODING 32908
SWIDTH 1000 0
DWIDTH 12 0
BBX 12 12 -1 -2
BITMAP
7040
53E0
5240
7240
5240
5240
7240
5240
5240
9440
B860
0000
ENDCHAR
STARTCHAR 9965
ENCODING 39269
SWIDTH 1000 0
DWIDTH 12 0
BBX 12 12 -1 -2
BITMAP
4080
47C0
7480
9480
C480
4480
4480
4480
54A0
68A0
10E0
0000
ENDCHAR
STARTCHAR 8FF9
ENCODING 36857
SWIDTH 1000 0
DWIDTH 12 0
BBX 12 12 -1 -2
BITMAP
8100
5FE0
0480
0480
CCC0
54A0
64A0
4880
5380
A000
9FE0
0000
ENDCHAR
STARTCHAR 6FC0
ENCODING 28608
SWIDTH 1000 0
DWIDTH 12 0
BBX 12 12 -1 -2
BITMAP
8880
5E80
1280
9EE0
52A0
7FA0
48A0
CE40
5240
52A0
6D20
0000
ENDCHAR
STARTCHAR 8BA5
ENCODING 35749
SWIDTH 1000 0
DWIDTH 12 0
BBX 12 12 -1 -2
BITMAP
4080
27C0
0480
E480
2480
2480
2480
3480
28A0
10A0
20E0
0000
ENDCHAR
STARTCHAR 9E21
ENCODING 40481
SWIDTH 1000 0
DWIDTH 12 0
BBX 12 12 -1 -2
BITMAP
0100
F7C0
1440
9540
55C0
2400
27E0
5020
57A0
9020
01C0
0000
ENDCHAR
STARTCHAR 59EC
ENCODING 23020
SWIDTH 1000 0
DWIDTH 12 0
BBX 12 12 -1 -2
BITMAP
27E0
2480
F480
55C0
5540
5540
9540
D5C0
2480
5480
87E0
0000
ENDCHAR
STARTCHAR 7EE9
ENCODING 32489
SWIDTH 1000 0
DWIDTH 12 0
BBX 12 12 -1 -2
BITMAP
2100
2FE0
5100
9FE0
E100
4FE0
B440
C540
3540
C280
1C60
0000
ENDCHAR
STARTCHAR 7F09
ENCODING 32521
SWIDTH 1000 0
DWIDTH 12 0
BBX 12 12 -1 -2
BITMAP
27C0
4440
97C0
E000
2FE0
4440
F7C0
0440
37E0
CC40
0040
0000
ENDCHAR
STARTCHAR 5409
ENCODING 21513
SWIDTH 1000 0
DWIDTH 12 0
BBX 12 12 -1 -2
BITMAP
0400
0400
FFE0
0400
7FC0
0000
3F80
2080
2080
3F80
2080
0000
ENDCHAR
STARTCHAR 6781
ENCODING 26497
SWIDTH 1000 0
DWIDTH 12 0
BBX 12 12 -1 -2
BITMAP
2FC0
2440
FC80
2480
65E0
7420
A640
A540
2880
2940
3620
0000
ENDCHAR
STARTCHAR 68D8
ENCODING 26840
SWIDTH 1000 0
DWIDTH 12 0
BBX 12 12 -1 -2
BITMAP
2080
FBE0
2080
FBE0
AAA0
AAA0
AAE0
3180
6AC0
A4A0
2880
0000
ENDCHAR
STARTCHAR 8F91
ENCODING 36753
SWIDTH 1000 0
DWIDTH 12 0
BBX 12 12 -1 -2
BITMAP
27C0
2440
F7C0
4000
AFE0
F440
25C0
3740
E460
2FC0
2040
0000
ENDCHAR
STARTCHAR 7C4D
ENCODING 31821
SWIDTH 1000 0
DWIDTH 12 0
BBX 12 12 -1 -2
BITMAP
2100
7BE0
9480
2280
F7E0
2280
F7E0
2240
73C0
AA40
23C0
0000
ENDCHAR
STARTCHAR 96C6
ENCODING 38598
SWIDTH 1000 0
DWIDTH 12 0
BBX 12 12 -1 -2
BITMAP
1400
3FC0
6400
BFC0
2400
3FC0
2400
FFE0
1500
2480
C460
0000
ENDCHAR
STARTCHAR 53CA
ENCODING 21450
SWIDTH 1000 0
DWIDTH 12 0
BBX 12 12 -1 -2
BITMAP
7F80
1080
1100
1100
19C0
1440
1480
2300
2300
4C80
B060
0000
ENDCHAR
STARTCHAR 6025
ENCODING 24613
SWIDTH 1000 0
DWIDTH 12 0
BBX 12 12 -1 -2
BITMAP
1000
1F00
2100
5FC0
8040
3FC0
0040
3FC0
5240
50A0
9F80
0000
ENDCHAR
STARTCHAR 75BE
ENCODING 30142
SWIDTH 1000 0
DWIDTH 12 0
BBX 12 12 -1 -2
BITMAP
0200
3FE0
A400
6400
2FC0
7200
A200
3FE0
2500
4880
B060
0000
ENDCHAR
STARTCHAR 6C72
ENCODING 27762
SWIDTH 1000 0
DWIDTH 12 0
BBX 12 12 -1 -2
BITMAP
4FC0
2440
0480
A480
65E0
2440
4A40
4A80
C900
5280
6C60
0000
ENDCHAR
STARTCHAR 5373
ENCODING 21363
SWIDTH 1000 0
DWIDTH 12 0
BBX 12 12 -1 -2
BITMAP
FBC0
8A40
FA40
8A40
8A40
FA40
8240
9240
BAC0
CA00
0200
0000
ENDCHAR
STARTCHAR 5AC9
ENCODING 23241
SWIDTH 1000 0
DWIDTH 12 0
BBX 12 12 -1 -2
BITMAP
4080
47E0
F400
5500
5DE0
9680
9FE0
E480
3480
4940
9220
0000
ENDCHAR
STARTCHAR 7EA7
ENCODING 32423
SWIDTH 1000 0
DWIDTH 12 0
BBX 12 12 -1 -2
BITMAP
2040
2FE0
4240
9280
E2C0
4240
9240
E540
1480
E940
1620
0000
ENDCHAR
STARTCHAR 6324
ENCODING 25380
SWIDTH 1000 0
DWIDTH 12 0
BBX 12 12 -1 -2
BITMAP
2100
2FE0
F440
2280
3100
6280
ACE0
2480
2480
2480
E880
0000
ENDCHAR
STARTCHAR 51E0
ENCODING 20960
SWIDTH 1000 0
DWIDTH 12 0
BBX 12 12 -1 -2
BITMAP
1F00
1100
1100
1100
1100
1100
1100
1100
2120
4120
81E0
0000
ENDCHAR
STARTCHAR 810A
ENCODING 33034
SWIDTH 1000 0
DWIDTH 12 0
BBX 12 12 -1 -2
BITMAP
4440
2580
2A40
D120
3FC0
D0A0
1F80
1080
1F80
1080
1380
0000
ENDCHAR
STARTCHAR 5DF1
ENCODING 24049
SWIDTH 1000 0
DWIDTH 12 0
BBX 12 12 -1 -2
BITMAP
0080
7FC0
0080
0080
7F80
4000
4000
4020
4020
4020
7FE0
0000
ENDCHAR
STARTCHAR 84DF
ENCODING 34015
SWIDTH 1000 0
DWIDTH 12 0
BBX 12 12 -1 -2
BITMAP
1100
FFE0
3940
4840
FD40
5540
7D40
5540
7D40
0040
FDC0
0000
ENDCHAR
STARTCHAR 6280
ENCODING 25216
SWIDTH 1000 0
DWIDTH 12 0
BBX 12 12 -1 -2
BITMAP
2100
2100
F7E0
2100
2100
37C0
E440
2280
2100
2280
EC60
0000
ENDCHAR
STARTCHAR 5180
ENCODING 20864
SWIDTH 1000 0
DWIDTH 12 0
BBX 12 12 -1 -2
BITMAP
FAC0
0B20
F9E0
3F80
2480
3F80
2480
7FC0
1100
FFE0
2080
0000
ENDCHAR
STARTCHAR 5B63
ENCODING 23395
SWIDTH 1000 0
DWIDTH 12 0
BBX 12 12 -1 -2
BITMAP
3F80
0400
FFE0
1500
2480
FF60
0200
0400
FFE0
0400
1C00
0000
ENDCHAR
STARTCHAR 4F0E
ENCODING 20238
SWIDTH 1000 0
DWIDTH 12 0
BBX 12 12 -1 -2
BITMAP
1100
1100
2FE0
2100
6100
AFC0
2440
2280
2100
2280
3C60
0000
ENDCHAR
STARTCHAR 796D
ENCODING 31085
SWIDTH 1000 0
DWIDTH 12 0
BBX 12 12 -1 -2
BITMAP
2200
3BC0
4A80
A900
5080
2F60
C000
7FC0
1480
2440
CC20
0000
ENDCHAR
STARTCHAR 5242
ENCODING 21058
SWIDTH 1000 0
DWIDTH 12 0
BBX 12 12 -1 -2
BITMAP
1020
FE20
24A0
18A0
24A0
C2A0
24A0
24A0
24A0
2420
44E0
0000
ENDCHAR
STARTCHAR 60B8
ENCODING 24760
SWIDTH 1000 0
DWIDTH 12 0
BBX 12 12 -1 -2
BITMAP
4FC0
4200
5FE0
E700
CA80
7260
4F80
4100
7FE0
4200
4600
0000
ENDCHAR
STARTCHAR 6D4E
ENCODING 27982
SWIDTH 1000 0
DWIDTH 12 0
BBX 12 12 -1 -2
BITMAP
4200
3FE0
0880
A500
6300
2480
5860
4480
C480
4880
5080
0000
ENDCHAR
STARTCHAR 5BC4
ENCODING 23492
SWIDTH 1000 0
DWIDTH 12 0
BBX 12 12 -1 -2
BITMAP
0400
7FE0
C420
3F80
1100
FFE0
0080
3C80
2480
3C80
0380
0000
ENDCHAR
STARTCHAR 5BC2
ENCODING 23490
SWIDTH 1000 0
DWIDTH 12 0
BBX 12 12 -1 -2
BITMAP
0400
FFE0
A020
3BC0
2240
FE40
2140
7180
A880
A940
6620
0000
ENDCHAR
STARTCHAR 8BA1
ENCODING 35745
SWIDTH 1000 0
DWIDTH 12 0
BBX 12 12 -1 -2
BITMAP
4100
2100
0100
0100
CFE0
4100
4100
4100
5100
6100
4100
0000
ENDCHAR
STARTCHAR 8BB0
ENCODING 35760
SWIDTH 1000 0
DWIDTH 12 0
BBX 12 12 -1 -2
BITMAP
4040
27E0
2040
0040
E440
27C0
2400
2400
2C20
3420
27E0
0000
ENDCHAR
STARTCHAR 65E2
ENCODING 26082
SWIDTH 1000 0
DWIDTH 12 0
BBX 12 12 -1 -2
BITMAP
F7E0
9080
9480
F480
9480
F7E0
8080
9180
BAA0
C4A0
08E0
0000
ENDCHAR
STARTCHAR 5FCC
ENCODING 24524
SWIDTH 1000 0
DWIDTH 12 0
BBX 12 12 -1 -2
BITMAP
7F80
0080
0080
7F80
4040
4040
3FC0
0400
5240
50A0
9F80
0000
ENDCHAR
STARTCHAR 9645
ENCODING 38469
SWIDTH 1000 0
DWIDTH 12 0
BBX 12 12 -1 -2
BITMAP
F7C0
9000
9000
AFE0
A100
9100
9540
F540
8920
9120
8700
0000
ENDCHAR
STARTCHAR 5993
ENCODING 22931
SWIDTH 1000 0
DWIDTH 12 0
BBX 12 12 -1 -2
BITMAP
2100
2100
FFE0
4900
4900
57C0
9440
5280
3100
4A80
9C60
0000
ENDCHAR
STARTCHAR 7EE7
ENCODING 32487
SWIDTH 1000 0
DWIDTH 12 0
BBX 12 12 -1 -2
BITMAP
2900
4D40
4B40
9980
EFE0
4900
B980
CB40
1D40
E900
8FE0
0000
ENDCHAR
STARTCHAR 7EAA
ENCODING 32426
SWIDTH 1000 0
DWIDTH 12 0
BBX 12 12 -1 -2
BITMAP
2040
27E0
4840
9040
E7C0
4400
9C00
E420
0420
3420
C3E0
0000
ENDCHAR
STARTCHAR 5609
ENCODING 22025
SWIDTH 1000 0
DWIDTH 12 0
BBX 12 12 -1 -2
BITMAP
0400
FFE0
0400
7FC0
2080
3F80
1100
FFE0
2A40
2A40
DBC0
0000
ENDCHAR
STARTCHAR 67B7
ENCODING 26551
SWIDTH 1000 0
DWIDTH 12 0
BBX 12 12 -1 -2
BITMAP
2800
28E0
2EA0
FAA0
2AA0
6AA0
7AA0
AAA0
2AA0
36E0
2000
0000
ENDCHAR
STARTCHAR 5939
ENCODING 22841
SWIDTH 1000 0
DWIDTH 12 0
BBX 12 12 -1 -2
BITMAP
0400
7FC0
0400
2480
1500
1500
FFE0
0A00
1100
2080
C060
0000
ENDCHAR
STARTCHAR 4F73
ENCODING 20339
SWIDTH 1000 0
DWIDTH 12 0
BBX 12 12 -1 -2
BITMAP
1100
2100
2FE0
6100
AFE0
2100
2100
2FE0
2100
2100
3FE0
0000
ENDCHAR
STARTCHAR 5BB6
ENCODING 23478
SWIDTH 1000 0
DWIDTH 12 0
BBX 12 12 -1 -2
BITMAP
0400
7FE0
C020
3F80
1440
2480
CB00
1680
6A40
3220
CE00
0000
ENDCHAR
STARTCHAR 52A0
ENCODING 21152
SWIDTH 1000 0
DWIDTH 12 0
BBX 12 12 -1 -2
BITMAP
2000
2000
FDE0
2520
2520
2520
2520
2520
4520
45E0
9920
0000
ENDCHAR
STARTCHAR 835A
ENCODING 33626
SWIDTH 1000 0
DWIDTH 12 0
BBX 12 12 -1 -2
BITMAP
1100
FFE0
1100
0400
7FC0
2480
1500
FFE0
0A00
1100
E0E0
0000
ENDCHAR
STARTCHAR 988A
ENCODING 39050
SWIDTH 1000 0
DWIDTH 12 0
BBX 12 12 -1 -2
BITMAP
27E0
F900
23E0
AA20
72A0
22A0
FAA0
22A0
3080
4940
8620
0000
ENDCHAR
STARTCHAR 8D3E
ENCODING 36158
SWIDTH 1000 0
DWIDTH 12 0
BBX 12 12 -1 -2
BITMAP
FFE0
0900
7FC0
4940
7FC0
0000
3F80
2480
2480
0B00
F0C0
0000
ENDCHAR
STARTCHAR 7532
ENCODING 30002
SWIDTH 1000 0
DWIDTH 12 0
BBX 12 12 -1 -2
BITMAP
7FC0
4440
4440
7FC0
4440
4440
7FC0
0400
0400
0400
0400
0000
ENDCHAR
STARTCHAR 94BE
ENCODING 38078
SWIDTH 1000 0
DWIDTH 12 0
BBX 12 12 -1 -2
BITMAP
47E0
7D20
4520
F7E0
A520
2520
FFE0
2100
2900
3100
2100
0000
ENDCHAR
STARTCHAR 5047
ENCODING 20551
SWIDTH 1000 0
DWIDTH 12 0
BBX 12 12 -1 -2
BITMAP
5EE0
5220
5220
5EE0
D000
5DE0
5140
5F40
5080
5140
5220
0000
ENDCHAR
STARTCHAR 7A3C
ENCODING 31292
SWIDTH 1000 0
DWIDTH 12 0
BBX 12 12 -1 -2
BITMAP
3100
EFE0
2820
F7C0
2220
7540
A280
AD80
22C0
2CA0
2300
0000
ENDCHAR
STARTCHAR 4EF7
ENCODING 20215
SWIDTH 1000 0
DWIDTH 12 0
BBX 12 12 -1 -2
BITMAP
1200
2300
2480
6840
B4A0
2480
2480
2480
2480
2880
3080
0000
ENDCHAR
STARTCHAR 67B6
ENCODING 26550
SWIDTH 1000 0
DWIDTH 12 0
BBX 12 12 -1 -2
BITMAP
2000
FBC0
2A40
2A40
4BC0
9800
0400
FFE0
1500
2480
C460
0000
ENDCHAR
STARTCHAR 9A7E
ENCODING 39550
SWIDTH 1000 0
DWIDTH 12 0
BBX 12 12 -1 -2
BITMAP
21E0
FD20
2520
4DE0
8000
3F80
1100
1FE0
0020
FF20
00C0
0000
ENDCHAR
STARTCHAR 5AC1
ENCODING 23233
SWIDTH 1000 0
DWIDTH 12 0
BBX 12 12 -1 -2
BITMAP
2100
27E0
F420
57E0
5220
5540
9280
D580
22C0
54A0
8B00
0000
ENDCHAR
STARTCHAR 6B7C
ENCODING 27516
SWIDTH 1000 0
DWIDTH 12 0
BBX 12 12 -1 -2
BITMAP
00C0
FF00
4100
7100
5100
DFE0
B100
2100
2100
4100
8100
0000
ENDCHAR
STARTCHAR 76D1
ENCODING 30417
SWIDTH 1000 0
DWIDTH 12 0
BBX 12 12 -1 -2
BITMAP
1200
5240
53E0
5480
5440
1000
7FC0
4A40
4A40
4A40
FFE0
0000
ENDCHAR
STARTCHAR 575A
ENCODING 22362
SWIDTH 1000 0
DWIDTH 12 0
BBX 12 12 -1 -2
BITMAP
17C0
5440
5280
5100
5280
5460
1800
0400
7FC0
0400
FFE0
0000
ENDCHAR
STARTCHAR 5C16
ENCODING 23574
SWIDTH 1000 0
DWIDTH 12 0
BBX 12 12 -1 -2
BITMAP
0400
1500
2480
4440
8020
0400
FFE0
0600
0900
1080
E060
0000
ENDCHAR
STARTCHAR 7B3A
ENCODING 31546
SWIDTH 1000 0
DWIDTH 12 0
BBX 12 12 -1 -2
BITMAP
2100
7BE0
5480
8900
0FE0
F800
0FE0
F880
0920
0620
F9E0
0000
ENDCHAR
STARTCHAR 95F4
ENCODING 38388
SWIDTH 1000 0
DWIDTH 12 0
BBX 12 12 -1 -2
BITMAP
4FC0
2040
8040
9F40
9140
9F40
9140
9140
9F40
8040
80C0
0000
ENDCHAR
STARTCHAR 714E
ENCODING 29006
SWIDTH 1000 0
DWIDTH 12 0
BBX 12 12 -1 -2
BITMAP
1100
FFE0
0000
7940
4940
7940
4940
48C0
0000
5240
8920
0000
ENDCHAR
STARTCHAR 517C
ENCODING 20860
SWIDTH 1000 0
DWIDTH 12 0
BBX 12 12 -1 -2
BITMAP
1100
FFE0
0A00
7F80
0A80
FFE0
0A80
7F80
1B00
2A80
CA60
0000
ENDCHAR
STARTCHAR 80A9
ENCODING 32937
SWIDTH 1000 0
DWIDTH 12 0
BBX 12 12 -1 -2
BITMAP
0200
7FC0
4040
7FC0
4000
5FC0
5040
5FC0
5040
9FC0
9040
0000
ENDCHAR
STARTCHAR 8270
ENCODING 33392
SWIDTH 1000 0
DWIDTH 12 0
BBX 12 12 -1 -2
BITMAP
07C0
F440
17C0
9440
5440
27C0
2520
5540
5480
8540
0620
0000
ENDCHAR
STARTCHAR 5978
ENCODING 22904
SWIDTH 1000 0
DWIDTH 12 0
BBX 12 12 -1 -2
BITMAP
2040
27E0
F900
4900
4900
4FE0
D100
3100
2900
4500
8100
0000
ENDCHAR
STARTCHAR 7F04
ENCODING 32516
SWIDTH 1000 0
DWIDTH 12 0
BBX 12 12 -1 -2
BITMAP
40C0
40A0
9FE0
E880
2FA0
48A0
EEA0
0AC0
2EA0
D160
2220
0000
ENDCHAR
STARTCHAR 8327
ENCODING 33575
SWIDTH 1000 0
DWIDTH 12 0
BBX 12 12 -1 -2
BITMAP
1100
FFE0
1100
0400
7FC0
4440
4440
7FC0
0480
0440
FFE0
0000
ENDCHAR
STARTCHAR 68C0
ENCODING 26816
SWIDTH 1000 0
DWIDTH 12 0
BBX 12 12 -1 -2
BITMAP
2200
2300
F480
2840
67A0
7000
AA40
A540
2540
2080
3FE0
0000
ENDCHAR
STARTCHAR 67EC
ENCODING 26604
SWIDTH 1000 0
DWIDTH 12 0
BBX 12 12 -1 -2
BITMAP
0400
FFE0
0400
7FC0
4440
5540
7FC0
0E00
1500
2480
C460
0000
ENDCHAR
STARTCHAR 78B1
ENCODING 30897
SWIDTH 1000 0
DWIDTH 12 0
BBX 12 12 -1 -2
BITMAP
00C0
F0A0
4FE0
4880
EFA0
A8A0
AEA0
AAC0
EEA0
1160
2220
0000
ENDCHAR
STARTCHAR 7877
ENCODING 30839
SWIDTH 1000 0
DWIDTH 12 0
BBX 12 12 -1 -2
BITMAP
0100
F100
4280
4440
7BA0
D000
5A40
5540
7540
0080
1FE0
0000
ENDCHAR
STARTCHAR 62E3
ENCODING 25315
SWIDTH 1000 0
DWIDTH 12 0
BBX 12 12 -1 -2
BITMAP
2200
2FE0
F200
2F80
3480
6480
A7E0
2080
24C0
28A0
F3A0
0000
ENDCHAR
STARTCHAR 6361
ENCODING 25441
SWIDTH 1000 0
DWIDTH 12 0
BBX 12 12 -1 -2
BITMAP
2200
2300
F480
2840
37A0
6000
AA40
2540
2540
2080
FFE0
0000
ENDCHAR
STARTCHAR 7B80
ENCODING 31616
SWIDTH 1000 0
DWIDTH 12 0
BBX 12 12 -1 -2
BITMAP
2100
7BE0
9480
2FC0
5040
4F40
4940
4F40
4940
4F40
40C0
0000
ENDCHAR
STARTCHAR 4FED
ENCODING 20461
SWIDTH 1000 0
DWIDTH 12 0
BBX 12 12 -1 -2
BITMAP
1200
1300
2480
2840
77A0
A000
2A40
2540
2480
2080
3FE0
0000
ENDCHAR
STARTCHAR 526A
ENCODING 21098
SWIDTH 1000 0
DWIDTH 12 0
BBX 12 12 -1 -2
BITMAP
1100
FFE0
4840
7A40
4A40
7A40
48C0
0000
7FC0
0840
7380
0000
ENDCHAR
STARTCHAR 51CF
ENCODING 20943
SWIDTH 1000 0
DWIDTH 12 0
BBX 12 12 -1 -2
BITMAP
8140
4140
5FE0
1100
5F20
5120
9F40
9A80
AEA0
A960
4220
0000
ENDCHAR
STARTCHAR 8350
ENCODING 33616
SWIDTH 1000 0
DWIDTH 12 0
BBX 12 12 -1 -2
BITMAP
1100
FFE0
0900
FFE0
1000
2FC0
2080
6FE0
A100
2100
2700
0000
ENDCHAR
STARTCHAR 69DB
ENCODING 27099
SWIDTH 1000 0
DWIDTH 12 0
BBX 12 12 -1 -2
BITMAP
4280
4A80
FBE0
4A80
4A40
E000
DFC0
5540
5540
5540
7FE0
0000
ENDCHAR
STARTCHAR 9274
ENCODING 37492
SWIDTH 1000 0
DWIDTH 12 0
BBX 12 12 -1 -2
BITMAP
1200
53E0
5280
5440
0A00
1100
3F80
C460
3F80
1500
FFE0
0000
ENDCHAR
STARTCHAR 8DF5
ENCODING 36341
SWIDTH 1000 0
DWIDTH 12 0
BBX 12 12 -1 -2
BITMAP
0280
FA40
8A00
8FE0
FA00
27E0
B940
A180
A920
B2A0
CC60
0000
ENDCHAR
STARTCHAR 8D31
ENCODING 36145
SWIDTH 1000 0
DWIDTH 12 0
BBX 12 12 -1 -2
BITMAP
FA80
8A40
8A00
AFE0
AA00
AFE0
AA40
A980
5120
4AA0
8C60
0000
ENDCHAR
STARTCHAR 89C1
ENCODING 35265
SWIDTH 1000 0
DWIDTH 12 0
BBX 12 12 -1 -2
BITMAP
3F80
2080
2480
2480
2480
2480
2A80
0A00
1220
2220
C3E0
0000
ENDCHAR
STARTCHAR 952E
ENCODING 38190
SWIDTH 1000 0
DWIDTH 12 0
BBX 12 12 -1 -2
BITMAP
4100
7FC0
8940
EBE0
5D40
47C0
F500
57E0
4900
6D00
53E0
0000
ENDCHAR
STARTCHAR 7BAD
ENCODING 31661
SWIDTH 1000 0
DWIDTH 12 0
BBX 12 12 -1 -2
BITMAP
2200
3BE0
5480
8900
FFE0
4840
7940
4940
7940
4940
58C0
0000
ENDCHAR
STARTCHAR 4EF6
ENCODING 20214
SWIDTH 1000 0
DWIDTH 12 0
BBX 12 12 -1 -2
BITMAP
2100
2900
2940
4FE0
D100
4100
5FE0
4100
4100
4100
4100
0000
ENDCHAR
STARTCHAR 5065
ENCODING 20581
SWIDTH 1000 0
DWIDTH 12 0
BBX 12 12 -1 -2
BITMAP
2100
3BC0
4940
53E0
DD40
47C0
6500
57E0
4900
4D00
53E0
0000
ENDCHAR
STARTCHAR 8230
ENCODING 33328
SWIDTH 1000 0
DWIDTH 12 0
BBX 12 12 -1 -2
BITMAP
2040
77E0
5440
7540
5540
F540
5540
7180
52A0
94A0
B8E0
0000
ENDCHAR
STARTCHAR 5251
ENCODING 21073
SWIDTH 1000 0
DWIDTH 12 0
BBX 12 12 -1 -2
BITMAP
1020
1820
24A0
42A0
BCA0
00A0
54A0
54A0
4820
1E20
E0E0
0000
ENDCHAR
STARTCHAR 996F
ENCODING 39279
SWIDTH 1000 0
DWIDTH 12 0
BBX 12 12 -1 -2
BITMAP
4280
4240
73E0
9E00
C3E0
5E00
4240
4A80
5120
66A0
1860
0000
ENDCHAR
STARTCHAR 6E10
ENCODING 28176
SWIDTH 1000 0
DWIDTH 12 0
BBX 12 12 -1 -2
BITMAP
8860
5F80
0900
91E0
A940
7F40
4940
8D40
B940
8A40
8C40
0000
ENDCHAR
STARTCHAR 6E85
ENCODING 28293
SWIDTH 1000 0
DWIDTH 12 0
BBX 12 12 -1 -2
BITMAP
9EC0
52A0
12E0
9B80
5AE0
5B80
5AA0
DAC0
48A0
5560
6220
0000
ENDCHAR
STARTCHAR 6DA7
ENCODING 28071
SWIDTH 1000 0
DWIDTH 12 0
BBX 12 12 -1 -2
BITMAP
4800
25E0
0820
ABA0
6AA0
2BA0
4AA0
CAA0
4BA0
4820
48E0
0000
ENDCHAR
STARTCHAR 5EFA
ENCODING 24314
SWIDTH 1000 0
DWIDTH 12 0
BBX 12 12 -1 -2
BITMAP
0200
EFC0
2240
5FE0
8240
EFC0
2200
BFE0
4200
6200
9FE0
0000
ENDCHAR
STARTCHAR 50F5
ENCODING 20725
SWIDTH 1000 0
DWIDTH 12 0
BBX 12 12 -1 -2
BITMAP
3FE0
2A40
4FC0
4A40
CFC0
4000
5FE0
4A40
4FC0
4A40
7FE0
0000
ENDCHAR
STARTCHAR 59DC
ENCODING 23004
SWIDTH 1000 0
DWIDTH 12 0
BBX 12 12 -1 -2
BITMAP
1100
FFE0
0400
7FC0
0400
FFE0
0800
FFE0
1200
0F00
F8C0
0000
ENDCHAR
STARTCHAR 5C06
ENCODING 23558
SWIDTH 1000 0
DWIDTH 12 0
BBX 12 12 -1 -2
BITMAP
2200
23E0
A440
6A80
2100
2240
7FE0
A440
2240
2240
21C0
0000
ENDCHAR
STARTCHAR 6D46
ENCODING 27974
SWIDTH 1000 0
DWIDTH 12 0
BBX 12 12 -1 -2
BITMAP
9200
53E0
1640
3980
D300
1C40
0480
F700
1500
2480
CC60
0000
ENDCHAR
STARTCHAR 6C5F
ENCODING 27743
SWIDTH 1000 0
DWIDTH 12 0
BBX 12 12 -1 -2
BITMAP
8000
5FC0
0200
A200
6200
2200
4200
4200
C200
4200
7FE0
0000
ENDCHAR
STARTCHAR 7586
ENCODING 30086
SWIDTH 1000 0
DWIDTH 12 0
BBX 12 12 -1 -2
BITMAP
FFE0
1540
17C0
F540
8FE0
F000
57C0
F540
57C0
9540
6FE0
0000
ENDCHAR
STARTCHAR 848B
ENCODING 33931
SWIDTH 1000 0
DWIDTH 12 0
BBX 12 12 -1 -2
BITMAP
1100
FFE0
1200
27C0
A880
6500
2280
6FE0
A480
2280
2180
0000
ENDCHAR
STARTCHAR 6868
ENCODING 26728
SWIDTH 1000 0
DWIDTH 12 0
BBX 12 12 -1 -2
BITMAP
1100
D3E0
3440
1A80
3100
D600
0440
FFE0
1500
2480
C460
0000
ENDCHAR
STARTCHAR 5956
ENCODING 22870
SWIDTH 1000 0
DWIDTH 12 0
BBX 12 12 -1 -2
BITMAP
1100
93E0
5440
3A80
5100
9600
0400
FFE0
0A00
1100
E0E0
0000
ENDCHAR
STARTCHAR 8BB2
ENCODING 35762
SWIDTH 1000 0
DWIDTH 12 0
BBX 12 12 -1 -2
BITMAP
8480
4480
1FE0
0480
C480
4480
5FE0
4480
5480
6880
5080
0000
ENDCHAR
STARTCHAR 5320
ENCODING 21280
SWIDTH 1000 0
DWIDTH 12 0
BBX 12 12 -1 -2
BITMAP
FFE0
8000
9F80
9000
9FC0
9200
9200
9200
A200
C200
FFE0
0000
ENDCHAR
STARTCHAR 9171
ENCODING 37233
SWIDTH 1000 0
DWIDTH 12 0
BBX 12 12 -1 -2
BITMAP
9200
57C0
3A80
5100
FFE0
0A00
7FC0
4A40
7FC0
4040
7FC0
0000
ENDCHAR
STARTCHAR 964D
ENCODING 38477
SWIDTH 1000 0
DWIDTH 12 0
BBX 12 12 -1 -2
BITMAP
F3C0
9240
9680
A900
A6E0
9900
97C0
F500
8FE0
8100
8100
0000
ENDCHAR
STARTCHAR 8549
ENCODING 34121
SWIDTH 1000 0
DWIDTH 12 0
BBX 12 12 -1 -2
BITMAP
1100
FFE0
1500
2200
3FE0
6200
BFC0
2200
3FE0
5240
C920
0000
ENDCHAR
STARTCHAR 6912
ENCODING 26898
SWIDTH 1000 0
DWIDTH 12 0
BBX 12 12 -1 -2
BITMAP
4400
45E0
F720
4520
5F20
E540
CD40
5680
5480
4540
4E20
0000
ENDCHAR
STARTCHAR 7901
ENCODING 30977
SWIDTH 1000 0
DWIDTH 12 0
BBX 12 12 -1 -2
BITMAP
0480
F7E0
4C80
47E0
7480
D7E0
5480
57E0
7000
4AA0
0AA0
0000
ENDCHAR
STARTCHAR 7126
ENCODING 28966
SWIDTH 1000 0
DWIDTH 12 0
BBX 12 12 -1 -2
BITMAP
1400
1200
3FE0
6200
BFC0
2200
3FC0
2200
3FE0
5240
C920
0000
ENDCHAR
STARTCHAR 80F6
ENCODING 33014
SWIDTH 1000 0
DWIDTH 12 0
BBX 12 12 -1 -2
BITMAP
7100
5FE0
5000
7240
5420
5CA0
7280
5280
5100
9280
BC60
0000
ENDCHAR
STARTCHAR 4EA4
ENCODING 20132
SWIDTH 1000 0
DWIDTH 12 0
BBX 12 12 -1 -2
BITMAP
0400
FFE0
1100
2080
5140
9100
1100
0A00
0400
1B00
E0E0
0000
ENDCHAR
STARTCHAR 90CA
ENCODING 37066
SWIDTH 1000 0
DWIDTH 12 0
BBX 12 12 -1 -2
BITMAP
2000
11E0
FF20
2940
4580
C940
2920
1120
2920
45C0
8100
0000
ENDCHAR
STARTCHAR 6D47
ENCODING 27975
SWIDTH 1000 0
DWIDTH 12 0
BBX 12 12 -1 -2
BITMAP
8400
47C0
1C00
82A0
A320
5CE0
4000
DFC0
4520
4920
71E0
0000
ENDCHAR
STARTCHAR 9A84
ENCODING 39556
SWIDTH 1000 0
DWIDTH 12 0
BBX 12 12 -1 -2
BITMAP
F0C0
1700
5100
5FE0
5280
7440
1A60
3240
D240
1440
7840
0000
ENDCHAR
STARTCHAR 5A07
ENCODING 23047
SWIDTH 1000 0
DWIDTH 12 0
BBX 12 12 -1 -2
BITMAP
20C0
2700
F100
5FE0
5280
56C0
9AA0
D280
2280
5480
8880
0000
ENDCHAR
STARTCHAR 56BC
ENCODING 22204
SWIDTH 1000 0
DWIDTH 12 0
BBX 12 12 -1 -2
BITMAP
1FE0
EA80
AFE0
AAA0
AFE0
AA40
AFE0
EA40
0EC0
0840
0EC0
0000
ENDCHAR
STARTCHAR 6405
ENCODING 25605
SWIDTH 1000 0
DWIDTH 12 0
BBX 12 12 -1 -2
BITMAP
2A40
2540
FFE0
2820
27C0
3440
E540
2540
2320
2520
F9E0
0000
ENDCHAR
STARTCHAR 94F0
ENCODING 38128
SWIDTH 1000 0
DWIDTH 12 0
BBX 12 12 -1 -2
BITMAP
4100
77E0
4000
8240
F420
4A40
F240
4180
5100
6280
4C60
0000
ENDCHAR
STARTCHAR 77EB
ENCODING 30699
SWIDTH 1000 0
DWIDTH 12 0
BBX 12 12 -1 -2
BITMAP
40C0
4F00
F200
AFE0
2280
F440
2AA0
2280
5280
5480
8880
0000
ENDCHAR
STARTCHAR 4FA5
ENCODING 20389
SWIDTH 1000 0
DWIDTH 12 0
BBX 12 12 -1 -2
BITMAP
2400
24E0
3F40
4280
C720
58E0
4000
5FC0
4500
4920
71E0
0000
ENDCHAR
STARTCHAR 811A
ENCODING 33050
SWIDTH 1000 0
DWIDTH 12 0
BBX 12 12 -1 -2
BITMAP
7400
54E0
5FA0
74A0
54A0
5FA0
74A0
5AA0
5FE0
9080
B080
0000
ENDCHAR
STARTCHAR 72E1
ENCODING 29409
SWIDTH 1000 0
DWIDTH 12 0
BBX 12 12 -1 -2
BITMAP
9200
5100
2FE0
6240
9420
3A80
5280
9280
1100
1280
EC60
0000
ENDCHAR
STARTCHAR 89D2
ENCODING 35282
SWIDTH 1000 0
DWIDTH 12 0
BBX 12 12 -1 -2
BITMAP
1000
1F00
2200
7FC0
A440
3FC0
2440
3FC0
2440
4440
85C0
0000
ENDCHAR
STARTCHAR 997A
ENCODING 39290
SWIDTH 1000 0
DWIDTH 12 0
BBX 12 12 -1 -2
BITMAP
4100
4080
77E0
9240
4420
4A40
4240
4280
5100
6280
4C60
0000
ENDCHAR
STARTCHAR 7F34
ENCODING 32564
SWIDTH 1000 0
DWIDTH 12 0
BBX 12 12 -1 -2
BITMAP
4480
4E80
4A80
AEE0
EAA0
5FA0
A8A0
CE40
2A40
CAA0
1720
0000
ENDCHAR
STARTCHAR 7EDE
ENCODING 32478
SWIDTH 1000 0
DWIDTH 12 0
BBX 12 12 -1 -2
BITMAP
2100
2080
47E0
9240
E420
2A40
5240
E280
1100
E280
8C60
0000
ENDCHAR
STARTCHAR 527F
ENCODING 21119
SWIDTH 1000 0
DWIDTH 12 0
BBX 12 12 -1 -2
BITMAP
5420
A8A0
54A0
7CA0
54A0
7CA0
54A0
FEA0
38A0
5420
9260
0000
ENDCHAR
STARTCHAR 6559
ENCODING 25945
SWIDTH 1000 0
DWIDTH 12 0
BBX 12 12 -1 -2
BITMAP
2500
7D00
29E0
FD40
1340
F940
4940
9C80
7080
1140
7620
0000
ENDCHAR
STARTCHAR 9175
ENCODING 37237
SWIDTH 1000 0
DWIDTH 12 0
BBX 12 12 -1 -2
BITMAP
F900
53E0
F940
AFE0
A900
DBC0
8C80
FFE0
8880
F880
8B80
0000
ENDCHAR
STARTCHAR 8F7F
ENCODING 36735
SWIDTH 1000 0
DWIDTH 12 0
BBX 12 12 -1 -2
BITMAP
40C0
4F00
F100
4FE0
A280
F440
2A60
3240
E240
2440
2840
0000
ENDCHAR
STARTCHAR 8F83
ENCODING 36739
SWIDTH 1000 0
DWIDTH 12 0
BBX 12 12 -1 -2
BITMAP
4100
F7E0
4000
6240
A420
FA40
2240
3A80
E100
2280
2C60
0000
ENDCHAR
STARTCHAR 53EB
ENCODING 21483
SWIDTH 1000 0
DWIDTH 12 0
BBX 12 12 -1 -2
BITMAP
0040
F240
9240
9240
9240
9240
92C0
F340
9040
0040
0040
0000
ENDCHAR
STARTCHAR 7A96
ENCODING 31382
SWIDTH 1000 0
DWIDTH 12 0
BBX 12 12 -1 -2
BITMAP
0400
7FE0
D0A0
3440
DFA0
2400
FFE0
0000
3F80
2080
3F80
0000
ENDCHAR
STARTCHAR 63ED
ENCODING 25581
SWIDTH 1000 0
DWIDTH 12 0
BBX 12 12 -1 -2
BITMAP
27C0
2440
F7C0
2440
37C0
6400
AFE0
3920
2AA0
2FA0
E0C0
0000
ENDCHAR
STARTCHAR 63A5
ENCODING 25509
SWIDTH 1000 0
DWIDTH 12 0
BBX 12 12 -1 -2
BITMAP
2100
2FE0
F440
2280
2FE0
3200
EFE0
2480
2680
2180
EE60
0000
ENDCHAR
STARTCHAR 7686
ENCODING 30342
SWIDTH 1000 0
DWIDTH 12 0
BBX 12 12 -1 -2
BITMAP
4200
7AC0
4320
5A20
63E0
0800
3F80
2080
3F80
2080
3F80
0000
ENDCHAR
STARTCHAR 79F8
ENCODING 31224
SWIDTH 1000 0
DWIDTH 12 0
BBX 12 12 -1 -2
BITMAP
1900
E100
27E0
F900
2100
6FE0
7000
A7E0
A420
2420
27E0
0000
ENDCHAR
STARTCHAR 8857
ENCODING 34903
SWIDTH 1000 0
DWIDTH 12 0
BBX 12 12 -1 -2
BITMAP
2400
44E0
9F00
2400
5FE0
C440
5F40
4440
4740
5C40
41C0
0000
ENDCHAR
STARTCHAR 9636
ENCODING 38454
SWIDTH 1000 0
DWIDTH 12 0
BBX 12 12 -1 -2
BITMAP
F200
9300
9480
A840
B4A0
9480
9480
F480
8480
8880
9080
0000
ENDCHAR
STARTCHAR 622A
ENCODING 25130
SWIDTH 1000 0
DWIDTH 12 0
BBX 12 12 -1 -2
BITMAP
1140
7F20
1100
FFE0
2900
7F20
C940
7E80
48A0
7F60
4220
0000
ENDCHAR
ENDFONT
